<svg enable-background="new 0 0 96 96" viewBox="0 0 96 96" xmlns="http://www.w3.org/2000/svg"><g fill="#fff"><path d="m54.5 12.3c-5-.4-13.2-2.8-19.9-2.8-9.4 0-18.5.6-27.9 13-1.3 1.8-1 2.8-.8 4-1.2 1.3-4.2 2.9-4.9 4.3-.7 1.8 0 2.3 0 2.3s-1.2 1.1-.9 2.1c1.6 5.6 20.5.3 30 4.1 2.1 1.4 6.9 7.4 13.7 9.4 3.9 1.1 8.9 1.1 9.8-.5.9-1.8-5.6-6.1-7.9-8.7 4.5 1.6 6.3 2.6 10.9 7.2 7.4 7.4 12.2 13.4 14.5 17.8.5.9 3.1 2.8 3.1 4.2s-4.8 3.6-6.5 6.6c-1.4 2.7-2.7 7.3-1.7 8.8s2.7-2.3 5.2-2.5 7.2 1.8 8.7 1.8c2.4-.1 6.6-.8 8.6-.6 3.8.4 4.3 5.5 6.8 5.3 1.5-.2.8-7.4-2.5-11.9s-8.2-5.8-9.7-8c-.7-2.4-.3-6.3-.7-8.7-2.9-14.8-12.8-33.5-13.5-35.8.3-1.7 2.4-5.9 3.8-7.3 3.1-3.1 6.9-4.8 5.3-6.2-6.3-5.6-17.7 1.2-23.5 2.1z"/><path d="m19.2 38.5c0 3.9 5.8 9.2 11 7.8 2.9-.7-1.7-3-1.4-6.7-2.4-.7-6.3-1.1-9.6-1.1z"/></g></svg>