<svg width="192" height="192" viewBox="0 0 192 192" fill="none" xmlns="http://www.w3.org/2000/svg">
<rect width="192" height="192" fill="#007597"/>
<rect width="192" height="192" fill="url(#paint0_linear_102_4137)"/>
<path d="M87.3366 113.07C84.6926 115.714 80.796 119.471 71.6113 122.115C52.1285 127.682 35.429 118.914 30.5583 102.215C27.9142 93.0302 28.3317 83.8455 34.1765 75.6349C38.3514 69.5118 45.5879 64.6411 52.546 62.6928C62.9832 59.7704 68.5497 61.0228 73.4204 60.1879L73.6987 60.327C73.4204 64.2236 73.977 68.1201 74.9512 72.8517L74.812 73.13L73.0029 73.6866L72.7246 73.5475C71.7504 70.3467 71.4721 69.5118 70.3588 66.311C64.9315 63.9453 59.6433 64.0844 53.2418 65.8935C41.5521 69.0943 31.9499 79.949 37.0989 98.3184C40.578 110.704 53.7984 123.507 71.8896 118.358C81.2135 115.714 84.8317 111.121 87.1975 108.06L88.1716 108.477L87.3366 113.07ZM148.847 84.4022C149.682 86.0721 150.377 88.8554 150.377 92.4736C150.377 101.102 143.141 110.286 128.111 110.286H125.606C121.988 112.235 119.344 113.905 119.344 117.105C119.344 120.724 121.988 121.698 128.25 121.698C131.869 121.698 140.914 121.419 144.393 121.419C150.516 121.419 157.614 122.533 157.614 134.083C157.614 148.139 144.672 157.741 127.833 157.741C117.257 157.741 107.237 152.453 107.237 141.459C107.237 138.954 107.933 136.588 109.185 134.64C110.298 132.97 115.587 129.352 119.205 127.543V127.264C116.7 126.986 111.829 125.316 111.829 120.306C111.829 115.992 117.396 112.93 121.988 109.869V109.591C116.978 108.338 109.881 104.859 109.881 94.2827C109.881 82.7322 120.736 75.3566 133.817 75.3566C140.636 75.3566 144.393 77.8615 146.759 80.0881H148.568C153.161 80.0881 157.614 79.8098 162.067 79.2531L162.484 80.0881L160.675 84.6805L148.847 84.4022ZM130.755 154.401C141.471 154.401 150.377 147.582 150.377 138.258C150.377 130.743 147.455 127.821 138.688 127.821C136.739 127.821 129.642 128.099 127.833 128.099C125.746 128.099 123.658 127.96 122.266 127.821C116.978 131.439 114.473 135.197 114.473 141.32C114.473 149.948 123.101 154.401 130.755 154.401ZM130.616 106.946C136.739 106.946 142.863 102.632 142.863 92.8911C142.863 82.8714 135.904 79.114 130.338 79.114C121.71 79.114 117.952 84.9588 117.952 93.1694C117.813 100.684 122.127 106.946 130.616 106.946Z" fill="white"/>
<path d="M80.3947 55.3178C77.8897 44.6022 77.6114 43.4889 76.2198 39.4532C79.1422 37.7833 79.838 37.3658 82.7604 35L84.1521 35.4175C84.987 41.5406 86.1003 47.6638 87.492 53.6478L91.2493 52.8128C95.4242 51.8387 100.852 50.0296 102.104 49.6121L102.939 50.0296C102.8 51.5604 102.939 53.2303 103.217 54.7611L102.8 55.0394C101.687 55.1786 100.434 55.3177 99.0424 55.7352L88.4661 58.2402L95.9809 90.2476C96.955 94.4225 99.3208 96.3707 104.331 95.2574C107.114 94.5616 109.062 93.3092 110.315 91.7784L111.567 92.8917C110.871 94.2833 110.175 95.9533 109.34 97.6232C107.671 98.8757 106.001 100.406 102.104 101.241C94.5892 103.051 90.2752 99.5715 88.8836 93.8658C85.9612 81.4803 83.7346 70.6256 81.2296 59.9101L78.3072 60.6059C76.6373 61.0234 74.8282 61.5801 73.1582 62.2759L72.7407 61.9976L72.4624 60.6059L72.7407 60.1884L80.3947 55.3178Z" fill="white"/>
<defs>
<linearGradient id="paint0_linear_102_4137" x1="13.4506" y1="-4.25701e-05" x2="104.927" y2="210.592" gradientUnits="userSpaceOnUse">
<stop stop-color="white" stop-opacity="0.04"/>
<stop offset="0.405687" stop-color="white" stop-opacity="0.01"/>
<stop offset="0.574372" stop-color="white" stop-opacity="0.01"/>
<stop offset="1" stop-color="white" stop-opacity="0.01"/>
</linearGradient>
</defs>
</svg>
