<svg xmlns="http://www.w3.org/2000/svg" viewBox="0 0 451.25 451.25"><path fill="#fff" d="M361.21 418.21c-1.45 1.12-2.29 2.29-3.24 2.4-2.84.32-4.83 2.16-7.07 3.49s-4.41 3.15-6.87 5l-1.56-.89c0 1.8-1.92 1.73-2.81 2.86h-8.1l-.61 1.74c-3.48 1.15-7.07 2.15-10.5 3.52-5.05 2-10.35 3.18-15.55 4.68a96.93 96.93 0 0 1-13.76 2.87c-4.42.6-8.72 1.72-13.13 2.29a105.24 105.24 0 0 0-10.94 2.5c-.29.07-.54.39-.82.41-6 .36-12.13 1.43-18.05.79-4.89-.53-9.74-.64-14.61-.75s-9.67-.13-14.49 0a66.24 66.24 0 0 0-7.58 1c-2.36.35-4.81-.74-7.15.89-.89.62-2.56.1-4 .1l-1.87-3.16a57.83 57.83 0 0 1-7.83 1.08c-2.69 0-5.38-.71-8.08-.88s-5.36.22-8-.11a18.68 18.68 0 0 1-6.62-2 8.78 8.78 0 0 0-4.64-.89h-18.91l-2-3.1-5.6-2.87-7.13 1.82a14.31 14.31 0 0 0-7.57-4.47c-.29-.06-.58-.49-.8-.44-2.18.51-4.1-1.13-6.08-.92a12.43 12.43 0 0 1-6-1.25c-1.91-.77-3.73-.73-5.87-.9l-3.69-5c-6.93 1.06-12.25-3-18.4-5.91h-4.95l-2.21-4.68-4.42.77-4.6-5.93-2.58-.31c-1.85-2.28-.82-6.44-5.39-7-3-.38-5.28-3.4-8.57-2.89-1.53-2.25-2.9-4.36-4.37-6.4s-2.91-3.85-5-6.53c-.95-2.73-1.36-6.87-4.59-9.05-1.63-5.42-2.26-10.74-5.43-16 .24-1.42-.89-3.75.93-5.73-.56-3.85.91-7.78-.82-11.66-1.16-2.6.33-5.36.88-8 .31-1.47 1.52-2.73 1.86-4.2s-.06-3 .11-4.48a22.29 22.29 0 0 1 1-4.08c1.24-4 1.16-8.37 3.65-12s4-7.88 3.27-12.59a8.51 8.51 0 0 0 5.25-5.8c.32-1.19 1.71-2.09 3.66-1l.22-4c1.7-1.69 3.64-3.5 5.42-5.46 1.51-1.66 2.72-3.6 4.3-5.19s3.5-2.4 4.8-4c3.2-3.9 7.3-6.79 10.62-10.53a7.91 7.91 0 0 1 5.55-2.48A50.2 50.2 0 0 1 95.34 251c1.56-.78 2.71-2.37 4.14-3.68a9.35 9.35 0 0 0 5.69-2.78 18.47 18.47 0 0 1 5.46-3.67c3.6-1.9 6.73-4.66 10.15-6.92 5-3.35 10.1-6.7 16.12-8.15 1.22-.29 2.42-.66 4.17-1.14a30.19 30.19 0 0 1 11.82-8.52c4-1.7 8.21-2.71 12.3-4.09 1.9-.64 4.06-1 5.52-2.25a14.19 14.19 0 0 1 6.26-3.07c2.87-.61 4.93-2.54 7.2-4.16.3-.22 1 .08 1.65.16l.47-1.42c4.45-.58 8.3-3.73 13.43-3.21l1.17-2h4.77c.9-4 4.66-3.41 7.42-4.53s5.36-2.39 8.46-2.59a17.44 17.44 0 0 0 5.66-1.93c3.65-1.64 7.19-3.55 10.95-5s7.56-2.69 11.38-3.89a13.94 13.94 0 0 1 3.31-.24l.39-1.5c.28-.13.56-.36.84-.37 2.67 0 5.35.15 8-.07 2.2-.18 4.4.64 6.67-.82 1.59-1 4.23.77 6-1.13 3 .67 5.7-.81 8.58-1.08a99 99 0 0 0 9.85-1.88c-.9-2.19-3.82-2.84-3-5.62l-4.28-4.12a14.45 14.45 0 0 1-4-5.85c-.59-1.71-2.15-3.15-3.45-4.55a8.18 8.18 0 0 1-2.45-5.5l-3.89-3.89c.17-3.08-1.63-5.69-2.26-8.61-.74-3.42-1.58-6.93-2.67-10.33-.9-2.82-3-5.06-3.37-8.16a23.59 23.59 0 0 1-.72-3.15c0-3.83-.15-7.67 0-11.49a21.35 21.35 0 0 1 1.29-7.44c1-2.36.13-5 1.93-7.23 1.6-1.95 1.6-4.67 2.15-7.08a63.44 63.44 0 0 1 1.75-7.29c1.77-4.9 3.4-10 6.72-14.22a87.61 87.61 0 0 0 5.33-8.28 27.61 27.61 0 0 0 1.4-3.5c1.17-1.14 3.14-2.93 5-4.88 1-1 2.26-2.29 2.3-3.48.1-2.87 1.92-3.87 4-4.79a26.23 26.23 0 0 0 7.77-5.61 76.11 76.11 0 0 1 17.54-13.1c3.31-1.74 6.94-3.42 9.22-6.91h7.27l1.75-4h2.08c1.6 0 3 1.76 4.54.93 1.37-.74 2.9-.47 4.09-1C355.27-.79 361.64.19 367.91.1c1.52 0 3.05.64 4.59.94a19.79 19.79 0 0 1 4.18.77c2 .81 4.58.2 7 .2a31.56 31.56 0 0 0 10.61 8.08 4.78 4.78 0 0 1 1.86 2c1.95 3.35 4 6.66 5.64 10.16 2.76 5.89 5.19 11.94 4.36 18.67-.31 2.52-.87 5-1.39 7.87l-1.36.47c-.43 1.75-.28 4.31-1.43 5.22-2.48 2-3.59 5.53-6.67 6.44-2.06.61-2.63 2.71-4.62 3.19a14.38 14.38 0 0 0-5.07 2.15 3.61 3.61 0 0 1-3.19.74c-3.14-.85-6.57-.64-9.44-2.56a7.53 7.53 0 0 0-2.51-.52c-1.54-9.69 1.33-19.44.62-29.6-4.19-2.84-8.78-4.38-14.09-2.62a12.26 12.26 0 0 1-2.35.36c-4.67.58-9.29 1.22-13.55 3.5a34.59 34.59 0 0 1-5.57 1.84L334 39.94h-4.44c-5.41 4.81-10.55 9.82-16.18 14.21a28.18 28.18 0 0 0-6.54 7.78 15.66 15.66 0 0 0-1 2.94l-2.39.37c-.53 4.31-1.43 8.49-2 12.68-.66 4.44-2.35 9.08-1 13.51.87 2.9.81 5.87 1.63 8.78s1.56 5.77 2.55 8.48a83.39 83.39 0 0 0 9.73 19c2.43 3.51 4.18 7.45 7.39 10.47 1 1 1.28 2.76 1.7 4.25 1.61 2.09 4.11 3.69 3.85 6.9l8 12.73h32c-.44 8.67-6.75 13.26-11.94 18.48v2.05l2.91 2.91v3.19c5.34 3.63 9.72 8.53 14.33 13.19a36.64 36.64 0 0 1 3.54 4.52c1 1.43 2.58 2.25 3.37 4.1s2.89 3.14 4.42 4.67l8.07 8.25v2.82l4.12 3.34v4l3.85 3.69c.21 2.46 1 4.59 2.86 6 3.06 2.22 3.91 5.73 5.2 8.87a58 58 0 0 0 3.21 6.68 12.34 12.34 0 0 1 1.8 5.21 8.63 8.63 0 0 0 3 6.46v6.18c1.77 3.92 3.32 7.28 4.8 10.67a5.47 5.47 0 0 1 .32 1.86c.13 2.39 0 4.71.83 7.14a7.74 7.74 0 0 1-.51 6.17 5.63 5.63 0 0 0-.19 4.78c2.33 3.79 0 7.17-.57 10.6a23.57 23.57 0 0 0-.52 3.73c-.06 6.66 0 13.33 0 20l-2 1.91c.34 6.56-1.29 12.92-4 19.05.69 2-1 3.64-1.09 5.57-.09 1.32-.9 2.6-1.38 3.9-2.13-.52-1.16 2-2.4 2.45-.42.15-.66.78-1.08 1-1.51.8-3.52.63-4.47 2.49a31.3 31.3 0 0 1-2.5 4.46c-1.91 2.58-4 5-6.2 7.72l1.13 1.63c-5.47 2-6.88 8.32-12 11.26-1.73-.16-3.3.9-4.73 2.22a33.35 33.35 0 0 0-3.87 3.9c-2.73 3.55-7.07 4.93-10.31 7.82-1.15 1.02-3.22 1.02-4.09 1.23zm-8.51-192.93c-4.53-6.93-10.52-11.45-17.12-15.16a14.39 14.39 0 0 1-5.93-6.08c-.63 0-1.58-.29-1.91 0-3.32 3.32-7.73 4.63-11.78 6.62-2.63 1.29-5.23 2.65-7.9 3.87-1.54.7-3.62.77-4.67 1.87-2.56 2.72-5.76 3.73-9.14 4.62a7.62 7.62 0 0 0-2.92 1.35 8.58 8.58 0 0 0-1.54 2.17 30.61 30.61 0 0 0-5.3 1.65c-5.19 2.77-10 6.16-15.51 8.43a36.41 36.41 0 0 1-4.89 1.54c-1.82.47-4 .71-5.45 2.63-.84 1.11-2.59 1.67-4 2.16-2.79.93-5.65 1.62-8.38 2.38l-.36 1.75c-4.69-1-8 2.28-11.94 3.7s-8.44 1.59-11.26 5.22h-4.17c-2.05 3.15-5.52 4-8.84 5-1.78.55-3.9.51-5.36 1.48-2.63 1.75-6.09 2.41-7.52 5.55h-3.58l-1.53 2.06h-6.34l-.34 1.69c-2.11.73-4.45 1.57-5.59 3.6l1.08 2.6 7.63 1.28 3.75 2.92h3.91l1.22 1.22v4.84l-2.5 3.76h-3l-2.52 3.1c-1.09 0-1.89-.25-2.38 0-4.31 2.47-9.25 2.89-13.92 3.73a21.57 21.57 0 0 1-14.5-2.16c-4-2.21-4.15-1.94-6.94-.84l-3.7-1.06-4.42-4.27c1.19-6.31 1.91-7.51 8.58-7.56 5.9-5.7 11-12.37 19.2-15.2 3.48-2.93 8-3.25 12-4.7 4.22-1.51 8.69-2.39 12.73-4.25 3.79-1.75 7.73-3.08 11.52-4.77.7-.31 1.61-.33 2.15-.8 3-2.57 6.8-3 10.29-4.15 4-1.32 8.29-1.67 11.57-4.66 2.42.25 3.72-2 6-2.53 4.42-1 8.66-2.66 13.28-3 1.43-.1 2.87-1.12 4.14-2s2-2.27 3.32-2.89c4.43-2.15 9-4.06 13.49-6a2.68 2.68 0 0 1 1 0c2.24-1.84 4.42-3.75 6.74-5.48 1.75-1.3 3.54-2.87 5.56-3.41a28.31 28.31 0 0 0 10.49-6c3.35-2.75 7.1-4.73 10.61-7.13 3.75-2.56 7.63-4.92 11.42-7.35l-1.41-4.24c-3.81-2.61-7.6-4.6-10.62-7.78a27.36 27.36 0 0 0-4.36-3.8c-3-2.05-6.06-1.85-9.25-1.84a9 9 0 0 1-5.76 3.07 25.55 25.55 0 0 0-7.16 2c-3.93 1.71-7.8 3.39-12.36 2.9l-4.4 4.72c-4.23 1.2-8.3 1.65-11.6 3.49-3.57 2-7.78 2.28-11 5h-8.23c-4.33 4.31-10.19 4.55-14.43 7.77-1.37 1-8.19 1.56-9 1.29-4.27 3.44-8.24 7.24-13.48 7-2.09 1.18-3.53 2.61-5.09 2.74-4 .35-6.3 3.39-9.43 5.27h-5.37l-2.39 3.75-7.66 1.49-1.6 1.6h-2.07a14.67 14.67 0 0 1-6.86 4.95 6.73 6.73 0 0 0-1.7.72c-2.91 2.11-5.81 4.21-9.28 5.37a5.37 5.37 0 0 0-2.4 1.36c-1.4 1.69-3.36 2.26-5.16 3.27s-3.33 2.24-5.53 2.44a5.57 5.57 0 0 0-2.75 1.71 12.18 12.18 0 0 1-4.57 2.28c-2.17.77-4.52 1.49-6.08 3.37-1.22 1.47-2.22 3.12-3.32 4.69-3.64.87-6.79 2.6-10.16 3.61-2.75.83-4.53 2.83-6.71 4.3a121.75 121.75 0 0 0-13.48 9.84c-1.51 1.34-2.65 2.93-4.08 4.29s-3.07 3.05-4.6 4.59c-.24.24-.63.44-.68.71-.68 3.24-3.58 3-4.78 3.45-2.57 1.84-4.33 3-5.95 4.28-1.84 1.48-4.1 2.81-5.2 4.76-1.86 3.28-4.28 6.15-6.18 9.4-.94 1.61-.44 4.07-2.71 4.9A41.08 41.08 0 0 0 43 328.62c-.78 3.63-2 7.27-4.78 9.83.3.59.58 1.15.87 1.7s.72 1.36 1.08 2c-.35 3.48-3.83 6.56-1.16 10.35a2 2 0 0 1 0 1.9c-1.73 1.52-.6 3.44-1.13 5.62l2.18 1.36a48.24 48.24 0 0 1 0 5.82 12.76 12.76 0 0 0 1.42 7.42 41.07 41.07 0 0 1 2 4.2 24.23 24.23 0 0 0 4.05 7.39c1.23 1.45 3.54 3.13 2.62 5.86-.07.21.23.55.38.86l3.37.19.42 2.51c1.21.43 2.53.48 2.89 1.09 1.15 2 3.11 2.9 4.64 4.29h2.56a1.25 1.25 0 0 1 .42.18c3.86 5.05 5.76 7.79 13.57 12.86 1.4.91 2.38 2.45 3.86 4l6.26-1.23c3.06 3.36 6.71 5.15 10.53 6.64l.32 1.54c5.47-.5 10.32 1.12 14.86 3.93a5.59 5.59 0 0 0 3.06 1c2.27-.16 3.89 1.09 5.68 2.07a49.63 49.63 0 0 1 5 0c1.55.16 3 .75 4.59.94 3.52.41 7.05.69 10.58 1 .29 0 .56.26.86.33a53.76 53.76 0 0 0 7.31 1.74 25.5 25.5 0 0 1 6.47 1.23 111.8 111.8 0 0 0 13.22 4.28 13.69 13.69 0 0 0 9.28-.43l4.08 2.13 2.54-2.36 3.18 1.74 6.59 1.29.76-.57a44 44 0 0 0 5.2.69c11.16.05 22.33 0 33.49.08 1.86 0 3.94-.84 5.63.9a1.9 1.9 0 0 0 1.86-.07c1.22-1.45 2.78-.81 4.17-.85 3.66-.09 7.34-.17 11 0 3 .14 5.65-.81 8.34-1.64 4.58-1.41 9.11-2.81 14-2.42 1.49.12 3.2.47 4.45-.09 2.66-1.21 5.5-1.21 8.23-1.83 2.94-.67 6-.92 9.1-1.37l1.5-1.5c8.24-.52 15.6-4.09 23.56-5.48l1.61-1.73h4.33l3.9-2c1.24-.64 2.92-1 3.6-2 1-1.49 2.51-.56 3.5-1.29l.42-1.21c2.45-.95 4.41-2.08 6.5-2.41s3.28-1.64 4.85-2.8 4.07-.86 4.9-3.09l2.1 1 .8-2.2H368a15.42 15.42 0 0 1 1.65-2.91 12.85 12.85 0 0 1 2.49-1.77l.1-1.79c1.89-2.35 4.48-3.75 5.44-6.54 2.5-.36 2.5-.36 5.91-4.92l3.49-.19c2.86-5.19 6.84-9.72 8.42-15.66 4-2 7.86-4.07 7.92-9.46 3.5-.92 4.21-3.34 4.92-6.4 1-4.1.93-8.56 3.7-12l-.79-1 1.64-1.64a11.52 11.52 0 0 1-.67-2.65c0-2.89-.46-5.85 1-8.58v-29.28l-3.14-.35.84-5.1c-.81-2.22-1.4-4.85-2.68-7.08a16 16 0 0 1-2.14-7.27 3.7 3.7 0 0 0-3-1.76c.64-5.11-2.67-8.92-3.12-13.41l-2.81-.52v-4L393.6 264l-.22.41-3.4-1.53v-5.08l-2.55 1.06c-1.55-1.87-3.37-3.86-5-6s-4.66-2.56-5.07-5.56l.55-.55c-.44-1.87-1.85-2.72-3.26-3.69s-.58-3.8-3.32-4.07l-.46 3h-2.54c-.55-1.6-.73-3.52-1.74-4.74a40.16 40.16 0 0 0-6.45-6.08c-.91-.7-1.7-1.11-2.11-2.32a30.82 30.82 0 0 0-2.31-4.43z"/></svg>