<svg xmlns="http://www.w3.org/2000/svg" viewBox="0 0 826.6 436.3"><path fill="#fff" d="M486.5 98.1c-1.3-18.4-2.6-36.2-3.7-54.1-.1-1 1.8-2.9 3-3.1 10.1-1.5 20.3-2.8 30.5-4 15.8-1.9 31.6-3.2 47.3-5.5 4.8-.7 6 .9 6.5 4.6 1.1 8.2 2.1 16.4 3.2 24.6.3 2.3.9 4.5 1.3 6.7l1.4.5c.7-1.3 1.8-2.5 1.9-3.8 1.3-13.5 7.4-26.1 17.2-35.4 16.5-16.1 36.3-20.2 57.8-11.8 8.4 3.3 15.9 8.9 24 13 11.1 5.7 17.6-.1 20.1-8.5s2.7-8.3 11-9.3c23.9-2.8 47.9-5.7 71.8-8.7 3-.4 5.1-.1 5.7 3.6 4.4 29.7 5.6 59-7.3 87.2-11.2 24.4-29.8 39.6-55.5 46.8-23.5 6.6-46.7 4-70-1.3-7.3-1.5-14.7-2.4-22.2-2.7-6.7-.3-10.3 2.8-11.4 9.4-2 11.5-.7 23 .8 35.3 5.3-4.2 9.7-8.2 14.6-11.4 12.1-8 26-12.9 40.5-14.3 14.5-1.3 29.5-2.5 43.8-.3 20.6 3 40 11.2 56.6 23.8 28.8 21.9 45.4 50.8 50 86.6 3.8 29.9.1 58.9-14.4 85.7-10.5 19.4-25.8 34.6-43.6 47.2-23.8 16.9-50.4 26.9-78.9 31.7-13.9 2.5-27.9 4.1-42 4.7-12 .4-24.2-1.1-36.2-2.6-21.7-2.6-42.6-9.8-61.3-21.1-26.9-16.3-42.4-40.2-46.5-71.4-4.3-32.5 18.7-65.9 50.3-74.9 16.1-4.5 32.2-4.5 47.9-1.1 15.2 3.2 29 10.3 33.6 27.6 2.5 9.2.2 16.7-7.1 22.8-.9.7-1.7 1.5-2.5 2.4-.3.5-.6 1.1-.8 1.8 9.8 3.9 19.5 5.2 29.5 1.8 16.7-5.6 20.8-19.4 21.7-34.6 1-16.9-.8-33.6-6.9-49.5-5.3-13.8-16.8-20.4-29.3-16.8-8.4 2.4-12.7 7.8-13.3 16.5 0 .7-.1 1.3-.1 2-.3 8.8-.3 8.6-8.9 9.7-16.6 2.2-33.2 4.8-49.8 7-13.7 1.8-27.4 3.2-41.1 4.8-4 .5-8 .6-11.9 1.4-4.3.9-5.9-1.2-6.3-4.9-1.4-11.9-2.8-23.8-4.2-35.6-.5-4.4-1.3-8.7-2-13-6.2 2.1-12.6 4.4-19.1 6.3-13 3.7-25.7 2.3-38.1-2.5-5.8-2.3-6.7-1.8-7 4.4-.4 8.9-3.8 16.5-11.3 21.2-15.1 9.5-31.2 14-48.4 7.1-.3 3.1-.4 6.3-1 9.5-4.4 23.7-9.2 47.3-19.7 69.4-11 22.9-24.9 43.4-44.1 60.3-16.6 14.6-34.4 26.7-54.6 34.9-10.9 4.4-22.4 7-33.5 11-16.4 5.8-33.6 6.1-50.5 7-11 .6-22.3-.7-33.3-2.4-19.9-3.1-39.5-8.1-57.7-16.9-19.5-9.5-37.2-21.6-48.9-40.5-14.5-23.3-16.9-47.4-3.1-71.7 11.3-20 28.7-32.2 50.6-38.5 17.1-5 35.2-5.8 52.7-2.2 16.9 3.5 33.5 13.4 37.1 31.9.4 2.4.4 4.9.1 7.4-.6 4.3 1.2 6.8 5.4 7.5 17.8 3 36.8-5.6 43.5-25.1 4.9-14.4 5.3-28.9 3.4-43.8-.7-5.7-1.1-11.5-1.7-17.5-9.2 5-17.7 9.8-26.3 14.2-17.2 8.9-36.1 14.2-55.4 15.5-24.1 1.9-48.3-1.5-70.8-10.2-27.7-10.6-49.7-28-61.8-56C3 177.2.5 165.8.2 154.1c-.2-13 .1-25.9 3.7-38.6 4.3-15.4 11.5-29.8 21-42.6C42.4 49.2 64.5 31 92 20.4c25.3-9.8 51.8-16.7 78.8-19.4 67.8-6.8 121.6 18.8 162 72.9 7.5 10.1 13.5 21.4 19.8 32.3 1.7 2.9 3.1 3.4 5.8 2 1.2-.5 2.5-1 3.8-1.3 2.9-1.2 4.3-.2 5 2.8 1.6 6.6 3.5 13.1 5 19.7 1.4 6.1 4.3 7.7 10.1 5.6 7-2.5 14.2-4.7 21.3-6.7 1-.3 2.6 1.3 3.7 2.2 1.4 1.3 2.6 2.7 3.8 4.1 1.2-1.2 2.7-2.1 3.5-3.6 8-14.7 19.7-24.9 35.8-30 11.5-3.7 23.9-4.8 36.1-2.9zM180.1 190c9 .9 17.4-4.6 22.2-11.7 5.8-8.6 6.8-17.8 6-27.9-.9-11.3-5.3-20.4-13.9-27.6-12-10.1-30.4-3.5-37 8.2-5.9 10.5-6.6 22.2-4 33.9 3.2 14.1 13.3 26.2 26.7 25.1zm266.8-44.1c2.6 7.9 5.3 17.1 8.8 25.9 1.9 4.7 4.5 9.1 7.7 13 4 5.1 10 5.4 15.5 3.7 5.1-1.6 9-5.7 9.4-11.3 1.1-16.6-3.5-32-12.8-45.7-6-8.7-20.3-9.5-25.8 2.1-1.5 3.3-1.7 7.1-2.8 12.3zM405.3 158c-6 1.9-10.9 3.5-15.8 4.8-4 1.1-4.7 3.1-3.5 7 4.6 14.4 8.9 28.9 13.4 43.3.8 2.7 2.1 5.2 3.8 7.4 2.8 3.5 5.8 3.2 8.9.1 3.3-3.3 2.3-7 1.2-10.7-2.2-7.4-2.2-7.5 4.9-9.9 3-1 4.2-2.3 1.9-5.3-2.1-2.8-4.4-5.6-5.5-8.9-2.7-7.9-4.7-16.1-7.1-24.2-.6-1.2-1.3-2.5-2.2-3.6z"/></svg>