<svg width="192" height="192" viewBox="0 0 192 192" fill="none" xmlns="http://www.w3.org/2000/svg">
<rect width="192" height="192" fill="#0078BD"/>
<rect width="192" height="192" fill="url(#paint0_linear_102_3755)"/>
<path d="M104.698 49.5705C98.2057 49.0511 87.5584 45.9348 78.8588 45.9348C66.6535 45.9348 54.8376 46.7139 42.6322 62.8146C40.9443 65.1518 41.3338 66.4502 41.5935 68.0084C40.0354 69.6963 36.14 71.7739 35.2311 73.5917C34.3222 75.9289 35.2311 76.5781 35.2311 76.5781C35.2311 76.5781 33.673 78.0064 34.0625 79.3048C36.14 86.5761 60.6806 79.6944 73.0158 84.6285C75.7426 86.4463 81.9751 94.2369 90.8045 96.8338C95.8685 98.2621 102.361 98.2621 103.529 96.1846C104.698 93.8474 96.258 88.2641 93.2716 84.8881C99.1146 86.9657 101.452 88.2641 107.425 94.2369C117.033 103.845 123.266 111.636 126.252 117.349C126.901 118.518 130.277 120.985 130.277 122.803C130.277 124.621 124.045 127.477 121.837 131.372C120.02 134.878 118.332 140.851 119.63 142.799C120.928 144.746 123.136 139.812 126.382 139.553C129.628 139.293 135.731 141.89 137.678 141.89C140.795 141.76 146.248 140.851 148.845 141.111C153.779 141.63 154.428 148.252 157.674 147.993C159.622 147.733 158.713 138.384 154.428 132.541C150.143 126.698 143.781 125.01 141.833 122.154C140.924 119.037 141.444 113.973 140.924 110.857C137.159 91.6401 124.304 67.3591 123.395 64.3727C123.785 62.1654 126.512 56.7119 128.33 54.8941C132.355 50.8689 137.289 48.6615 135.211 46.8437C127.031 39.5724 112.229 48.4019 104.698 49.5705Z" fill="white"/>
<path d="M58.8569 83.5901C58.8569 88.654 66.3879 95.5358 73.1398 93.718C76.9053 92.809 70.9325 89.8226 71.322 85.0184C68.2057 84.1095 63.1418 83.5901 58.8569 83.5901Z" fill="white"/>
<defs>
<linearGradient id="paint0_linear_102_3755" x1="13.4506" y1="-4.25701e-05" x2="104.927" y2="210.592" gradientUnits="userSpaceOnUse">
<stop stop-color="white" stop-opacity="0.04"/>
<stop offset="0.405687" stop-color="white" stop-opacity="0.01"/>
<stop offset="0.574372" stop-color="white" stop-opacity="0.01"/>
<stop offset="1" stop-color="white" stop-opacity="0.01"/>
</linearGradient>
</defs>
</svg>
