<svg width="192" height="192" viewBox="0 0 192 192" fill="none" xmlns="http://www.w3.org/2000/svg">
<rect width="192" height="192" fill="#049A4A"/>
<rect width="192" height="192" fill="url(#paint0_linear_102_4105)"/>
<path opacity="0.5" d="M166.928 72.2063C165.077 63.7123 160.847 57.4365 156.169 50.3677L132.733 99.9184L153.882 55.2642L156.181 50.4137C155.181 49.0229 154.123 47.6666 153.032 46.3448L150.802 51.0573L128.745 97.6196L125.595 100.723L117.883 96.8725C117.393 96.6214 116.829 96.56 116.297 96.7001L105.952 99.2748L97.9062 101.298C97.5047 101.394 97.1383 101.601 96.8487 101.895L91.3201 107.424L83.0444 115.688C81.456 117.352 80.5815 119.57 80.608 121.87C80.6345 124.17 81.5599 126.368 83.1862 127.994C84.8125 129.621 87.0106 130.546 89.3104 130.573C91.6102 130.599 93.8291 129.725 95.4924 128.136L98.4694 125.205L101.722 121.964L117.389 137.573L120.113 140.308L118.17 142.239L120.883 141.09L133.859 135.55C134.125 135.435 134.367 135.272 134.572 135.067L148.365 121.274C148.547 121.089 148.698 120.875 148.813 120.642L165.089 86.7118L168.663 79.2292C168.196 76.8538 167.617 74.5128 166.928 72.2063Z" fill="white"/>
<path d="M117.389 137.573L101.723 121.918L98.4698 125.205L95.4928 128.136C93.8295 129.725 91.6106 130.599 89.3108 130.573C87.011 130.546 84.8129 129.621 83.1866 127.994C81.5603 126.368 80.6349 124.17 80.6084 121.87C80.5819 119.57 81.4564 117.352 83.0448 115.688L92.9642 105.826L96.8951 101.895L96.217 102.573L95.5388 101.895C95.2867 101.645 94.9798 101.456 94.6423 101.344L80.8495 96.746C80.5624 96.6503 80.2593 96.6122 79.9576 96.6339C79.6558 96.6556 79.3613 96.7367 79.0909 96.8724L71.3324 100.723L68.275 97.6195L48.6777 43.7815L46.9881 39C45.7467 40.1417 44.5437 41.3141 43.3789 42.5172L45.1835 47.4941L64.1256 99.7115L43.333 42.5172C35.2871 51.5055 27.885 62.057 25.4138 74.2637C24.8544 76.3556 24.3831 78.4896 24 80.6658L27.839 86.7922L50.5397 123.136C50.637 123.278 50.7446 123.412 50.8615 123.539L64.6544 137.331C64.8267 137.506 65.0243 137.653 65.2406 137.768L74.1025 142.193L82.0908 150.239C83.3839 151.531 85.1367 152.256 86.9643 152.256C88.7918 152.256 90.5447 151.531 91.8377 150.239L93.8722 148.193L95.263 149.504C95.6903 149.93 96.1974 150.269 96.7556 150.5C97.3137 150.73 97.9118 150.849 98.5158 150.848C99.1197 150.849 99.7178 150.73 100.276 150.5C100.834 150.269 101.341 149.93 101.769 149.504L105.366 145.894L106.757 147.193C107.186 147.621 107.695 147.961 108.255 148.191C108.815 148.422 109.415 148.54 110.021 148.538C110.627 148.54 111.227 148.422 111.788 148.191C112.348 147.961 112.857 147.621 113.286 147.193L116.86 143.596L118.171 142.285L120.113 140.354L117.389 137.573Z" fill="white"/>
<defs>
<linearGradient id="paint0_linear_102_4105" x1="13.4506" y1="-4.25701e-05" x2="104.927" y2="210.592" gradientUnits="userSpaceOnUse">
<stop stop-color="white" stop-opacity="0.04"/>
<stop offset="0.405687" stop-color="white" stop-opacity="0.01"/>
<stop offset="0.574372" stop-color="white" stop-opacity="0.01"/>
<stop offset="1" stop-color="white" stop-opacity="0.01"/>
</linearGradient>
</defs>
</svg>
