<svg fill="none" height="120" viewBox="0 0 117 120" width="117" xmlns="http://www.w3.org/2000/svg"><g clip-rule="evenodd" fill="#fff" fill-rule="evenodd"><path d="m.11888 119.988s.686989-3.416 2.52636-9.036c.82175-2.513 1.84693-5.439 3.17295-8.714 1.53449-3.7905 3.46219-7.9932 5.92541-12.4563 2.0565-3.7252 4.4834-7.6099 7.3489-11.5753 3.3103-4.5803 7.2081-9.2514 11.8595-13.8286 5.9249-5.8301 13.0315-11.54 21.6711-16.6679 6.8951-4.1774 13.7529-8.4967 20.1896-12.8892 4.5556-3.1083 8.9087-6.2288 12.9776-9.268 7.3155-5.4651 13.7432-10.5597 18.7817-14.7856 2.332-1.95547 4.326-3.72719 6.003-5.25159 3.76-3.41827 5.801-5.4928629 5.801-5.4928629.005-.0045429.006-.0121143.002-.01766674-.004-.00555242-.013-.00656249-.018-.00252436 0 0-4.119 2.441554-10.864 6.673004-3.083 1.93477-6.6616 4.27084-10.681 6.86584-4.8165 3.1088-10.219 6.5796-15.995 10.2669-5.1108 3.2623-10.4941 6.6973-16.0314 10.1372-4.4258 2.7495-8.9192 5.5459-13.4656 8.2212-9.1247 5.4489-16.6891 11.446-22.873 17.6966-4.8715 4.9234-8.9228 9.9716-12.2285 14.9764-2.8479 4.3112-5.1617 8.5734-7.0152 12.6676-2.19725 4.8543-3.78827 9.4335-4.8826 13.5658-.93382 3.526-1.53449 6.682-1.867635 9.39-.73292 5.963-.3624232 9.524-.3624232 9.524 0 .007.0050487.013.0121152.013.007067 0 .012618-.005.013123-.012z"/><path d="m116.365.0157166s-12.765 8.4149534-23.4425 14.2979834c-10.6773 5.8836-27.6743 16.997-42.4917 24.406-14.8179 7.4084-21.3546 15.471-29.6353 23.5336-8.2807 8.0627-16.06465 24.9254-16.06465 24.9254s-4.962857-6.1016-4.627693-16.0379c.335165-9.9369 2.949853 2.2659 5.913333 4.881 2.96399 2.6147-1.39416-7.1474 2.61519-19.5248 4.00932-12.3769 9.06512-20.0473 9.06512-20.0473s1.7429 7.1475 3.1376 11.5056c1.3947 4.3582 1.3947-9.7621 3.8352-15.5149 2.4406-5.7529 31.3788-5.7973 61.0141-18.8495 29.6353-13.052245 30.6813-13.5751834 30.6813-13.5751834z"/><path d="m116.369.0157166c-27.1525 27.8847834-40.2214 36.5248834-51.3343 43.5814834-11.1135 7.0566-25.0596 17.7844-32.2505 23.886-7.1909 6.1011-19.2266 24.4968-19.2266 24.4968s5.3743 2.8202 13.127 2.5451c7.7532-.2756-.0015-1.8742-4.4152-3.7636-3.3073-1.4158 1.6415.3518 11.3264-3.5828 9.685-3.9352 18.7571-11.1276 18.7571-11.1276s-5.779-2.4395-9.1675-3.8604 7.843 1.2791 12.3486-1.1272c4.506-2.4057 16.4054-19.227 36.5274-43.2478 9.9736-11.9059 24.3076-27.7999834 24.3076-27.7999834z"/><path d="m5.98608 119.991s11.63032-8.24 25.14192-11.335c5.8835-1.347 12.131-1.77 17.9631.07 13.0936 4.079 22.4858 6.649 27.062 6.557 2.061-.041 3.2901-.687 3.7726-1.644.3579-.708.3756-1.679-.1469-2.925-.9121-2.177-3.6277-5.511-8.4079-10.19-2.9034-2.8362-4.6165-4.9456-5.3121-6.5144-.2781-.6274-.3963-1.1176-.2448-1.5088.2433-.6284 1.0514-.8434 2.1639-1.0226 4.0018-.6451 11.5597.5098 20.1972 1.5516 4.4041.531 9.0843 1.0161 13.7149 1.2948 2.955.1529 4.848.0121 5.949-.3256.924-.2832 1.402-.7249 1.594-1.1928.176-.428.166-.9181-.086-1.4487-.261-.5507-.8-1.1846-1.534-1.8378-2.326-2.0695-6.646-4.5237-8.2756-5.9986-.1015-.0914-.1923-.1777-.2696-.2605-.0398-.0429-.1085-.1232-.1085-.1232l-.1766-.1918s.4825-.1509 1.0723-.1358c1.665.044 4.956.6098 10.661 1.9176-4.978-1.4451-8.112-2.2028-9.933-2.4602-.9488-.1343-1.5641-.1252-1.9114-.0272-.8359.2347-.7637.9918.2554 1.9706 1.355 1.3013 4.36 3.289 6.589 5.1375.959.7955 1.77 1.5577 2.204 2.2235.173.266.317.4805.228.6718-.085.1817-.341.2468-.711.3438-1.015.266-2.743.2998-5.429.0595-4.5896-.3725-9.2198-.9929-13.5856-1.5713-8.8677-1.1751-16.6517-2.2558-20.766-1.5915-2.0312.3276-3.277 1.1453-3.7176 2.2936-.3014.7844-.2711 1.7919.2902 3.0468.7632 1.7066 2.593 4.0346 5.767 7.1117 5.1521 4.986 7.8561 8.241 8.2665 10.212.1035.498-.052.836-.4911 1.014-.738.301-1.8813.338-3.3986.209-4.9462-.421-13.4646-2.749-24.8158-6.167-6.1137-1.818-12.6454-1.392-18.7354.205-13.5358 3.549-24.83552 12.582-24.83552 12.582z"/></g></svg>