<svg width="192" height="192" viewBox="0 0 192 192" fill="none" xmlns="http://www.w3.org/2000/svg">
<rect width="192" height="192" fill="#212121"/>
<rect width="192" height="192" fill="url(#paint0_linear_102_4476)"/>
<path d="M159.562 124.245L133.464 68.681C132.201 66.5763 130.096 64.8926 127.571 64.8926H34.9636C34.1218 64.8926 33.7008 64.8926 33.2799 65.3135C32.0171 66.1554 31.5961 67.4182 32.438 68.681L58.5363 124.245C59.7991 126.35 61.9038 128.034 64.4295 128.034H157.036C157.457 128.034 158.299 128.034 158.72 127.613C159.983 126.771 160.404 125.508 159.562 124.245ZM112.417 117.51C112.417 118.352 111.996 118.773 111.996 119.194C111.996 119.615 111.575 119.615 111.154 119.615C110.733 119.615 110.312 119.615 109.891 119.194L96.4209 112.038L82.9508 119.194C82.5299 119.615 82.109 119.615 81.688 119.615C81.2671 119.615 81.2671 119.615 80.8461 119.194C80.4252 118.773 80.4252 118.352 80.4252 117.931V117.51L82.9508 102.777L72.0064 92.2537C71.5855 92.2537 71.1645 91.4118 71.1645 90.9909C71.1645 90.5699 71.5855 90.149 72.8483 89.728L87.1603 87.6233L93.8953 74.1533C94.3162 73.3114 95.1581 72.8904 95.5791 72.8904C96.4209 72.8904 96.8419 73.3114 97.2628 74.1533L103.998 87.6233L118.731 89.728C119.994 89.728 120.415 90.149 120.415 90.9909C120.415 91.8327 120.415 92.2537 120.835 92.2537L109.891 102.777L112.417 117.51Z" fill="white"/>
<defs>
<linearGradient id="paint0_linear_102_4476" x1="13.4506" y1="-4.25701e-05" x2="104.927" y2="210.592" gradientUnits="userSpaceOnUse">
<stop stop-color="white" stop-opacity="0.04"/>
<stop offset="0.405687" stop-color="white" stop-opacity="0.01"/>
<stop offset="0.574372" stop-color="white" stop-opacity="0.01"/>
<stop offset="1" stop-color="white" stop-opacity="0.01"/>
</linearGradient>
</defs>
</svg>
