<svg enable-background="new 0 0 309.8 45.8" viewBox="0 0 309.8 45.8" xmlns="http://www.w3.org/2000/svg"><g fill="#fff"><path d="m7.2 44.1c-2.2-1.1-4-2.9-5.3-5-1.3-2.3-1.9-4.8-1.9-7.4v-17.6c-.1-2.6.6-5.1 1.9-7.4 1.2-2.1 3.1-3.9 5.3-5 2.4-1.2 5.1-1.8 7.8-1.7 2.7 0 5.4.5 7.8 1.7 2.2 1.1 4 2.7 5.3 4.8s1.9 4.5 1.9 7v.6c.1.4-.2.8-.6.8-.1 0-.1 0-.2 0h-2.8c-.5 0-.8-.2-.8-.7v-.7c.1-2.6-.9-5.2-2.9-7-2.2-1.7-4.9-2.7-7.7-2.5-2.8-.1-5.5.9-7.6 2.7-2 1.9-3 4.6-2.9 7.3v17.9c-.1 2.7 1 5.4 3 7.2 2.1 1.9 4.9 2.9 7.7 2.8 2.7.1 5.4-.8 7.5-2.6 1.9-1.8 2.9-4.3 2.8-6.8v-5.8c0-.2-.1-.3-.2-.3h-.1-9.2c-.4.1-.8-.2-.8-.6 0-.1 0-.1 0-.2v-2.3c-.1-.4.2-.8.6-.8h.2 13.2c.4-.1.8.2.8.6v.2 8.1c0 4.6-1.4 8.1-4 10.7s-6.3 3.8-11 3.8c-2.7 0-5.4-.6-7.8-1.8z"/><path d="m47 44c-2.2-1.1-4.1-2.9-5.4-5-1.3-2.3-2-4.9-1.9-7.5v-30.2c-.1-.4.2-.8.6-.8h.2 2.9c.4-.1.8.2.8.6v.2 30.3c-.1 2.8 1 5.5 3 7.4 2.1 2 4.9 3 7.7 2.8 2.8.1 5.6-.9 7.7-2.9 2-1.9 3-4.6 2.9-7.4v-30.2c-.1-.4.2-.8.6-.8h.2 2.9c.4-.1.8.2.8.6v.2 30.1c.1 2.6-.6 5.2-1.9 7.5-1.3 2.1-3.1 3.9-5.3 5-2.5 1.2-5.2 1.9-8 1.8-2.6.1-5.3-.5-7.8-1.7z"/><path d="m81.7 44.5v-43.2c-.1-.4.2-.8.6-.8h.2 2.9c.4-.1.8.2.8.6v.2 43.1c.1.4-.2.8-.6.8-.1 0-.1 0-.2 0h-2.9c-.4.1-.8-.2-.8-.6z"/><path d="m125.9 1.3v2.4c.1.4-.2.8-.6.8-.1 0-.1 0-.2 0h-12.3c-.2 0-.3.1-.3.2v.1 39.6c.1.4-.2.8-.6.8-.1 0-.1 0-.2 0h-2.9c-.4.1-.8-.2-.8-.6 0-.1 0-.1 0-.2v-39.5c0-.2-.1-.3-.3-.3 0 0 0 0-.1 0h-11.8c-.4 0-.8-.3-.8-.7 0-.1 0-.1 0-.2v-2.4c-.1-.4.2-.8.6-.8h.2 29.2c.4 0 .8.3.8.7.1 0 .1.1.1.1z"/><path d="m156.9 44.6-2.6-7.8c-.1-.2-.2-.3-.3-.3h-19.1c-.1 0-.2.1-.3.3l-2.5 7.8c-.1.4-.5.7-.9.7h-3.1c-.2 0-.5-.1-.6-.3s-.2-.5-.1-.7l14.1-43.1c.1-.4.5-.7.9-.7h4.1c.4 0 .8.3.9.7l14.1 43.1c.1.1.1.2.1.3 0 .2-.1.3-.2.5-.1.1-.3.2-.5.2h-3.1c-.5 0-.9-.3-.9-.7zm-20.6-11.8h16.4c.3 0 .3-.1.3-.4l-8.3-26.2c0-.2-.1-.3-.2-.3s-.2.1-.2.3l-8.3 26.2c0 .3 0 .4.3.4z"/><path d="m195.2 44.7-9.3-19.7c-.1-.2-.2-.3-.4-.3h-10.7c-.2 0-.3.1-.3.3v.1 19.4c.1.4-.2.8-.6.8-.1 0-.1 0-.2 0h-2.9c-.4.1-.8-.2-.8-.6 0-.1 0-.1 0-.2v-43.2c-.1-.4.2-.8.6-.8h.2 16.4c3.3-.1 6.5 1.1 8.9 3.4 2.3 2.4 3.5 5.6 3.4 8.9.1 2.7-.8 5.4-2.4 7.6-1.6 2.1-4 3.5-6.6 4.1-.2 0-.3.2-.2.4l9.5 19.6c.1.1.1.3.1.4 0 .4-.3.6-.8.6h-2.9c-.4-.2-.8-.4-1-.8zm-20.7-40v16c0 .2.1.3.3.3h.1 11.8c2.2.1 4.4-.7 6-2.3s2.4-3.8 2.3-6c.1-2.2-.7-4.4-2.3-6.1-1.6-1.6-3.8-2.4-6-2.3h-11.8c-.2 0-.3.1-.3.2-.1.2-.1.2-.1.2z"/><path d="m219.8 44.2v-42.6c-.1-.5.4-1 .9-1.1h.2 15.7c2.9-.1 5.8.5 8.5 1.7 2.3 1 4.2 2.7 5.6 4.8 1.3 2.1 2 4.6 2 7.1v17.6c0 2.5-.7 5-2 7.1-1.4 2.1-3.3 3.7-5.6 4.8-2.6 1.2-5.5 1.8-8.4 1.7h-15.7c-.5.1-1-.4-1.1-.9-.1-.1-.1-.1-.1-.2zm9.4-6.6h7.7c1.8.1 3.5-.7 4.8-2 1.3-1.5 1.9-3.4 1.9-5.3v-14.8c.1-1.9-.6-3.8-1.8-5.3-1.3-1.3-3-2.1-4.9-2h-7.6c-.2 0-.3.1-.4.3v.1 28.6c-.1.2 0 .4.3.4z"/><path d="m259.3 44.2v-42.6c-.1-.5.4-1 .9-1.1h.2 6.9c.5-.1 1 .4 1.1.9v.2 42.6c.1.5-.4 1-.9 1.1-.1 0-.1 0-.2 0h-6.9c-.5.1-1-.4-1.1-.9 0-.1 0-.1 0-.2z"/><path d="m287.5 44.2v-15.9l-.1-.5-12.9-26c-.1-.2-.2-.4-.2-.6s.1-.4.3-.5.5-.2.7-.2h7.4c.6 0 1.1.3 1.3.8l7.8 16.6c.1.1.2.2.3.2s.2-.1.2-.2l7.7-16.6c.2-.5.7-.8 1.3-.8h7.5c.6 0 1 .3 1 .8 0 .2 0 .4-.1.5l-13.1 26-.1.5v15.8c.1.5-.4 1-.9 1.1-.1 0-.1 0-.2 0h-6.8c-.5.1-1-.4-1.1-.9z"/></g></svg>