<svg width="192" height="192" viewBox="0 0 192 192" fill="none" xmlns="http://www.w3.org/2000/svg">
<rect width="192" height="192" fill="#F34A63"/>
<rect width="192" height="192" fill="url(#paint0_linear_93_2861)"/>
<path fill-rule="evenodd" clip-rule="evenodd" d="M40.2388 153.988C40.2388 153.988 40.8992 150.683 42.6674 145.246C43.4573 142.815 44.4428 139.984 45.7175 136.815C47.1926 133.148 49.0457 129.082 51.4135 124.764C53.3904 121.16 55.7234 117.402 58.478 113.565C61.6601 109.134 65.407 104.615 69.8784 100.186C75.5739 94.5456 82.4054 89.0213 90.7106 84.0601C97.3388 80.0185 103.931 75.8396 110.119 71.5899C114.498 68.5827 118.683 65.5636 122.594 62.6232C129.626 57.3358 135.805 52.4068 140.649 48.3183C142.89 46.4264 144.807 44.7123 146.419 43.2374C150.034 39.9303 151.996 37.9232 151.996 37.9232C152.001 37.9188 152.001 37.9114 151.998 37.9061C151.994 37.9007 151.985 37.8997 151.98 37.9036C151.98 37.9036 148.021 40.2658 141.537 44.3597C138.573 46.2316 135.133 48.4917 131.269 51.0023C126.639 54.01 121.446 57.368 115.893 60.9354C110.98 64.0917 105.806 67.415 100.483 70.7431C96.2281 73.4032 91.9087 76.1087 87.5383 78.697C78.7668 83.9688 71.4952 89.7709 65.5507 95.8183C60.8677 100.582 56.9732 105.466 53.7955 110.308C51.0578 114.479 48.8336 118.602 47.0519 122.564C44.9397 127.26 43.4102 131.69 42.3583 135.688C41.4606 139.1 40.8832 142.153 40.5629 144.773C39.8584 150.542 40.2145 153.987 40.2145 153.987C40.2145 153.994 40.2194 154 40.2262 154C40.233 154 40.2383 153.995 40.2388 153.988Z" fill="white"/>
<path fill-rule="evenodd" clip-rule="evenodd" d="M151.997 37.9157C151.997 37.9157 139.726 46.0571 129.462 51.7489C119.198 57.4413 102.859 68.1934 88.6156 75.3615C74.3713 82.5291 68.0877 90.3296 60.1276 98.1301C52.1674 105.931 44.6849 122.245 44.6849 122.245C44.6849 122.245 39.9141 116.342 40.2363 106.729C40.5585 97.1149 43.072 108.921 45.9207 111.451C48.77 113.981 44.5805 104.536 48.4347 92.561C52.2888 80.5864 57.1488 73.1653 57.1488 73.1653C57.1488 73.1653 58.8243 80.0805 60.165 84.2969C61.5057 88.5135 61.5057 74.8522 63.8517 69.2864C66.1978 63.7205 94.0157 63.6775 122.504 51.0496C150.992 38.4217 151.997 37.9157 151.997 37.9157Z" fill="white"/>
<path fill-rule="evenodd" clip-rule="evenodd" d="M151.983 37.9157C125.882 64.8939 113.319 73.2532 102.636 80.0803C91.9529 86.9075 78.5467 97.2866 71.6342 103.19C64.7216 109.093 53.1519 126.89 53.1519 126.89C53.1519 126.89 58.3181 129.619 65.7707 129.353C73.2237 129.086 65.7692 127.539 61.5264 125.711C58.3471 124.342 63.1044 126.052 72.4143 122.245C81.7244 118.438 90.4453 111.479 90.4453 111.479C90.4453 111.479 84.89 109.119 81.6327 107.744C78.3754 106.37 89.1721 108.982 93.5033 106.654C97.8348 104.326 109.274 88.0518 128.617 64.8119C138.204 53.2931 151.983 37.9157 151.983 37.9157Z" fill="white"/>
<path fill-rule="evenodd" clip-rule="evenodd" d="M45.8696 153.99C45.8696 153.99 57.0497 146.018 70.0383 143.024C75.694 141.721 81.6996 141.312 87.306 143.092C99.8927 147.038 108.921 149.525 113.32 149.436C115.302 149.396 116.483 148.771 116.947 147.845C117.291 147.16 117.308 146.221 116.806 145.015C115.929 142.909 113.318 139.683 108.723 135.156C105.932 132.412 104.285 130.372 103.617 128.854C103.349 128.247 103.236 127.772 103.381 127.394C103.615 126.786 104.392 126.578 105.462 126.405C109.308 125.78 116.574 126.898 124.877 127.906C129.111 128.42 133.61 128.889 138.061 129.158C140.902 129.306 142.721 129.17 143.78 128.843C144.668 128.569 145.127 128.142 145.312 127.689C145.481 127.275 145.471 126.801 145.229 126.288C144.978 125.755 144.46 125.142 143.755 124.51C141.519 122.508 137.366 120.133 135.799 118.706C135.702 118.618 135.615 118.534 135.54 118.454C135.502 118.413 135.436 118.335 135.436 118.335L135.266 118.149C135.266 118.149 135.73 118.003 136.297 118.018C137.897 118.061 141.061 118.608 146.545 119.873C141.76 118.475 138.747 117.742 136.997 117.493C136.085 117.363 135.493 117.372 135.159 117.467C134.356 117.694 134.425 118.426 135.405 119.373C136.707 120.632 139.596 122.555 141.739 124.344C142.661 125.113 143.44 125.851 143.857 126.495C144.024 126.752 144.162 126.96 144.077 127.145C143.995 127.321 143.749 127.384 143.393 127.478C142.417 127.735 140.756 127.768 138.174 127.535C133.762 127.175 129.311 126.575 125.115 126.015C116.59 124.878 109.108 123.832 105.153 124.475C103.2 124.792 102.002 125.583 101.579 126.694C101.289 127.453 101.318 128.428 101.858 129.642C102.591 131.293 104.35 133.545 107.402 136.522C112.354 141.346 114.954 144.496 115.348 146.402C115.448 146.884 115.298 147.211 114.876 147.383C114.167 147.675 113.068 147.71 111.609 147.586C106.854 147.178 98.6656 144.926 87.7538 141.619C81.8768 139.86 75.598 140.272 69.7437 141.818C56.7319 145.251 45.8696 153.99 45.8696 153.99Z" fill="white"/>
<defs>
<linearGradient id="paint0_linear_93_2861" x1="13.4506" y1="-4.25701e-05" x2="104.927" y2="210.592" gradientUnits="userSpaceOnUse">
<stop stop-color="white" stop-opacity="0.04"/>
<stop offset="0.405687" stop-color="white" stop-opacity="0.01"/>
<stop offset="0.574372" stop-color="white" stop-opacity="0.01"/>
<stop offset="1" stop-color="white" stop-opacity="0.01"/>
</linearGradient>
</defs>
</svg>
