<svg enable-background="new 0 0 96 96" viewBox="0 0 96 96" xmlns="http://www.w3.org/2000/svg"><g fill="#fff"><path d="m83.6 67.8c-.7 1-1 1-2 .7-6.1-1.7-12.6-2.4-19-2 .3 1 1 2 2 2.7 2.4 1.7 4.8 3.1 7.5 4.1 7.1 2.7 12.6 8.8 14.3 16.3 0 .3 0 .7.3 1 0 .3.3.7 0 1s-.7 0-1-.3l-1-1c-.3-.7-.7-1.4-1.4-1.7-2.7-4.1-6.8-7.1-11.6-8.5.3 6.1-2.7 10.9-6.1 16-.3-.7-.3-1.7-.3-2.4.7-3.4.7-6.8.3-10.2 0-1-.7-1.4-1.7-.7-7.1 3.1-15 4.1-22.4 3.4-.7 0-1.4-.3-2-.3-.7 0 0-.7-.7-1-4.4-2-8.8-4.8-13.3-6.5-2.4-1-4.8-1.7-7.5-1.7-.3 0-.7 0-1-.3-3.1-2-5.4-4.4-7.5-7.5-.3-.3-.3-1 0-1.4 1-1.4 1.7-3.1 2-4.8 0-.7.7-1.4 1.4-1.4 1-.3 2.4-.7 3.4-1 .3 0 .7-.3.7-.7.3-1.7 1.7-2 2.7-2.4 3.1-1.7 6.5-2 9.9-1.7-3.1-3.4-2.4-6.8-1.7-10.5l-1.7 1.7c-.7.7-2.7 1.7-3.4.7s-3.1-2-3.7-4.1c-.3-.7 0-.7.7-.7 1 0 1.7-.7 1.7-1.4v-.3c0-1.4.7-3.1-1.7-3.4-.3 0-.7-.7-.7-1s.7-.3 1-.3 1-.7 1.4-1c.7-1 1.4-2.4 2.4-3.4.7-1 .7-2 .7-3.1 0-1 0-.3-.3-.3s-1 0-1.4-.3c1.4-.7 2.4-2 2.7-3.4 1-2.4 2.7-4.4 4.8-6.1 2-1.4 3.1-3.7 3.4-6.1 0-1.4.3-2.4.7-3.7.3-3.1 2.7-5.8 5.8-6.5 2-.3 3.7-1 5.4-1.7 1-.7 2.4-.7 3.4.3 1 .7 1.4 2.4.7 3.4-.3 1.4-.3 3.1.3 4.4.3 1.7.3 3.4 0 5.1 0 .7-.7 1-1.4 1-2 0-2 2-3.4 3.4 0 .3 0 .3.3.7 1 1.4 1.4 2.7 1.4 4.4 0 4.1.3 7.8 1 11.9 0 .3 0 .7.3 1 .7 2.4 1 2.7 3.4 2 1.7-.3 3.1-.7 4.8-1 2-.3 4.1 1 4.4 3.1v.3c.3.7.3 1.7.3 2.4-.7 3.4-.3 7.1 1 10.5.7 1.7.3 3.4-.7 4.8-1 2-1 4.1 0 6.1.3.7.7.7 1.4.7 6.5 0 13.3.7 19.7 2 0 .7.3.7 1 .7zm-47.6 5.8h.7c6.5-.3 12.9-1.4 19.4-2.7.3 0 .7 0 .7-.3-.3-1.7-2-3.1-3.7-3.4l-4.8.7c-5.1 1-10.2 2.4-15.3 4.1-.3 0-.7.3-.7.7 0 .3.3.3.7.3.9.6 2 .6 3 .6zm17-10.6c-1-4.1-1.4-8.5-.3-12.9 0-.7-.3-1-.7-1.4-.3-.3-1-.3-1.4 0-3.4 2.4-6.1 5.4-9.9 8.2 1.7 0 3.4.7 4.4 2 .3.3.7.3 1 .3 2 0 3.7 1 5.1 2.4.4.7 1.1 1.1 1.8 1.4zm-10.9 17c2 1.4 4.4 1.7 6.8 1.7 4.1-1 8.2-2.4 12.2-4.4.3 0 .3 0 .3-.3-.3-.3-.3-.3-.7 0-1 .3-1.7.7-2.7 1-4.4 1.4-8.8 2-13.6 2-.6-.3-1.6-.3-2.3 0zm-3.4-39.4.3 3.4c0 .7.3.7.7.3l3.7-2.7c.3-.3.3-.3.3-.7-.3-1.4-.7-3.1-1.4-4.4 0-.3-.3-.7-.7-.3-1.5.6-1.9 3-2.9 4.4zm11.9 41.5.3.3h1.4c3.4-.3 6.8-1 10.2-2 .7-.3 1.7-.3 1-1.4-.7-1-1-1.4-2-.7-3.1 1.7-6.1 2.7-9.5 3.4-.7 0-1.1 0-1.4.4z"/><path d="m79.5 72.2c-2 2-8.8 1-12.6-1.7 4.1.3 8.5 1 12.6 1.7z"/></g></svg>