<svg enable-background="new 0 0 26.6 26.7" viewBox="0 0 26.6 26.7" xmlns="http://www.w3.org/2000/svg"><g fill="#fff"><path d="m6 24.6c-.3-.6-.3-1.2-1-.6.1-.7 0-.9-.7-.7.2-.3.2-.3-.2-.6-.1-.1-.2-.3-.2-.5s-.1-.5-.3-.6c-.4-.1-.6-.2-.4-.6v-.1c-.6.5-.9-.9-1.6-.3.5-.6 0-1.1 0-1.6 0-.3-.5-.4-.9-.1.4-.6-.2-1.3.1-1.9v-.1c-.5 0-.3-.5-.5-.6s-.1-.3.1-.4c.2-.3.4-.6.5-.9.1-.2.1-.3-.1-.4-.6-.2-.8-.9-.6-1.5 0 0 0 0 0-.1.1-.1.1-.3 0-.4-.5-.8.4-1.2.6-1.7.1-.2.3-.4.2-.5-.4-.5 0-1.3-.8-1.6.5-.7.8-.1 1.5-.1-.9-.4-.3-1.2-.7-1.7-.1-.1.6-.7.8-.6.6.2 1 0 1-.6 0-.4.2-.7.2-1.1s.2-.3.3-.2c.8.3 1-.4 1-.8 0-.5.3-.9.7-1.1.2 0 .2.2.2.3s.2.3.4.2c.1-.1.2-.2.1-.3-.1-.4.4-.6.5-1 .4.8.6.3 1.1.2.6-.2 1-.6 1.3-1.1.1.1.1.1.1.1.2.2-.1.7.3.8s.4-.4.7-.5c.6-.2.7-1 1.2-1.3.3-.2.4-.1.4 0 .3.5.9.6 1.4.4.3-.1.7-.1 1 0s.5.2.7-.1c.1-.1.1-.1.2-.1.6 1 1.3.2 2 .1-.1.4-.6.5-.5 1 .6-.1 1.1-.4 1.3-.9-.1.9.2.9.7.7s.8 0 1 .3c.1.2.3.3.5.3.4-.2.7-.3 1 .2.1.1.2-.3.4-.2 0 1.2 0 1.2 1.2 1.7.5.2.8.7 1.2 1 .1.1.1.2.2.2.7.3.9.8.5 1.5-.4 1 .6 1.2 1.1 1.6.2.1.3.2.5.2-.3.1-.7.1-.7.4 0 .6.7.5 1 .7-.1.3-.3.1-.5.1s-.4.2-.4.2c.3.6-.1 1.5.7 1.9.2.1.7.4.3.8v.1c0 .4.6.9.5 1-.5.3-.3.7-.3 1s-.3.9.1 1.3c.1.1-.3.1-.4.2s-.3 0-.3.2.1.2.2.2c.2.3.4.6.5 1-.1.4-.1.8-.7.7-.3 0-.5.1-.3.5 0 .1.1.1.1.2-.9.2-.2 1-.4 1.1-.8.5-.7 1.5-1.2 1.9-.4.3-.6.7-.6 1.2-.1.2-.3.1-.5 0s-.4-.4-.6-.3c-.2.2 0 .3.1.4.2.6 0 .8-.6.7s-1.1.3-1.1 1c0 .2 0 .4-.3.3s-.5 0-.7-.1-.6-.3-.8.2c0 .1-.1.1-.2.1-.7.3-.7.3-.7 1-.9-.6-1.4-.6-1.5.3-.1-.1-.2-.2-.3-.3-.3-.3-.5-.5-.6.1 0 .2-.1.3-.3.3-.2.1-.2-.1-.3-.2-.3-.4-.3-.4-.8-.2-.2.1-.3-.1-.5-.2s-.4-.4-.6-.2-.1.5-.1.7c0 .1.1.3.1.4-.3-.1-.4-.3-.6-.5s-.4-.3-.6-.1-.4.5-.7 0c-.1-.2-.2 0-.3.2-.2.5-.4.4-.6 0s-.6-.6-1-.6c-.6-.1-1.2-.4-1.5-1-.1-.2-.2-.3-.4 0-.3.7-.5.5-.7-.1 0-.2-.1-.3-.3-.3s-.2 0-.3.4zm7.1-20.3c-2.9 0-5.7 1.4-7.3 3.9-1.1 1.7-1.5 3.8-1.3 5.8.2 2.5 1.6 4.8 3.7 6.2 2.6 1.8 5.9 2.1 8.7.6.4-.3 1-.2 1.3.2 1.3 1.4 1.3 1.3 2.6-.1 1-1.1 1-1.1-.1-2.1-.4-.3-.5-.8-.2-1.2.6-1 1-2.2 1.2-3.4.8-4.6-2.8-10.1-8.6-9.9z"/><path d="m18 13.4c0 .7-.1 1.3-.3 1.9-.1.4-.2.5-.6.2-1.1-.8-1.1-.8-2 .1l-.3.4c-.8.8-.8.8-.1 1.6.5.5-.1.5-.3.5-2.3.6-4.7-.6-5.6-2.8-.9-1.9-.7-4.1.5-5.7 1-1.4 2.7-2.2 4.4-1.9 2 .2 3.7 1.8 4.1 3.8.2.6.3 1.3.2 1.9z"/></g></svg>