<svg enable-background="new 0 0 96 96" viewBox="0 0 96 96" xmlns="http://www.w3.org/2000/svg"><g fill="#fff"><path d="m21.7 88.8c-1.1-2.2-1.1-4.3-3.6-2.2.4-2.5 0-3.2-2.5-2.5.7-1.1.7-1.1-.7-2.2-.4-.4-.7-1.1-.7-1.8s-.4-1.8-1.1-2.2c-1.4-.4-2.2-.7-1.4-2.2v-.4c-2.2 1.8-3.2-3.2-5.7-1.1 1.8-2.2 0-4 0-5.7 0-1.1-1.8-1.4-3.2-.4 1.2-1.9-.9-4.4.2-6.6v-.4c-1.8 0-1.1-1.8-1.8-2.2s-.4-1.1.4-1.4c.7-1.1 1.4-2.2 1.8-3.2.4-.7.4-1.1-.4-1.4-2.2-.7-2.9-3.2-2.2-5.4 0 0 0 0 0-.4.4-.4.4-1.1 0-1.4-1.8-2.9 1.5-4.3 2.2-6.1.4-.7 1.1-1.4.7-1.8-1.4-1.8 0-4.7-2.9-5.7 1.8-2.5 2.9-.4 5.4-.4-3.2-1.4-1.1-4.3-2.5-6.1-.4-.4 2.2-2.5 2.9-2.2 2.2.7 3.6 0 3.6-2.2 0-1.4.7-2.5.7-4 0-1.4.7-1.1 1.1-.7 2.9 1.1 3.6-1.4 3.6-2.9 0-1.8 1.1-3.2 2.5-4 .7 0 .7.7.7 1.1s.7 1.1 1.4.7c.4-.4.7-.7.4-1.1-.4-1.3 1.4-2 1.8-3.4 1.4 2.9 2.2 1.1 4 .7 2.2-.7 3.6-2.2 4.7-4 .3.4.3.4.3.4.7.7-.4 2.5 1.1 2.9 1.4.4 1.4-1.4 2.5-1.8 2.2-.7 2.5-3.6 4.3-4.7 1.1-.7 1.4-.4 1.4 0 1.1 1.8 3.2 2.2 5 1.4 1.1-.4 2.5-.4 3.6 0s1.8.7 2.5-.4c.4-.4.4-.4.7-.4 2.2 3.6 4.7.7 7.2.4-.4 1.4-2.2 1.8-1.8 3.6 2.2-.4 4-1.4 4.7-3.2-.4 3.2.7 3.2 2.5 2.5s2.9 0 3.6 1.1c.4.7 1.1 1.1 1.8 1.1 1.5-.7 2.5-1.1 3.6.7.4.4.7-1.1 1.4-.7 0 4.3 0 4.3 4.3 6.1 1.8.7 2.9 2.5 4.3 3.6.4.4.4.7.7.7 2.5 1.1 3.2 2.9 1.8 5.4-1.4 3.6 2.2 4.3 4 5.7.7.4 1.1.7 1.8.7-1.1.4-2.5.4-2.5 1.4 0 2.2 2.5 1.8 3.6 2.5-.4 1.1-1.1.4-1.8.4s-1.4.7-1.4.7c1.1 2.2-.4 5.4 2.5 6.8.7.4 2.5 1.4 1.1 2.9v.4c0 1.4 2.2 3.2 1.8 3.6-1.8 1.1-1.1 2.5-1.1 3.6s-1.1 3.2.4 4.7c.4.4-1.1.4-1.4.7s-1.1 0-1.1.7.4.7.7.7c.7 1.1 1.4 2.2 1.8 3.6-.4 1.4-.4 2.9-2.5 2.5-1.1 0-1.8.4-1.1 1.8 0 .4.4.4.4.7-3.2.7-.7 3.6-1.4 4-2.9 1.8-2.5 5.4-4.3 6.8-1.4 1.1-2.2 2.5-2.2 4.3-.4.7-1.1.4-1.8 0s-1.4-1.4-2.2-1.1c-.7.7 0 1.1.4 1.4.7 2.2 0 2.9-2.2 2.5s-4 1.1-4 3.6c0 .7 0 1.4-1.1 1.1-1.1-.4-1.8 0-2.5-.4s-2.2-1.1-2.9.7c0 .4-.4.4-.7.4-2.5 1.1-2.5 1.1-2.5 3.6-3.2-2.2-5-2.2-5.4 1.1-.4-.4-.7-.7-1.1-1.1-1.1-1.1-1.8-1.8-2.2.4 0 .7-.4 1.1-1.1 1.1-.7.4-.7-.4-1.1-.7-1.1-1.4-1.1-1.4-2.9-.7-.7.4-1.1-.4-1.8-.7-.7-.4-1.4-1.4-2.2-.7-.7.7-.4 1.8-.4 2.5 0 .4.4 1.1.4 1.4-1.1-.4-1.4-1.1-2.2-1.8-.7-.7-1.4-1.1-2.2-.4-.7.7-1.4 1.8-2.5 0-.4-.7-.7 0-1.1.7-.7 1.8-1.4 1.4-2.2 0-.7-1.4-2.2-2.2-3.6-2.2-1.8-.2-4-1.2-5-3.4-.4-.7-.7-1.1-1.4 0-1.1 2.5-1.8 1.8-2.5-.4 0-.7-.4-1.1-1.1-1.1s-.8.1-1.1 1.5zm25.5-72.9c-10.4 0-20.5 5-26.2 14-4 6.1-5.4 13.7-4.7 20.8.7 9 5.7 17.3 13.3 22.3 9.3 6.5 21.2 7.5 31.3 2.2 1.4-1.1 3.6-.7 4.7.7 4.7 5 4.7 4.7 9.3-.4 3.6-4 3.6-4-.4-7.5-1.4-1.1-1.8-2.9-.7-4.3 2.2-3.6 3.6-7.9 4.3-12.2 2.8-16.6-10.1-36.4-30.9-35.6z"/><path d="m64.8 48.6c0 2.5-.4 4.7-1.1 6.8-.4 1.4-.7 1.8-2.2.7-4-2.9-4-2.9-7.2.4l-1.1 1.4c-2.9 2.9-2.9 2.9-.4 5.7 1.8 1.8-.4 1.8-1.1 1.8-8.3 2.2-16.9-2.2-20.1-10.1-3.2-6.8-2.5-14.7 1.8-20.5 3.6-5 9.7-7.9 15.8-6.8 7.2.7 13.3 6.5 14.7 13.7.9 2.2 1.2 4.7.9 6.9z"/></g></svg>