<?xml version="1.0" encoding="utf-8"?>
<!-- Generator: Adobe Illustrator 21.1.0, SVG Export Plug-In . SVG Version: 6.00 Build 0)  -->
<svg version="1.1" id="Layer_1" xmlns="http://www.w3.org/2000/svg" xmlns:xlink="http://www.w3.org/1999/xlink" x="0px" y="0px"
	 viewBox="0 0 26.6 26.7" style="enable-background:new 0 0 26.6 26.7;" xml:space="preserve">
<style type="text/css">
	.st0{fill:#FFFFFF;}
</style>
<title>Asset 1</title>
<g id="Layer_2">
	<g id="Layer_1-2">
		<path class="st0" d="M6,24.6C5.7,24,5.7,23.4,5,24c0.1-0.7,0-0.9-0.7-0.7c0.2-0.3,0.2-0.3-0.2-0.6c-0.1-0.1-0.2-0.3-0.2-0.5
			c0-0.2-0.1-0.5-0.3-0.6C3.2,21.5,3,21.4,3.2,21c0,0,0-0.1,0-0.1c-0.6,0.5-0.9-0.9-1.6-0.3c0.5-0.6,0-1.1,0-1.6
			c0-0.3-0.5-0.4-0.9-0.1c0.4-0.6-0.2-1.3,0.1-1.9c0,0,0-0.1,0-0.1c-0.5,0-0.3-0.5-0.5-0.6s-0.1-0.3,0.1-0.4
			c0.2-0.3,0.4-0.6,0.5-0.9c0.1-0.2,0.1-0.3-0.1-0.4c-0.6-0.2-0.8-0.9-0.6-1.5c0,0,0,0,0-0.1c0.1-0.1,0.1-0.3,0-0.4
			c-0.5-0.8,0.4-1.2,0.6-1.7c0.1-0.2,0.3-0.4,0.2-0.5c-0.4-0.5,0-1.3-0.8-1.6C0.7,8.1,1,8.7,1.7,8.7C0.8,8.3,1.4,7.5,1,7
			C0.9,6.9,1.6,6.3,1.8,6.4c0.6,0.2,1,0,1-0.6C2.8,5.4,3,5.1,3,4.7s0.2-0.3,0.3-0.2c0.8,0.3,1-0.4,1-0.8c0-0.5,0.3-0.9,0.7-1.1
			c0.2,0,0.2,0.2,0.2,0.3s0.2,0.3,0.4,0.2c0.1-0.1,0.2-0.2,0.1-0.3C5.6,2.4,6.1,2.2,6.2,1.8c0.4,0.8,0.6,0.3,1.1,0.2
			c0.6-0.2,1-0.6,1.3-1.1c0.1,0.1,0.1,0.1,0.1,0.1C8.9,1.2,8.6,1.7,9,1.8c0.4,0.1,0.4-0.4,0.7-0.5c0.6-0.2,0.7-1,1.2-1.3
			c0.3-0.2,0.4-0.1,0.4,0c0.3,0.5,0.9,0.6,1.4,0.4c0.3-0.1,0.7-0.1,1,0c0.3,0.1,0.5,0.2,0.7-0.1c0.1-0.1,0.1-0.1,0.2-0.1
			c0.6,1,1.3,0.2,2,0.1c-0.1,0.4-0.6,0.5-0.5,1c0.6-0.1,1.1-0.4,1.3-0.9c-0.1,0.9,0.2,0.9,0.7,0.7s0.8,0,1,0.3
			c0.1,0.2,0.3,0.3,0.5,0.3c0.4-0.2,0.7-0.3,1,0.2C20.7,2,20.8,1.6,21,1.7C21,2.9,21,2.9,22.2,3.4c0.5,0.2,0.8,0.7,1.2,1
			c0.1,0.1,0.1,0.2,0.2,0.2c0.7,0.3,0.9,0.8,0.5,1.5c-0.4,1,0.6,1.2,1.1,1.6c0.2,0.1,0.3,0.2,0.5,0.2C25.4,8,25,8,25,8.3
			c0,0.6,0.7,0.5,1,0.7c-0.1,0.3-0.3,0.1-0.5,0.1s-0.4,0.2-0.4,0.2c0.3,0.6-0.1,1.5,0.7,1.9c0.2,0.1,0.7,0.4,0.3,0.8c0,0,0,0,0,0.1
			c0,0.4,0.6,0.9,0.5,1c-0.5,0.3-0.3,0.7-0.3,1S26,15,26.4,15.4c0.1,0.1-0.3,0.1-0.4,0.2s-0.3,0-0.3,0.2s0.1,0.2,0.2,0.2
			c0.2,0.3,0.4,0.6,0.5,1c-0.1,0.4-0.1,0.8-0.7,0.7c-0.3,0-0.5,0.1-0.3,0.5c0,0.1,0.1,0.1,0.1,0.2c-0.9,0.2-0.2,1-0.4,1.1
			c-0.8,0.5-0.7,1.5-1.2,1.9c-0.4,0.3-0.6,0.7-0.6,1.2c-0.1,0.2-0.3,0.1-0.5,0s-0.4-0.4-0.6-0.3c-0.2,0.2,0,0.3,0.1,0.4
			c0.2,0.6,0,0.8-0.6,0.7s-1.1,0.3-1.1,1c0,0.2,0,0.4-0.3,0.3s-0.5,0-0.7-0.1s-0.6-0.3-0.8,0.2c0,0.1-0.1,0.1-0.2,0.1
			c-0.7,0.3-0.7,0.3-0.7,1c-0.9-0.6-1.4-0.6-1.5,0.3c-0.1-0.1-0.2-0.2-0.3-0.3c-0.3-0.3-0.5-0.5-0.6,0.1c0,0.2-0.1,0.3-0.3,0.3
			c-0.2,0.1-0.2-0.1-0.3-0.2c-0.3-0.4-0.3-0.4-0.8-0.2c-0.2,0.1-0.3-0.1-0.5-0.2s-0.4-0.4-0.6-0.2s-0.1,0.5-0.1,0.7
			c0,0.1,0.1,0.3,0.1,0.4c-0.3-0.1-0.4-0.3-0.6-0.5S12,25.8,11.8,26s-0.4,0.5-0.7,0c-0.1-0.2-0.2,0-0.3,0.2c-0.2,0.5-0.4,0.4-0.6,0
			c-0.2-0.4-0.6-0.6-1-0.6c-0.6-0.1-1.2-0.4-1.5-1c-0.1-0.2-0.2-0.3-0.4,0c-0.3,0.7-0.5,0.5-0.7-0.1c0-0.2-0.1-0.3-0.3-0.3
			S6.1,24.2,6,24.6z M13.1,4.3c-2.9,0-5.7,1.4-7.3,3.9C4.7,9.9,4.3,12,4.5,14c0.2,2.5,1.6,4.8,3.7,6.2c2.6,1.8,5.9,2.1,8.7,0.6
			c0.4-0.3,1-0.2,1.3,0.2c1.3,1.4,1.3,1.3,2.6-0.1c1-1.1,1-1.1-0.1-2.1c-0.4-0.3-0.5-0.8-0.2-1.2c0,0,0,0,0,0c0.6-1,1-2.2,1.2-3.4
			C22.5,9.6,18.9,4.1,13.1,4.3z"/>
		<path class="st0" d="M18,13.4c0,0.7-0.1,1.3-0.3,1.9c-0.1,0.4-0.2,0.5-0.6,0.2c-1.1-0.8-1.1-0.8-2,0.1L14.8,16
			c-0.8,0.8-0.8,0.8-0.1,1.6c0.5,0.5-0.1,0.5-0.3,0.5c-2.3,0.6-4.7-0.6-5.6-2.8c-0.9-1.9-0.7-4.1,0.5-5.7c1-1.4,2.7-2.2,4.4-1.9
			c2,0.2,3.7,1.8,4.1,3.8C18,12.1,18.1,12.8,18,13.4z"/>
	</g>
</g>
</svg>
