<svg height="176" viewBox="0 0 176 176" width="176" xmlns="http://www.w3.org/2000/svg" xmlns:xlink="http://www.w3.org/1999/xlink"><linearGradient id="a" gradientUnits="userSpaceOnUse" x1="25.77" x2="150.23" y1="25.77" y2="150.23"><stop offset="0" stop-color="#fff" stop-opacity=".1"/><stop offset="1" stop-color="#fff" stop-opacity="0"/></linearGradient><circle cx="88" cy="88" fill="#ff4f00" r="88"/><path d="m0 88a87 87 0 0 0 7.22 33.44 88.49 88.49 0 0 0 47.48 47 88.17 88.17 0 0 0 66.6 0 88.49 88.49 0 0 0 47.48-47 87 87 0 0 0 7.22-33.44 87 87 0 0 1 -6.77 33.62 89 89 0 0 1 -47.61 47.61 86.86 86.86 0 0 1 -67.24 0 89 89 0 0 1 -47.61-47.61 87 87 0 0 1 -6.77-33.62z" opacity=".2"/><path d="m176 88a87 87 0 0 0 -7.22-33.44 88.49 88.49 0 0 0 -47.48-47 88.17 88.17 0 0 0 -66.6 0 88.49 88.49 0 0 0 -47.48 47 87 87 0 0 0 -7.22 33.44 87 87 0 0 1 6.77-33.62 89 89 0 0 1 47.61-47.61 86.86 86.86 0 0 1 67.24 0 89 89 0 0 1 47.61 47.61 87 87 0 0 1 6.77 33.62z" fill="#fff" opacity=".2"/><path d="m130.79 134.28a65.34 65.34 0 0 1 -9 5.56 54 54 0 0 1 -10 3.81 79 79 0 0 1 -11.59 2.22 112.32 112.32 0 0 1 -13.18.8 60 60 0 0 1 -23-4.45 53.12 53.12 0 0 1 -18.26-12.07 56.87 56.87 0 0 1 -12.07-18.57 63.36 63.36 0 0 1 -4.29-23.66 63.33 63.33 0 0 1 4.13-23.66 54.51 54.51 0 0 1 12-18.57 52.25 52.25 0 0 1 18.73-12.07 69 69 0 0 1 23.66-4.29h1.08c12.39 0 25.88 2.86 40.65 8.26v29.21h-9.21a3.35 3.35 0 0 1 -3.62-2.8q-.48-2.14-1.43-12.39c-7.94-2.7-17-4-27.15-4a38.8 38.8 0 0 0 -15.24 2.84 32.32 32.32 0 0 0 -11.75 8.1 37.31 37.31 0 0 0 -7.47 12.7 49.77 49.77 0 0 0 -2.69 16.67 51.06 51.06 0 0 0 2.85 17.78 36.57 36.57 0 0 0 7.78 13 34.42 34.42 0 0 0 11.91 8.1 39.2 39.2 0 0 0 15.08 2.86 59 59 0 0 0 12.55-1.27 46.47 46.47 0 0 0 10.16-3.65v-20.74h-14.29a4.55 4.55 0 0 1 -3.33-1.27 3.48 3.48 0 0 1 -1.12-2.7v-12.11h38.11z" opacity=".87"/><circle cx="88" cy="88" fill="url(#a)" r="88"/></svg>