<svg xmlns="http://www.w3.org/2000/svg" xmlns:xlink="http://www.w3.org/1999/xlink" width="320" height="320" viewBox="0 0 320 320"><defs><clipPath id="a"><path d="M320,160A160,160,0,1,1,160,0,160,160,0,0,1,320,160" fill="none" clip-rule="evenodd"/></clipPath><clipPath id="b"><path d="M180.78,194.55c.94,5.23,5.86,8.82,11.18,8.82h16.75l9.71-1.36c-15.53,22.81-42.51,33.31-72,28.68A68.51,68.51,0,0,1,93.1,188C73.35,136.41,111,87.2,160,87.2c25.54,0,47.94,15,60.77,33,3.7,5.21,10.18,6.72,15.1,3.3a10.72,10.72,0,0,0,3.22-14.24,93.74,93.74,0,0,0-85.58-43.11c-46.73,3.14-84.55,41.42-87.24,88.23a93.8,93.8,0,0,0,164.38,66.76l-2,11.41V242.9c0,5.32,3.58,10.25,8.81,11.19a10.84,10.84,0,0,0,12.85-10.66V181.68h-58.8a10.85,10.85,0,0,0-10.65,12.87Z" fill="none" clip-rule="evenodd"/></clipPath></defs><g clip-path="url(#a)"><rect width="320" height="320" fill="#03c197"/></g><g clip-path="url(#b)"><rect x="56.07" y="55.97" width="204.17" height="208.3" fill="#fff"/></g></svg>