<svg width="192" height="192" viewBox="0 0 192 192" fill="none" xmlns="http://www.w3.org/2000/svg">
<rect width="192" height="192" fill="#15C39A"/>
<rect width="192" height="192" fill="url(#paint0_linear_93_2886)"/>
<path fill-rule="evenodd" clip-rule="evenodd" d="M108.762 118.265C109.35 121.569 112.43 123.837 115.759 123.837H126.243L132.321 122.978C122.601 137.389 105.713 144.023 87.2553 141.098C79.8412 139.942 72.8573 136.842 67.001 132.11C61.1447 127.377 56.621 121.176 53.8815 114.127C41.5197 81.5333 65.0854 50.4434 95.7552 50.4434C111.741 50.4434 125.762 59.9201 133.792 71.2922C136.108 74.5837 140.164 75.5377 143.243 73.377C144.643 72.4118 145.629 70.9476 146.003 69.2786C146.377 67.6096 146.111 65.8597 145.259 64.3805C139.583 55.3969 131.612 48.1251 122.184 43.3317C112.757 38.5383 102.223 36.4008 91.693 37.1445C62.444 39.1282 38.772 63.3128 37.0883 92.8864C36.418 105.213 39.5781 117.442 46.1273 127.868C52.6764 138.293 62.2877 146.394 73.6189 151.04C84.9501 155.685 97.4357 156.642 109.332 153.778C121.228 150.914 131.942 144.371 139.976 135.064L138.724 142.273V148.812C138.724 152.173 140.965 155.287 144.238 155.881C145.219 156.068 146.229 156.034 147.195 155.782C148.161 155.53 149.06 155.066 149.829 154.422C150.597 153.779 151.215 152.973 151.639 152.061C152.063 151.149 152.282 150.154 152.281 149.146V110.134H115.478C114.479 110.135 113.493 110.358 112.59 110.788C111.687 111.217 110.889 111.842 110.252 112.619C109.616 113.395 109.156 114.304 108.908 115.28C108.659 116.256 108.626 117.275 108.812 118.265H108.762Z" fill="white"/>
<defs>
<linearGradient id="paint0_linear_93_2886" x1="13.4506" y1="-4.25701e-05" x2="104.927" y2="210.592" gradientUnits="userSpaceOnUse">
<stop stop-color="white" stop-opacity="0.04"/>
<stop offset="0.405687" stop-color="white" stop-opacity="0.01"/>
<stop offset="0.574372" stop-color="white" stop-opacity="0.01"/>
<stop offset="1" stop-color="white" stop-opacity="0.01"/>
</linearGradient>
</defs>
</svg>
