<svg viewBox="0 0 28.2 28.2" xmlns="http://www.w3.org/2000/svg"><g fill="#fff"><path d="m24.6 19.9c-.2.3-.3.3-.6.2-1.8-.5-3.7-.7-5.6-.6.1.3.3.6.6.8.7.5 1.4.9 2.2 1.2 2.1.8 3.7 2.6 4.2 4.8 0 .1 0 .2.1.3 0 .1.1.2 0 .3s-.2 0-.3-.1l-.3-.3c-.1-.2-.2-.4-.4-.5-.8-1.2-2-2.1-3.4-2.5.1 1.8-.8 3.2-1.8 4.7-.1-.2-.1-.5-.1-.7.2-1 .2-2 .1-3 0-.3-.2-.4-.5-.2-2.1.9-4.4 1.2-6.6 1-.2 0-.4-.1-.6-.1s0-.2-.2-.3c-1.3-.6-2.6-1.4-3.9-1.9-.7-.3-1.4-.5-2.2-.5-.1 0-.2 0-.3-.1-.9-.6-1.6-1.3-2.2-2.2-.1-.1-.1-.3 0-.4.3-.4.5-.9.6-1.4 0-.2.2-.4.4-.4.3-.1.7-.2 1-.3.1 0 .2-.1.2-.2.1-.5.5-.6.8-.7.9-.5 1.9-.6 2.9-.5-.9-1-.7-2-.5-3.1l-.5.5c-.2.2-.8.5-1 .2s-.9-.6-1.1-1.2c-.1-.2 0-.2.2-.2.3 0 .5-.2.5-.4v-.1c0-.4.2-.9-.5-1-.1 0-.2-.2-.2-.3s.2-.1.3-.1.3-.2.4-.3c.2-.3.4-.7.7-1 .2-.3.2-.6.2-.9s0-.1-.1-.1-.3 0-.4-.1c.4-.2.7-.6.8-1 .3-.7.8-1.3 1.4-1.8.6-.4.9-1.1 1-1.8 0-.4.1-.7.2-1.1.1-.9.8-1.7 1.7-1.9.6-.1 1.1-.3 1.6-.5.3-.2.7-.2 1 .1.3.2.4.7.2 1-.1.4-.1.9.1 1.3.1.5.1 1 0 1.5 0 .2-.2.3-.4.3-.6 0-.6.6-1 1 0 .1 0 .1.1.2.3.4.4.8.4 1.3 0 1.2.1 2.3.3 3.5 0 .1 0 .2.1.3.2.7.3.8 1 .6.5-.1.9-.2 1.4-.3.6-.1 1.2.3 1.3.9v.1c.1.2.1.5.1.7-.2 1-.1 2.1.3 3.1.2.5.1 1-.2 1.4-.3.6-.3 1.2 0 1.8.1.2.2.2.4.2 1.9 0 3.9.2 5.8.6 0 .2.1.2.3.2zm-14 1.7h.2c1.9-.1 3.8-.4 5.7-.8.1 0 .2 0 .2-.1-.1-.5-.6-.9-1.1-1l-1.4.2c-1.5.3-3 .7-4.5 1.2-.1 0-.2.1-.2.2s.1.1.2.1c.3.2.6.2.9.2zm5-3.1c-.3-1.2-.4-2.5-.1-3.8 0-.2-.1-.3-.2-.4s-.3-.1-.4 0c-1 .7-1.8 1.6-2.9 2.4.5 0 1 .2 1.3.6.1.1.2.1.3.1.6 0 1.1.3 1.5.7.1.2.3.3.5.4zm-3.2 5c.6.4 1.3.5 2 .5 1.2-.3 2.4-.7 3.6-1.3.1 0 .1 0 .1-.1-.1-.1-.1-.1-.2 0-.3.1-.5.2-.8.3-1.3.4-2.6.6-4 .6-.2-.1-.5-.1-.7 0zm-1-11.6.1 1c0 .2.1.2.2.1l1.1-.8c.1-.1.1-.1.1-.2-.1-.4-.2-.9-.4-1.3 0-.1-.1-.2-.2-.1-.5.2-.6.9-.9 1.3zm3.5 12.2.1.1h.4c1-.1 2-.3 3-.6.2-.1.5-.1.3-.4s-.3-.4-.6-.2c-.9.5-1.8.8-2.8 1-.2 0-.3 0-.4.1z"/><path d="m23.4 21.2c-.6.6-2.6.3-3.7-.5 1.2.1 2.5.3 3.7.5z"/></g></svg>