<svg width="192" height="192" viewBox="0 0 192 192" fill="none" xmlns="http://www.w3.org/2000/svg">
<rect width="192" height="192" fill="#960808"/>
<rect width="192" height="192" fill="url(#paint0_linear_93_2912)"/>
<path d="M19.723 108.112C18.5869 107.536 17.6574 106.593 16.986 105.493C16.3147 104.287 16.0049 102.978 16.0049 101.615V92.3935C15.9532 91.0312 16.3147 89.7213 16.986 88.5162C17.6057 87.4159 18.5869 86.4727 19.723 85.8964C20.9624 85.2676 22.3567 84.9532 23.751 85.0056C25.1453 85.0056 26.5396 85.2676 27.779 85.8964C28.9151 86.4727 29.8447 87.3111 30.516 88.4114C31.1873 89.5117 31.4972 90.7692 31.4972 92.0791V92.3935C31.5488 92.6031 31.3939 92.8127 31.1873 92.8127C31.1357 92.8127 31.1357 92.8127 31.0841 92.8127H29.6381C29.3799 92.8127 29.225 92.7079 29.225 92.4459V92.0791C29.2766 90.7168 28.7602 89.3545 27.7274 88.4114C26.5913 87.5207 25.197 86.9967 23.751 87.1015C22.3051 87.0491 20.9108 87.5731 19.8263 88.5162C18.7935 89.5117 18.2771 90.9264 18.3287 92.3411V101.72C18.2771 103.135 18.8451 104.549 19.8779 105.493C20.9624 106.488 22.4084 107.012 23.8543 106.96C25.2486 107.012 26.6429 106.541 27.7274 105.597C28.7086 104.654 29.225 103.344 29.1733 102.034V98.9955C29.1733 98.8907 29.1217 98.8383 29.0701 98.8383H29.0184H24.2674C24.0609 98.8907 23.8543 98.7335 23.8543 98.5239C23.8543 98.4715 23.8543 98.4715 23.8543 98.4191V97.214C23.8027 97.0044 23.9576 96.7948 24.1642 96.7948H24.2674H31.0841C31.2906 96.7424 31.4972 96.8996 31.4972 97.1092V97.214V101.458C31.4972 103.868 30.7742 105.702 29.4315 107.064C28.0889 108.427 26.1782 109.056 23.751 109.056C22.3567 109.056 20.9624 108.741 19.723 108.112Z" fill="white"/>
<path d="M40.2862 108.07C39.1501 107.494 38.1689 106.551 37.4975 105.451C36.8262 104.246 36.4647 102.883 36.5164 101.521V85.6972C36.4647 85.4876 36.6196 85.278 36.8262 85.278H36.9295H38.4271C38.6336 85.2256 38.8402 85.3828 38.8402 85.5924V85.6972V101.573C38.7886 103.04 39.3566 104.455 40.3894 105.451C41.4739 106.499 42.9199 107.023 44.3658 106.918C45.8118 106.97 47.2577 106.446 48.3422 105.398C49.375 104.403 49.8914 102.988 49.8398 101.521V85.6972C49.7881 85.4876 49.9431 85.278 50.1496 85.278H50.2529H51.7505C51.9571 85.2256 52.1636 85.3828 52.1636 85.5924V85.6972V101.469C52.2153 102.831 51.8538 104.193 51.1824 105.398C50.5111 106.499 49.5816 107.442 48.4455 108.018C47.1544 108.647 45.7601 109.014 44.3142 108.961C42.9715 109.014 41.5772 108.699 40.2862 108.07Z" fill="white"/>
<path d="M58.2063 108.333V85.6972C58.1547 85.4876 58.3096 85.278 58.5161 85.278H58.6194H60.117C60.3236 85.2256 60.5301 85.3828 60.5301 85.5924V85.6972V108.28C60.5818 108.49 60.4269 108.699 60.2203 108.699C60.1687 108.699 60.1687 108.699 60.117 108.699H58.6194C58.4129 108.752 58.2063 108.595 58.2063 108.385V108.333Z" fill="white"/>
<path d="M81.0345 85.6961V86.9536C81.0861 87.1632 80.9312 87.3728 80.7246 87.3728C80.673 87.3728 80.673 87.3728 80.6213 87.3728H74.2695C74.1662 87.3728 74.1146 87.4252 74.1146 87.4776V87.53V108.279C74.1662 108.489 74.0113 108.698 73.8047 108.698C73.7531 108.698 73.7531 108.698 73.7014 108.698H72.2039C71.9973 108.751 71.7907 108.593 71.7907 108.384C71.7907 108.331 71.7907 108.331 71.7907 108.279V87.5824C71.7907 87.4776 71.7391 87.4252 71.6358 87.4252C71.6358 87.4252 71.6358 87.4252 71.5842 87.4252H65.4905C65.284 87.4252 65.0774 87.268 65.0774 87.0584C65.0774 87.006 65.0774 87.006 65.0774 86.9536V85.6961C65.0258 85.4865 65.1807 85.2769 65.3872 85.2769H65.4905H80.5697C80.7763 85.2769 80.9828 85.4341 80.9828 85.6437C81.0345 85.6437 81.0345 85.6961 81.0345 85.6961Z" fill="white"/>
<path d="M97.0406 108.384L95.698 104.297C95.6463 104.192 95.5947 104.14 95.543 104.14H85.6796C85.628 104.14 85.5763 104.192 85.5247 104.297L84.2337 108.384C84.182 108.593 83.9755 108.751 83.7689 108.751H82.168C82.0648 108.751 81.9098 108.698 81.8582 108.593C81.8065 108.489 81.7549 108.331 81.8065 108.227L89.0879 85.6437C89.1396 85.4341 89.3461 85.2769 89.5527 85.2769H91.67C91.8765 85.2769 92.0831 85.4341 92.1347 85.6437L99.4161 108.227C99.4677 108.279 99.4678 108.331 99.4678 108.384C99.4678 108.489 99.4161 108.541 99.3645 108.646C99.3128 108.698 99.2095 108.751 99.1063 108.751H97.5054C97.2472 108.751 97.0406 108.593 97.0406 108.384ZM86.4026 102.201H94.8717C95.0266 102.201 95.0266 102.149 95.0266 101.991L90.7404 88.2635C90.7404 88.1587 90.6888 88.1063 90.6371 88.1063C90.5855 88.1063 90.5339 88.1587 90.5339 88.2635L86.2477 101.991C86.2477 102.149 86.2477 102.201 86.4026 102.201Z" fill="white"/>
<path d="M116.815 108.436L112.012 98.1138C111.96 98.009 111.909 97.9566 111.805 97.9566H106.28C106.177 97.9566 106.125 98.009 106.125 98.1138V98.1662V108.331C106.177 108.541 106.022 108.75 105.815 108.75C105.763 108.75 105.763 108.75 105.712 108.75H104.214C104.008 108.803 103.801 108.645 103.801 108.436C103.801 108.383 103.801 108.383 103.801 108.331V85.6958C103.749 85.4862 103.904 85.2766 104.111 85.2766H104.214H112.683C114.387 85.2242 116.04 85.853 117.279 87.0581C118.467 88.3156 119.087 89.9923 119.035 91.7214C119.087 93.1361 118.622 94.5508 117.796 95.7035C116.97 96.8038 115.73 97.5374 114.387 97.8518C114.284 97.8518 114.233 97.9566 114.284 98.0614L119.19 108.331C119.242 108.383 119.242 108.488 119.242 108.541C119.242 108.75 119.087 108.855 118.829 108.855H117.331C117.124 108.75 116.918 108.645 116.815 108.436ZM106.125 87.4772V95.8607C106.125 95.9655 106.177 96.0179 106.28 96.0179H106.331H112.425C113.561 96.0703 114.697 95.6511 115.524 94.8128C116.35 93.9744 116.763 92.8217 116.711 91.669C116.763 90.5162 116.35 89.3635 115.524 88.4728C114.697 87.6344 113.561 87.2153 112.425 87.2677H106.331C106.228 87.2677 106.177 87.3201 106.177 87.3725C106.125 87.4772 106.125 87.4772 106.125 87.4772Z" fill="white"/>
<path d="M129.517 108.175V85.8541C129.466 85.5922 129.724 85.3302 129.982 85.2778H130.085H138.193C139.691 85.2254 141.188 85.5398 142.583 86.1685C143.77 86.6925 144.751 87.5832 145.474 88.6836C146.146 89.7839 146.507 91.0938 146.507 92.4037V101.625C146.507 102.935 146.146 104.245 145.474 105.346C144.751 106.446 143.77 107.284 142.583 107.861C141.24 108.489 139.742 108.804 138.245 108.751H130.137C129.879 108.804 129.621 108.542 129.569 108.28C129.517 108.227 129.517 108.227 129.517 108.175ZM134.372 104.717H138.348C139.278 104.769 140.155 104.35 140.827 103.669C141.498 102.883 141.808 101.887 141.808 100.892V93.1373C141.86 92.1417 141.498 91.1462 140.878 90.3602C140.207 89.6791 139.329 89.2599 138.348 89.3123H134.423C134.32 89.3123 134.268 89.3647 134.217 89.4695V89.5219V104.507C134.165 104.612 134.217 104.717 134.372 104.717Z" fill="white"/>
<path d="M149.921 108.174V85.8529C149.869 85.5909 150.127 85.3289 150.385 85.2765H150.489H154.052C154.31 85.2241 154.568 85.4861 154.62 85.7481V85.8529V108.174C154.672 108.436 154.413 108.698 154.155 108.75C154.104 108.75 154.104 108.75 154.052 108.75H150.489C150.231 108.803 149.972 108.541 149.921 108.279C149.921 108.226 149.921 108.226 149.921 108.174Z" fill="white"/>
<path d="M164.484 108.174V99.8431L164.432 99.5811L157.771 85.9581C157.719 85.8533 157.667 85.7485 157.667 85.6437C157.667 85.5389 157.719 85.4341 157.822 85.3817C157.926 85.3293 158.081 85.2769 158.184 85.2769H162.005C162.315 85.2769 162.573 85.4341 162.677 85.6961L166.705 94.3939C166.756 94.4463 166.808 94.4987 166.86 94.4987C166.911 94.4987 166.963 94.4463 166.963 94.3939L170.939 85.6961C171.042 85.4341 171.301 85.2769 171.611 85.2769H175.484C175.793 85.2769 176 85.4341 176 85.6961C176 85.8009 176 85.9057 175.948 85.9581L169.183 99.5811L169.132 99.8431V108.122C169.183 108.384 168.925 108.646 168.667 108.698C168.615 108.698 168.615 108.698 168.564 108.698H165.052C164.794 108.751 164.536 108.489 164.484 108.227V108.174Z" fill="white"/>
<defs>
<linearGradient id="paint0_linear_93_2912" x1="13.4506" y1="-4.25701e-05" x2="104.927" y2="210.592" gradientUnits="userSpaceOnUse">
<stop stop-color="white" stop-opacity="0.04"/>
<stop offset="0.405687" stop-color="white" stop-opacity="0.01"/>
<stop offset="0.574372" stop-color="white" stop-opacity="0.01"/>
<stop offset="1" stop-color="white" stop-opacity="0.01"/>
</linearGradient>
</defs>
</svg>
