<svg width="192" height="192" viewBox="0 0 192 192" fill="none" xmlns="http://www.w3.org/2000/svg">
<rect width="192" height="192" fill="#00999E"/>
<rect width="192" height="192" fill="url(#paint0_linear_93_2823)"/>
<path d="M96 160C60.6667 160 32 131.333 32 96C32 60.6667 60.6667 32 96 32C131.333 32 160 60.6667 160 96C160 131.333 131.333 160 96 160ZM96 40.4C65.3333 40.4 40.4 65.3333 40.4 96C40.4 126.667 65.3333 151.6 96 151.6C126.667 151.6 151.6 126.667 151.6 96C151.6 65.3333 126.667 40.4 96 40.4Z" fill="#212121"/>
<path d="M80.4912 147.6L109.177 43.8951L111.49 44.535L82.8043 148.24L80.4912 147.6Z" fill="#212121"/>
<path d="M43.7583 82.7906L44.3984 80.4775L148.104 109.174L147.464 111.488L43.7583 82.7906Z" fill="#212121"/>
<path d="M43.5581 108.361L147.715 81.3536L148.318 83.6768L44.1605 110.684L43.5581 108.361Z" fill="#212121"/>
<path d="M56.7524 132.92L133.46 57.4711L135.143 59.1821L58.4353 134.631L56.7524 132.92Z" fill="#212121"/>
<path d="M81.3159 44.1583L83.6391 43.5559L110.647 147.713L108.324 148.315L81.3159 44.1583Z" fill="#212121"/>
<path d="M57.3672 58.4451L59.0779 56.7618L134.548 133.459L132.838 135.142L57.3672 58.4451Z" fill="#212121"/>
<path d="M96 154C64 154 38 128 38 96C38 64 64 38 96 38C128 38 154 64 154 96C154 128 128 154 96 154ZM96 46.4C68.6667 46.4 46.4 68.6667 46.4 96C46.4 123.333 68.6667 145.6 96 145.6C123.333 145.6 145.6 123.333 145.6 96C145.6 68.6667 123.333 46.4 96 46.4Z" fill="white"/>
<path d="M95.9983 111.065C87.7316 111.065 81.0649 104.265 81.0649 95.9984C81.0649 94.1317 81.4649 92.3984 81.9983 90.6651C84.9316 82.9318 93.5983 79.0651 101.332 81.9984C109.065 84.9318 112.932 93.5984 109.998 101.332C107.732 107.198 102.265 110.932 95.9983 111.065Z" fill="white"/>
<path d="M95.9935 83.4656C97.5935 83.4656 99.0602 83.7323 100.527 84.2656C107.06 86.7989 110.26 93.999 107.86 100.532C105.994 105.466 101.327 108.666 95.9935 108.666C94.3935 108.666 92.9268 108.399 91.4601 107.866C84.9268 105.332 81.7268 98.1323 84.1268 91.599C86.1268 86.6656 90.7935 83.4656 95.9935 83.4656ZM95.9935 78.6656C88.7935 78.6656 82.3934 83.0656 79.8601 89.8656C76.3934 98.799 80.9268 108.932 89.8601 112.266C91.8601 113.066 93.8601 113.466 95.9935 113.466C103.194 113.466 109.594 109.066 112.26 102.266C115.727 93.3323 111.194 83.3323 102.26 79.8656C100.26 79.0656 98.1268 78.6656 95.9935 78.6656Z" fill="#212121"/>
<defs>
<linearGradient id="paint0_linear_93_2823" x1="13.4506" y1="-4.25701e-05" x2="104.927" y2="210.592" gradientUnits="userSpaceOnUse">
<stop stop-color="white" stop-opacity="0.04"/>
<stop offset="0.405687" stop-color="white" stop-opacity="0.01"/>
<stop offset="0.574372" stop-color="white" stop-opacity="0.01"/>
<stop offset="1" stop-color="white" stop-opacity="0.01"/>
</linearGradient>
</defs>
</svg>
