<svg xmlns="http://www.w3.org/2000/svg" viewBox="0 0 30.4 15"><style>path{fill:#FFF;}</style><path d="M30.3 14.1L24.1.9c-.3-.5-.8-.9-1.4-.9H.7C.5 0 .4 0 .3.1 0 .3-.1.6.1.9l6.2 13.2c.3.5.8.9 1.4.9h22c.1 0 .3 0 .4-.1.3-.2.4-.5.2-.8zm-11.2-1.6c0 .2-.1.3-.1.4 0 .1-.1.1-.2.1s-.2 0-.3-.1l-3.2-1.7-3.2 1.7c-.1.1-.2.1-.3.1-.1 0-.1 0-.2-.1s-.1-.2-.1-.3v-.1l.6-3.5-2.6-2.5c-.1 0-.2-.2-.2-.3 0-.1.1-.2.4-.3l3.4-.5 1.6-3.2c.1-.2.3-.3.4-.3.2 0 .3.1.4.3l1.6 3.2 3.5.5c.3 0 .4.1.4.3s0 .3.1.3L18.5 9l.6 3.5z"/></svg>