<?xml version="1.0" encoding="utf-8"?>
<!-- Generator: Adobe Illustrator 21.1.0, SVG Export Plug-In . SVG Version: 6.00 Build 0)  -->
<svg version="1.1" id="Layer_1" xmlns="http://www.w3.org/2000/svg" xmlns:xlink="http://www.w3.org/1999/xlink" x="0px" y="0px"
	 viewBox="0 0 30.4 15" style="enable-background:new 0 0 30.4 15;" xml:space="preserve">
<style type="text/css">
	.st0{fill:#FFFFFF;}
</style>
<title>Artboard 1</title>
<path class="st0" d="M30.3,14.1L24.1,0.9C23.8,0.4,23.3,0,22.7,0h-22C0.5,0,0.4,0,0.3,0.1C0,0.3-0.1,0.6,0.1,0.9l6.2,13.2
	C6.6,14.6,7.1,15,7.7,15h22c0.1,0,0.3,0,0.4-0.1C30.4,14.7,30.5,14.4,30.3,14.1z M19.1,12.5L19.1,12.5c0,0.2-0.1,0.3-0.1,0.4
	c0,0.1-0.1,0.1-0.2,0.1s-0.2,0-0.3-0.1l-3.2-1.7l-3.2,1.7C12,13,11.9,13,11.8,13c-0.1,0-0.1,0-0.2-0.1c-0.1-0.1-0.1-0.2-0.1-0.3
	v-0.1L12.1,9L9.5,6.5c-0.1,0-0.2-0.2-0.2-0.3c0-0.1,0.1-0.2,0.4-0.3l3.4-0.5l1.6-3.2C14.8,2,15,1.9,15.1,1.9c0.2,0,0.3,0.1,0.4,0.3
	l1.6,3.2l3.5,0.5C20.9,5.9,21,6,21,6.2s0,0.3,0.1,0.3L18.5,9L19.1,12.5z"/>
</svg>
