<svg fill="none" height="156" viewBox="0 0 127 156" width="127" xmlns="http://www.w3.org/2000/svg" xmlns:xlink="http://www.w3.org/1999/xlink"><filter id="a" color-interpolation-filters="sRGB" filterUnits="userSpaceOnUse" height="125.849" width="125.849" x=".756684" y="29.7032"><feFlood flood-opacity="0" result="BackgroundImageFix"/><feColorMatrix in="SourceAlpha" type="matrix" values="0 0 0 0 0 0 0 0 0 0 0 0 0 0 0 0 0 0 127 0"/><feOffset/><feGaussianBlur stdDeviation="6.13899"/><feColorMatrix type="matrix" values="0 0 0 0 0.921569 0 0 0 0 0.52549 0 0 0 0 0.411765 0 0 0 1 0"/><feBlend in2="BackgroundImageFix" mode="normal" result="effect1_dropShadow"/><feBlend in="SourceGraphic" in2="effect1_dropShadow" mode="normal" result="shape"/><feColorMatrix in="SourceAlpha" result="hardAlpha" type="matrix" values="0 0 0 0 0 0 0 0 0 0 0 0 0 0 0 0 0 0 127 0"/><feOffset/><feGaussianBlur stdDeviation="5.37162"/><feComposite in2="hardAlpha" k2="-1" k3="1" operator="arithmetic"/><feColorMatrix type="matrix" values="0 0 0 0 0.921569 0 0 0 0 0.521569 0 0 0 0 0.407843 0 0 0 1 0"/><feBlend in2="shape" mode="normal" result="effect2_innerShadow"/></filter><filter id="b" color-interpolation-filters="sRGB" filterUnits="userSpaceOnUse" height="87.4806" width="89.7828" x="18.4063" y="48.8875"><feFlood flood-opacity="0" result="BackgroundImageFix"/><feBlend in="SourceGraphic" in2="BackgroundImageFix" mode="normal" result="shape"/><feColorMatrix in="SourceAlpha" result="hardAlpha" type="matrix" values="0 0 0 0 0 0 0 0 0 0 0 0 0 0 0 0 0 0 127 0"/><feOffset/><feGaussianBlur stdDeviation="11"/><feComposite in2="hardAlpha" k2="-1" k3="1" operator="arithmetic"/><feColorMatrix type="matrix" values="0 0 0 0 0.184314 0 0 0 0 0.501961 0 0 0 0 0.929412 0 0 0 0.44 0"/><feBlend in2="shape" mode="normal" result="effect1_innerShadow"/></filter><filter id="c" color-interpolation-filters="sRGB" filterUnits="userSpaceOnUse" height="16.5174" width="16.5174" x="71.3006" y="45.7261"><feFlood flood-opacity="0" result="BackgroundImageFix"/><feColorMatrix in="SourceAlpha" type="matrix" values="0 0 0 0 0 0 0 0 0 0 0 0 0 0 0 0 0 0 127 0"/><feOffset dy="2.46746"/><feGaussianBlur stdDeviation="1.23373"/><feColorMatrix type="matrix" values="0 0 0 0 0 0 0 0 0 0 0 0 0 0 0 0 0 0 0.25 0"/><feBlend in2="BackgroundImageFix" mode="normal" result="effect1_dropShadow"/><feBlend in="SourceGraphic" in2="effect1_dropShadow" mode="normal" result="shape"/></filter><filter id="d" color-interpolation-filters="sRGB" filterUnits="userSpaceOnUse" height="16.5174" width="16.5174" x="71.3006" y="45.7261"><feFlood flood-opacity="0" result="BackgroundImageFix"/><feColorMatrix in="SourceAlpha" type="matrix" values="0 0 0 0 0 0 0 0 0 0 0 0 0 0 0 0 0 0 127 0"/><feOffset dy="2.46746"/><feGaussianBlur stdDeviation="1.23373"/><feColorMatrix type="matrix" values="0 0 0 0 0 0 0 0 0 0 0 0 0 0 0 0 0 0 0.25 0"/><feBlend in2="BackgroundImageFix" mode="normal" result="effect1_dropShadow"/><feBlend in="SourceGraphic" in2="effect1_dropShadow" mode="normal" result="shape"/></filter><filter id="e" color-interpolation-filters="sRGB" filterUnits="userSpaceOnUse" height="14.236" width="14.236" x="66.3996" y="38.6813"><feFlood flood-opacity="0" result="BackgroundImageFix"/><feColorMatrix in="SourceAlpha" type="matrix" values="0 0 0 0 0 0 0 0 0 0 0 0 0 0 0 0 0 0 127 0"/><feOffset dy="2.46746"/><feGaussianBlur stdDeviation="1.23373"/><feColorMatrix type="matrix" values="0 0 0 0 0 0 0 0 0 0 0 0 0 0 0 0 0 0 0.25 0"/><feBlend in2="BackgroundImageFix" mode="normal" result="effect1_dropShadow"/><feBlend in="SourceGraphic" in2="effect1_dropShadow" mode="normal" result="shape"/></filter><filter id="f" color-interpolation-filters="sRGB" filterUnits="userSpaceOnUse" height="14.236" width="14.236" x="66.3996" y="38.6813"><feFlood flood-opacity="0" result="BackgroundImageFix"/><feColorMatrix in="SourceAlpha" type="matrix" values="0 0 0 0 0 0 0 0 0 0 0 0 0 0 0 0 0 0 127 0"/><feOffset dy="2.46746"/><feGaussianBlur stdDeviation="1.23373"/><feColorMatrix type="matrix" values="0 0 0 0 0 0 0 0 0 0 0 0 0 0 0 0 0 0 0.25 0"/><feBlend in2="BackgroundImageFix" mode="normal" result="effect1_dropShadow"/><feBlend in="SourceGraphic" in2="effect1_dropShadow" mode="normal" result="shape"/></filter><filter id="g" color-interpolation-filters="sRGB" filterUnits="userSpaceOnUse" height="16.5174" width="16.5174" x="50.8911" y="10.7693"><feFlood flood-opacity="0" result="BackgroundImageFix"/><feColorMatrix in="SourceAlpha" type="matrix" values="0 0 0 0 0 0 0 0 0 0 0 0 0 0 0 0 0 0 127 0"/><feOffset dy="2.46746"/><feGaussianBlur stdDeviation="1.23373"/><feColorMatrix type="matrix" values="0 0 0 0 0 0 0 0 0 0 0 0 0 0 0 0 0 0 0.25 0"/><feBlend in2="BackgroundImageFix" mode="normal" result="effect1_dropShadow"/><feBlend in="SourceGraphic" in2="effect1_dropShadow" mode="normal" result="shape"/></filter><filter id="h" color-interpolation-filters="sRGB" filterUnits="userSpaceOnUse" height="16.5174" width="16.5174" x="50.8911" y="10.7693"><feFlood flood-opacity="0" result="BackgroundImageFix"/><feColorMatrix in="SourceAlpha" type="matrix" values="0 0 0 0 0 0 0 0 0 0 0 0 0 0 0 0 0 0 127 0"/><feOffset dy="2.46746"/><feGaussianBlur stdDeviation="1.23373"/><feColorMatrix type="matrix" values="0 0 0 0 0 0 0 0 0 0 0 0 0 0 0 0 0 0 0.25 0"/><feBlend in2="BackgroundImageFix" mode="normal" result="effect1_dropShadow"/><feBlend in="SourceGraphic" in2="effect1_dropShadow" mode="normal" result="shape"/></filter><filter id="i" color-interpolation-filters="sRGB" filterUnits="userSpaceOnUse" height="16.5174" width="16.5174" x="59.8187" y="21.1012"><feFlood flood-opacity="0" result="BackgroundImageFix"/><feColorMatrix in="SourceAlpha" type="matrix" values="0 0 0 0 0 0 0 0 0 0 0 0 0 0 0 0 0 0 127 0"/><feOffset dy="2.46746"/><feGaussianBlur stdDeviation="1.23373"/><feColorMatrix type="matrix" values="0 0 0 0 0 0 0 0 0 0 0 0 0 0 0 0 0 0 0.25 0"/><feBlend in2="BackgroundImageFix" mode="normal" result="effect1_dropShadow"/><feBlend in="SourceGraphic" in2="effect1_dropShadow" mode="normal" result="shape"/></filter><filter id="j" color-interpolation-filters="sRGB" filterUnits="userSpaceOnUse" height="16.5174" width="16.5174" x="59.8187" y="21.1012"><feFlood flood-opacity="0" result="BackgroundImageFix"/><feColorMatrix in="SourceAlpha" type="matrix" values="0 0 0 0 0 0 0 0 0 0 0 0 0 0 0 0 0 0 127 0"/><feOffset dy="2.46746"/><feGaussianBlur stdDeviation="1.23373"/><feColorMatrix type="matrix" values="0 0 0 0 0 0 0 0 0 0 0 0 0 0 0 0 0 0 0.25 0"/><feBlend in2="BackgroundImageFix" mode="normal" result="effect1_dropShadow"/><feBlend in="SourceGraphic" in2="effect1_dropShadow" mode="normal" result="shape"/></filter><filter id="k" color-interpolation-filters="sRGB" filterUnits="userSpaceOnUse" height="14.5596" width="14.5596" x="60.1628" y="49.7064"><feFlood flood-opacity="0" result="BackgroundImageFix"/><feColorMatrix in="SourceAlpha" type="matrix" values="0 0 0 0 0 0 0 0 0 0 0 0 0 0 0 0 0 0 127 0"/><feOffset dy="2.46746"/><feGaussianBlur stdDeviation="1.23373"/><feColorMatrix type="matrix" values="0 0 0 0 0 0 0 0 0 0 0 0 0 0 0 0 0 0 0.25 0"/><feBlend in2="BackgroundImageFix" mode="normal" result="effect1_dropShadow"/><feBlend in="SourceGraphic" in2="effect1_dropShadow" mode="normal" result="shape"/></filter><filter id="l" color-interpolation-filters="sRGB" filterUnits="userSpaceOnUse" height="14.5596" width="14.5596" x="60.1628" y="49.7064"><feFlood flood-opacity="0" result="BackgroundImageFix"/><feColorMatrix in="SourceAlpha" type="matrix" values="0 0 0 0 0 0 0 0 0 0 0 0 0 0 0 0 0 0 127 0"/><feOffset dy="2.46746"/><feGaussianBlur stdDeviation="1.23373"/><feColorMatrix type="matrix" values="0 0 0 0 0 0 0 0 0 0 0 0 0 0 0 0 0 0 0.25 0"/><feBlend in2="BackgroundImageFix" mode="normal" result="effect1_dropShadow"/><feBlend in="SourceGraphic" in2="effect1_dropShadow" mode="normal" result="shape"/></filter><filter id="m" color-interpolation-filters="sRGB" filterUnits="userSpaceOnUse" height="12.6879" width="12.6879" x="54.501" y="41.5208"><feFlood flood-opacity="0" result="BackgroundImageFix"/><feColorMatrix in="SourceAlpha" type="matrix" values="0 0 0 0 0 0 0 0 0 0 0 0 0 0 0 0 0 0 127 0"/><feOffset dy="2.46746"/><feGaussianBlur stdDeviation="1.23373"/><feColorMatrix type="matrix" values="0 0 0 0 0 0 0 0 0 0 0 0 0 0 0 0 0 0 0.25 0"/><feBlend in2="BackgroundImageFix" mode="normal" result="effect1_dropShadow"/><feBlend in="SourceGraphic" in2="effect1_dropShadow" mode="normal" result="shape"/></filter><filter id="n" color-interpolation-filters="sRGB" filterUnits="userSpaceOnUse" height="12.6879" width="12.6879" x="54.501" y="41.5208"><feFlood flood-opacity="0" result="BackgroundImageFix"/><feColorMatrix in="SourceAlpha" type="matrix" values="0 0 0 0 0 0 0 0 0 0 0 0 0 0 0 0 0 0 127 0"/><feOffset dy="2.46746"/><feGaussianBlur stdDeviation="1.23373"/><feColorMatrix type="matrix" values="0 0 0 0 0 0 0 0 0 0 0 0 0 0 0 0 0 0 0.25 0"/><feBlend in2="BackgroundImageFix" mode="normal" result="effect1_dropShadow"/><feBlend in="SourceGraphic" in2="effect1_dropShadow" mode="normal" result="shape"/></filter><filter id="o" color-interpolation-filters="sRGB" filterUnits="userSpaceOnUse" height="12.6879" width="12.6879" x="49.262" y="22.3296"><feFlood flood-opacity="0" result="BackgroundImageFix"/><feColorMatrix in="SourceAlpha" type="matrix" values="0 0 0 0 0 0 0 0 0 0 0 0 0 0 0 0 0 0 127 0"/><feOffset dy="2.46746"/><feGaussianBlur stdDeviation="1.23373"/><feColorMatrix type="matrix" values="0 0 0 0 0 0 0 0 0 0 0 0 0 0 0 0 0 0 0.25 0"/><feBlend in2="BackgroundImageFix" mode="normal" result="effect1_dropShadow"/><feBlend in="SourceGraphic" in2="effect1_dropShadow" mode="normal" result="shape"/></filter><filter id="p" color-interpolation-filters="sRGB" filterUnits="userSpaceOnUse" height="12.6879" width="12.6879" x="49.262" y="22.3296"><feFlood flood-opacity="0" result="BackgroundImageFix"/><feColorMatrix in="SourceAlpha" type="matrix" values="0 0 0 0 0 0 0 0 0 0 0 0 0 0 0 0 0 0 127 0"/><feOffset dy="2.46746"/><feGaussianBlur stdDeviation="1.23373"/><feColorMatrix type="matrix" values="0 0 0 0 0 0 0 0 0 0 0 0 0 0 0 0 0 0 0.25 0"/><feBlend in2="BackgroundImageFix" mode="normal" result="effect1_dropShadow"/><feBlend in="SourceGraphic" in2="effect1_dropShadow" mode="normal" result="shape"/></filter><filter id="q" color-interpolation-filters="sRGB" filterUnits="userSpaceOnUse" height="14.5596" width="14.5596" x="53.5474" y="30.4149"><feFlood flood-opacity="0" result="BackgroundImageFix"/><feColorMatrix in="SourceAlpha" type="matrix" values="0 0 0 0 0 0 0 0 0 0 0 0 0 0 0 0 0 0 127 0"/><feOffset dy="2.46746"/><feGaussianBlur stdDeviation="1.23373"/><feColorMatrix type="matrix" values="0 0 0 0 0 0 0 0 0 0 0 0 0 0 0 0 0 0 0.25 0"/><feBlend in2="BackgroundImageFix" mode="normal" result="effect1_dropShadow"/><feBlend in="SourceGraphic" in2="effect1_dropShadow" mode="normal" result="shape"/></filter><filter id="r" color-interpolation-filters="sRGB" filterUnits="userSpaceOnUse" height="14.5596" width="14.5596" x="53.5474" y="30.4149"><feFlood flood-opacity="0" result="BackgroundImageFix"/><feColorMatrix in="SourceAlpha" type="matrix" values="0 0 0 0 0 0 0 0 0 0 0 0 0 0 0 0 0 0 127 0"/><feOffset dy="2.46746"/><feGaussianBlur stdDeviation="1.23373"/><feColorMatrix type="matrix" values="0 0 0 0 0 0 0 0 0 0 0 0 0 0 0 0 0 0 0.25 0"/><feBlend in2="BackgroundImageFix" mode="normal" result="effect1_dropShadow"/><feBlend in="SourceGraphic" in2="effect1_dropShadow" mode="normal" result="shape"/></filter><filter id="s" color-interpolation-filters="sRGB" filterUnits="userSpaceOnUse" height="14.6168" width="14.6168" x="48.1948" y="51.1178"><feFlood flood-opacity="0" result="BackgroundImageFix"/><feColorMatrix in="SourceAlpha" type="matrix" values="0 0 0 0 0 0 0 0 0 0 0 0 0 0 0 0 0 0 127 0"/><feOffset dy="2.46747"/><feGaussianBlur stdDeviation="1.23373"/><feColorMatrix type="matrix" values="0 0 0 0 0 0 0 0 0 0 0 0 0 0 0 0 0 0 0.25 0"/><feBlend in2="BackgroundImageFix" mode="normal" result="effect1_dropShadow"/><feBlend in="SourceGraphic" in2="effect1_dropShadow" mode="normal" result="shape"/></filter><filter id="t" color-interpolation-filters="sRGB" filterUnits="userSpaceOnUse" height="14.6168" width="14.6168" x="48.1948" y="51.1178"><feFlood flood-opacity="0" result="BackgroundImageFix"/><feColorMatrix in="SourceAlpha" type="matrix" values="0 0 0 0 0 0 0 0 0 0 0 0 0 0 0 0 0 0 127 0"/><feOffset dy="2.46747"/><feGaussianBlur stdDeviation="1.23373"/><feColorMatrix type="matrix" values="0 0 0 0 0 0 0 0 0 0 0 0 0 0 0 0 0 0 0.25 0"/><feBlend in2="BackgroundImageFix" mode="normal" result="effect1_dropShadow"/><feBlend in="SourceGraphic" in2="effect1_dropShadow" mode="normal" result="shape"/></filter><filter id="u" color-interpolation-filters="sRGB" filterUnits="userSpaceOnUse" height="12.7895" width="12.7895" x="37.829" y="49.6173"><feFlood flood-opacity="0" result="BackgroundImageFix"/><feColorMatrix in="SourceAlpha" type="matrix" values="0 0 0 0 0 0 0 0 0 0 0 0 0 0 0 0 0 0 127 0"/><feOffset dy="2.46746"/><feGaussianBlur stdDeviation="1.23373"/><feColorMatrix type="matrix" values="0 0 0 0 0 0 0 0 0 0 0 0 0 0 0 0 0 0 0.25 0"/><feBlend in2="BackgroundImageFix" mode="normal" result="effect1_dropShadow"/><feBlend in="SourceGraphic" in2="effect1_dropShadow" mode="normal" result="shape"/></filter><filter id="v" color-interpolation-filters="sRGB" filterUnits="userSpaceOnUse" height="12.7895" width="12.7895" x="37.829" y="49.6173"><feFlood flood-opacity="0" result="BackgroundImageFix"/><feColorMatrix in="SourceAlpha" type="matrix" values="0 0 0 0 0 0 0 0 0 0 0 0 0 0 0 0 0 0 127 0"/><feOffset dy="2.46746"/><feGaussianBlur stdDeviation="1.23373"/><feColorMatrix type="matrix" values="0 0 0 0 0 0 0 0 0 0 0 0 0 0 0 0 0 0 0.25 0"/><feBlend in2="BackgroundImageFix" mode="normal" result="effect1_dropShadow"/><feBlend in="SourceGraphic" in2="effect1_dropShadow" mode="normal" result="shape"/></filter><filter id="w" color-interpolation-filters="sRGB" filterUnits="userSpaceOnUse" height="12.7895" width="12.7895" x="54.9955" y="3.84619"><feFlood flood-opacity="0" result="BackgroundImageFix"/><feColorMatrix in="SourceAlpha" type="matrix" values="0 0 0 0 0 0 0 0 0 0 0 0 0 0 0 0 0 0 127 0"/><feOffset dy="2.46746"/><feGaussianBlur stdDeviation="1.23373"/><feColorMatrix type="matrix" values="0 0 0 0 0 0 0 0 0 0 0 0 0 0 0 0 0 0 0.25 0"/><feBlend in2="BackgroundImageFix" mode="normal" result="effect1_dropShadow"/><feBlend in="SourceGraphic" in2="effect1_dropShadow" mode="normal" result="shape"/></filter><filter id="x" color-interpolation-filters="sRGB" filterUnits="userSpaceOnUse" height="12.7895" width="12.7895" x="54.9955" y="3.84619"><feFlood flood-opacity="0" result="BackgroundImageFix"/><feColorMatrix in="SourceAlpha" type="matrix" values="0 0 0 0 0 0 0 0 0 0 0 0 0 0 0 0 0 0 127 0"/><feOffset dy="2.46746"/><feGaussianBlur stdDeviation="1.23373"/><feColorMatrix type="matrix" values="0 0 0 0 0 0 0 0 0 0 0 0 0 0 0 0 0 0 0.25 0"/><feBlend in2="BackgroundImageFix" mode="normal" result="effect1_dropShadow"/><feBlend in="SourceGraphic" in2="effect1_dropShadow" mode="normal" result="shape"/></filter><filter id="y" color-interpolation-filters="sRGB" filterUnits="userSpaceOnUse" height="16.5174" width="16.5174" x="41.6715" y="38.5872"><feFlood flood-opacity="0" result="BackgroundImageFix"/><feColorMatrix in="SourceAlpha" type="matrix" values="0 0 0 0 0 0 0 0 0 0 0 0 0 0 0 0 0 0 127 0"/><feOffset dy="2.46746"/><feGaussianBlur stdDeviation="1.23373"/><feColorMatrix type="matrix" values="0 0 0 0 0 0 0 0 0 0 0 0 0 0 0 0 0 0 0.25 0"/><feBlend in2="BackgroundImageFix" mode="normal" result="effect1_dropShadow"/><feBlend in="SourceGraphic" in2="effect1_dropShadow" mode="normal" result="shape"/></filter><filter id="z" color-interpolation-filters="sRGB" filterUnits="userSpaceOnUse" height="16.5174" width="16.5174" x="41.6715" y="38.5872"><feFlood flood-opacity="0" result="BackgroundImageFix"/><feColorMatrix in="SourceAlpha" type="matrix" values="0 0 0 0 0 0 0 0 0 0 0 0 0 0 0 0 0 0 127 0"/><feOffset dy="2.46746"/><feGaussianBlur stdDeviation="1.23373"/><feColorMatrix type="matrix" values="0 0 0 0 0 0 0 0 0 0 0 0 0 0 0 0 0 0 0.25 0"/><feBlend in2="BackgroundImageFix" mode="normal" result="effect1_dropShadow"/><feBlend in="SourceGraphic" in2="effect1_dropShadow" mode="normal" result="shape"/></filter><filter id="A" color-interpolation-filters="sRGB" filterUnits="userSpaceOnUse" height="14.236" width="14.236" x="42.8088" y="28.387"><feFlood flood-opacity="0" result="BackgroundImageFix"/><feColorMatrix in="SourceAlpha" type="matrix" values="0 0 0 0 0 0 0 0 0 0 0 0 0 0 0 0 0 0 127 0"/><feOffset dy="2.46746"/><feGaussianBlur stdDeviation="1.23373"/><feColorMatrix type="matrix" values="0 0 0 0 0 0 0 0 0 0 0 0 0 0 0 0 0 0 0.25 0"/><feBlend in2="BackgroundImageFix" mode="normal" result="effect1_dropShadow"/><feBlend in="SourceGraphic" in2="effect1_dropShadow" mode="normal" result="shape"/></filter><filter id="B" color-interpolation-filters="sRGB" filterUnits="userSpaceOnUse" height="14.236" width="14.236" x="42.8088" y="28.387"><feFlood flood-opacity="0" result="BackgroundImageFix"/><feColorMatrix in="SourceAlpha" type="matrix" values="0 0 0 0 0 0 0 0 0 0 0 0 0 0 0 0 0 0 127 0"/><feOffset dy="2.46746"/><feGaussianBlur stdDeviation="1.23373"/><feColorMatrix type="matrix" values="0 0 0 0 0 0 0 0 0 0 0 0 0 0 0 0 0 0 0.25 0"/><feBlend in2="BackgroundImageFix" mode="normal" result="effect1_dropShadow"/><feBlend in="SourceGraphic" in2="effect1_dropShadow" mode="normal" result="shape"/></filter><linearGradient id="C" gradientUnits="userSpaceOnUse" x1="13.0347" x2="114.328" y1="92.6279" y2="92.6279"><stop offset="0" stop-color="#e9686b"/><stop offset="1" stop-color="#ed9a66"/></linearGradient><g filter="url(#a)"><path d="m114.328 92.6279c0 27.9711-22.6752 50.6471-50.6466 50.6471s-50.6467-22.676-50.6467-50.6471c0-27.9714 22.6753-50.6467 50.6467-50.6467s50.6466 22.6753 50.6466 50.6467z" fill="url(#C)"/></g><g filter="url(#b)"><path d="m108.189 92.6278c0 24.1572-20.0985 43.7402-44.8913 43.7402s-44.8914-19.583-44.8914-43.7402c0-24.1571 20.0986-43.7403 44.8914-43.7403s44.8913 19.5832 44.8913 43.7403z" fill="#b368ee"/></g><g fill="#000"><path clip-rule="evenodd" d="m63.4416 50.248c-23.0976 0-41.8219 18.7243-41.8219 41.8219 0 23.0971 18.7243 41.8221 41.8219 41.8221 23.0975 0 41.8214-18.725 41.8214-41.8221 0-23.0976-18.7239-41.8219-41.8214-41.8219zm-44.8914 41.8219c0-24.7929 20.0985-44.8914 44.8914-44.8914 24.7928 0 44.8914 20.0985 44.8914 44.8914 0 24.7931-20.0986 44.8911-44.8914 44.8911-24.7929 0-44.8914-20.098-44.8914-44.8911z" fill-rule="evenodd"/><path d="m50.7799 79.4082c0 2.119-1.7178 3.8368-3.8369 3.8368-2.119 0-3.8369-1.7178-3.8369-3.8368 0-2.1191 1.7179-3.8369 3.8369-3.8369 2.1191 0 3.8369 1.7178 3.8369 3.8369z"/><path d="m83.777 79.4082c0 2.119-1.7178 3.8368-3.8369 3.8368-2.119 0-3.8368-1.7178-3.8368-3.8368 0-2.1191 1.7178-3.8369 3.8368-3.8369 2.1191 0 3.8369 1.7178 3.8369 3.8369z"/><path clip-rule="evenodd" d="m56.261 96.0231c.9953-.3633 2.0966.149 2.4599 1.1443.726 1.9891 2.9408 3.2966 5.5218 3.3426 2.5498.045 4.7081-1.1491 5.4398-3.3021.3409-1.0031 1.4305-1.54 2.4336-1.1991 1.0032.3409 1.5401 1.4305 1.1992 2.4337-1.4284 4.2035-5.4801 5.9685-9.1403 5.9035-3.6291-.064-7.6244-1.934-9.0584-5.863-.3633-.9953.1491-2.0967 1.1444-2.4599z" fill-rule="evenodd"/></g><path d="m64.447 3.42371c-1.889-3.857059-7.4622-3.627351-9.0275.37208l-21.777 55.64391 8.7321 1.3013c12.8251 1.9113 25.8867 1.5486 38.586-1.0714l10.021-2.0675z" fill="#1c1966"/><path clip-rule="evenodd" d="m37.9252 56.9596 20.3666-52.03973c.5869-1.4998 2.6769-1.58592 3.3852-.13954l24.7845 50.60507-6.1241 1.2635c-12.3446 2.5468-25.0413 2.8993-37.5082 1.0415zm17.4943-53.16381c1.5653-3.999431 7.1385-4.229139 9.0275-.37208l26.5346 54.17839-10.021 2.0675c-12.6993 2.62-25.7609 2.9827-38.586 1.0714l-8.7321-1.3013z" fill="#000" fill-rule="evenodd"/><g filter="url(#c)"><path d="m77.8505 45.8951c-.3865-.3642-1.0219-.1023-1.0396.4284l-.1254 3.7612c-.0051.1501-.0646.2932-.1676.4025l-2.5809 2.7389c-.3641.3864-.1023 1.0218.4284 1.0395l3.7612.1255c.1501.005.2932.0646.4025.1676l2.7389 2.5808c.3865.3642 1.0219.1024 1.0396-.4283l.1254-3.7613c.0051-.15.0646-.2931.1676-.4024l2.5809-2.739c.3641-.3864.1023-1.0218-.4284-1.0395l-3.7612-.1255c-.1501-.005-.2932-.0646-.4025-.1676z" fill="#fcff74"/></g><g filter="url(#d)"><path clip-rule="evenodd" d="m77.9984 47.7297 1.7449 1.6441c.3279.309.7572.4877 1.2074.5028l2.3962.0799-1.6442 1.7449c-.3089.3278-.4877.7572-.5027 1.2074l-.0799 2.3962-1.7449-1.6442c-.3279-.309-.7572-.4877-1.2074-.5027l-2.3962-.08 1.6442-1.7448c.3089-.3279.4877-.7572.5027-1.2075zm-1.1875-1.4062c.0177-.5307.6531-.7926 1.0396-.4284l2.7389 2.5808c.1093.103.2524.1626.4025.1676l3.7612.1255c.5307.0177.7925.6531.4284 1.0395l-2.5809 2.739c-.103.1093-.1625.2524-.1676.4024l-.1254 3.7613c-.0177.5307-.6531.7925-1.0396.4283l-2.7389-2.5808c-.1093-.103-.2524-.1626-.4025-.1676l-3.7612-.1255c-.5307-.0177-.7925-.6531-.4284-1.0395l2.5809-2.7389c.103-.1093.1625-.2524.1676-.4025z" fill="#000" fill-rule="evenodd"/></g><g filter="url(#e)"><path d="m72.2789 38.8503c-.3865-.3641-1.0219-.1023-1.0396.4284l-.0944 2.8292c-.005.1501-.0645.2932-.1675.4025l-1.9414 2.0602c-.3641.3865-.1023 1.0218.4284 1.0396l2.8292.0943c.1501.005.2932.0646.4025.1676l2.0602 1.9413c.3865.3642 1.0219.1024 1.0396-.4284l.0944-2.8291c.005-.1501.0645-.2932.1675-.4025l1.9413-2.0602c.3642-.3865.1024-1.0219-.4283-1.0396l-2.8292-.0944c-.1501-.005-.2932-.0646-.4025-.1676z" fill="#fcff74"/></g><g filter="url(#f)"><path clip-rule="evenodd" d="m72.4268 40.6849 1.0662 1.0047c.3279.3089.7572.4876 1.2074.5027l1.4642.0488-1.0047 1.0662c-.3089.3279-.4877.7572-.5027 1.2074l-.0488 1.4641-1.0662-1.0046c-.3279-.309-.7572-.4877-1.2074-.5027l-1.4642-.0489 1.0047-1.0661c.3089-.3279.4877-.7572.5027-1.2075zm-1.1875-1.4062c.0177-.5307.6531-.7925 1.0396-.4284l2.0602 1.9413c.1093.103.2524.1626.4025.1676l2.8292.0944c.5307.0177.7925.6531.4283 1.0396l-1.9413 2.0602c-.103.1093-.1625.2524-.1675.4025l-.0944 2.8291c-.0177.5308-.6531.7926-1.0396.4284l-2.0602-1.9413c-.1093-.103-.2524-.1626-.4025-.1676l-2.8292-.0943c-.5307-.0178-.7925-.6531-.4284-1.0396l1.9414-2.0602c.103-.1093.1625-.2524.1675-.4025z" fill="#000" fill-rule="evenodd"/></g><g filter="url(#g)"><path d="m57.441 10.9383c-.3865-.3642-1.0219-.1023-1.0396.4284l-.1254 3.7612c-.005.1501-.0646.2932-.1676.4025l-2.5809 2.7389c-.3641.3865-.1023 1.0219.4284 1.0396l3.7612.1254c.1501.005.2932.0646.4025.1676l2.7389 2.5809c.3865.3641 1.0219.1023 1.0396-.4284l.1255-3.7612c.005-.1501.0646-.2932.1675-.4025l2.5809-2.7389c.3642-.3865.1023-1.0219-.4284-1.0396l-3.7612-.1255c-.1501-.005-.2932-.0646-.4025-.1675z" fill="#fcff74"/></g><g filter="url(#h)"><path clip-rule="evenodd" d="m57.5889 12.7729 1.7449 1.6442c.3279.3089.7572.4877 1.2075.5027l2.3961.0799-1.6442 1.7449c-.3089.3279-.4877.7572-.5027 1.2074l-.0799 2.3962-1.7449-1.6442c-.3279-.309-.7572-.4877-1.2074-.5027l-2.3962-.08 1.6442-1.7448c.309-.3279.4877-.7572.5027-1.2075zm-1.1875-1.4062c.0177-.5307.6531-.7926 1.0396-.4284l2.7389 2.5809c.1093.1029.2524.1625.4025.1675l3.7612.1255c.5307.0177.7926.6531.4284 1.0396l-2.5809 2.7389c-.1029.1093-.1625.2524-.1675.4025l-.1255 3.7612c-.0177.5307-.6531.7925-1.0396.4284l-2.7389-2.5809c-.1093-.103-.2524-.1626-.4025-.1676l-3.7612-.1254c-.5307-.0177-.7925-.6531-.4284-1.0396l2.5809-2.7389c.103-.1093.1626-.2524.1676-.4025z" fill="#000" fill-rule="evenodd"/></g><g filter="url(#i)"><path d="m66.3687 21.2702c-.3865-.3642-1.0219-.1023-1.0396.4284l-.1255 3.7612c-.005.1501-.0645.2932-.1675.4025l-2.5809 2.7389c-.3642.3865-.1023 1.0219.4284 1.0396l3.7612.1254c.1501.005.2932.0646.4025.1676l2.7389 2.5809c.3865.3641 1.0219.1023 1.0396-.4284l.1254-3.7612c.005-.1501.0646-.2932.1676-.4025l2.5809-2.7389c.3641-.3865.1023-1.0219-.4284-1.0396l-3.7612-.1255c-.1501-.005-.2932-.0646-.4025-.1675z" fill="#fcff74"/></g><g filter="url(#j)"><path clip-rule="evenodd" d="m66.5166 23.1048 1.7449 1.6442c.3279.3089.7572.4877 1.2074.5027l2.3962.0799-1.6442 1.7449c-.3089.3279-.4877.7572-.5027 1.2074l-.0799 2.3962-1.7449-1.6442c-.3279-.309-.7572-.4877-1.2075-.5027l-2.3961-.0799 1.6442-1.7449c.3089-.3279.4877-.7572.5027-1.2075zm-1.1875-1.4062c.0177-.5307.6531-.7926 1.0396-.4284l2.7389 2.5809c.1093.1029.2524.1625.4025.1675l3.7612.1255c.5307.0177.7925.6531.4284 1.0396l-2.5809 2.7389c-.103.1093-.1626.2524-.1676.4025l-.1254 3.7612c-.0177.5307-.6531.7925-1.0396.4284l-2.7389-2.5809c-.1093-.103-.2524-.1626-.4025-.1676l-3.7612-.1254c-.5307-.0177-.7926-.6531-.4284-1.0396l2.5809-2.7389c.103-.1093.1625-.2524.1675-.4025z" fill="#000" fill-rule="evenodd"/></g><g filter="url(#k)"><path d="m66.7195 49.9258c-.3427-.4056-1.0037-.2174-1.0814.3079l-.4142 2.8003c-.022.1486-.0974.284-.2121.3809l-2.1621 1.8271c-.4056.3427-.2175 1.0037.3078 1.0814l2.8003.4142c.1486.022.284.0974.381.2121l1.827 2.1621c.3428.4056 1.0037.2175 1.0814-.3078l.4142-2.8003c.022-.1486.0974-.284.2121-.381l2.1622-1.827c.4056-.3428.2174-1.0037-.3079-1.0814l-2.8003-.4142c-.1486-.022-.284-.0974-.3809-.2121z" fill="#fcff74"/></g><g filter="url(#l)"><path clip-rule="evenodd" d="m66.6587 51.7654.9455 1.1189c.2908.3441.6971.5703 1.1428.6362l1.4491.2144-1.1189.9455c-.3441.2908-.5703.6971-.6362 1.1427l-.2144 1.4492-.9455-1.1189c-.2908-.3441-.6971-.5703-1.1427-.6363l-1.4492-.2143 1.1189-.9455c.3441-.2908.5703-.6971.6363-1.1428zm-1.0206-1.5317c.0777-.5253.7387-.7135 1.0814-.3079l1.8271 2.1622c.0969.1147.2323.1901.3809.2121l2.8003.4142c.5253.0777.7135.7386.3079 1.0814l-2.1622 1.827c-.1147.097-.1901.2324-.2121.381l-.4142 2.8003c-.0777.5253-.7386.7134-1.0814.3078l-1.827-2.1621c-.097-.1147-.2324-.1901-.381-.2121l-2.8003-.4142c-.5253-.0777-.7134-.7387-.3078-1.0814l2.1621-1.8271c.1147-.0969.1901-.2323.2121-.3809z" fill="#000" fill-rule="evenodd"/></g><g filter="url(#m)"><path d="m60.3883 41.7401c-.3427-.4056-1.0037-.2174-1.0814.3079l-.3066 2.0727c-.0219.1485-.0973.284-.212.3809l-1.6004 1.3523c-.4056.3428-.2174 1.0037.3079 1.0814l2.0727.3066c.1485.022.284.0974.3809.2121l1.3524 1.6004c.3427.4056 1.0037.2174 1.0814-.3079l.3065-2.0727c.022-.1486.0974-.284.2121-.3809l1.6004-1.3524c.4056-.3427.2174-1.0037-.3079-1.0814l-2.0727-.3066c-.1486-.0219-.284-.0974-.3809-.212z" fill="#fcff74"/></g><g filter="url(#n)"><path clip-rule="evenodd" d="m60.3275 43.5796.4708.5571c.2908.3441.6971.5704 1.1428.6363l.7216.1067-.5572.4708c-.3441.2908-.5703.6971-.6362 1.1428l-.1068.7215-.4708-.5571c-.2907-.3441-.697-.5703-1.1427-.6362l-.7216-.1068.5572-.4708c.3441-.2908.5703-.6971.6362-1.1427zm-1.0206-1.5316c.0777-.5253.7387-.7135 1.0814-.3079l1.3524 1.6004c.0969.1146.2323.1901.3809.212l2.0727.3066c.5253.0777.7135.7387.3079 1.0814l-1.6004 1.3524c-.1147.0969-.1901.2323-.2121.3809l-.3065 2.0727c-.0777.5253-.7387.7135-1.0814.3079l-1.3524-1.6004c-.0969-.1147-.2324-.1901-.3809-.2121l-2.0727-.3066c-.5253-.0777-.7135-.7386-.3079-1.0814l1.6004-1.3523c.1147-.0969.1901-.2324.212-.3809z" fill="#000" fill-rule="evenodd"/></g><g filter="url(#o)"><path d="m55.1493 22.5489c-.3427-.4056-1.0037-.2174-1.0814.3079l-.3066 2.0727c-.0219.1486-.0973.284-.212.3809l-1.6004 1.3524c-.4056.3427-.2174 1.0037.3079 1.0814l2.0727.3066c.1485.0219.284.0973.3809.212l1.3523 1.6004c.3428.4056 1.0037.2174 1.0814-.3079l.3066-2.0727c.022-.1485.0974-.284.2121-.3809l1.6004-1.3524c.4056-.3427.2174-1.0037-.3079-1.0814l-2.0727-.3065c-.1486-.022-.284-.0974-.3809-.2121z" fill="#fcff74"/></g><g filter="url(#p)"><path clip-rule="evenodd" d="m55.0885 24.3884.4708.5572c.2908.3441.6971.5703 1.1428.6362l.7216.1068-.5572.4708c-.3441.2907-.5703.697-.6362 1.1427l-.1068.7216-.4708-.5572c-.2908-.3441-.6971-.5703-1.1427-.6362l-.7216-.1067.5572-.4708c.3441-.2908.5703-.6971.6362-1.1428zm-1.0206-1.5316c.0777-.5253.7387-.7135 1.0814-.3079l1.3524 1.6004c.0969.1147.2323.1901.3809.2121l2.0727.3065c.5253.0777.7135.7387.3079 1.0814l-1.6004 1.3524c-.1147.0969-.1901.2324-.2121.3809l-.3066 2.0727c-.0777.5253-.7386.7135-1.0814.3079l-1.3523-1.6004c-.0969-.1147-.2324-.1901-.3809-.212l-2.0727-.3066c-.5253-.0777-.7135-.7387-.3079-1.0814l1.6004-1.3524c.1147-.0969.1901-.2323.212-.3809z" fill="#000" fill-rule="evenodd"/></g><g filter="url(#q)"><path d="m60.104 30.6343c-.3427-.4056-1.0037-.2174-1.0814.3079l-.4142 2.8003c-.0219.1486-.0974.284-.2121.3809l-2.1621 1.8271c-.4056.3427-.2174 1.0037.3079 1.0814l2.8003.4142c.1485.022.2839.0974.3809.2121l1.8271 2.1621c.3427.4056 1.0037.2174 1.0814-.3078l.4141-2.8003c.022-.1486.0974-.284.2121-.381l2.1622-1.827c.4056-.3428.2174-1.0037-.3079-1.0814l-2.8003-.4142c-.1485-.022-.284-.0974-.3809-.2121z" fill="#fcff74"/></g><g filter="url(#r)"><path clip-rule="evenodd" d="m60.0432 32.4738.9456 1.119c.2907.3441.697.5703 1.1427.6362l1.4492.2144-1.119.9455c-.3441.2908-.5703.6971-.6362 1.1427l-.2144 1.4492-.9455-1.1189c-.2908-.3441-.6971-.5703-1.1427-.6363l-1.4492-.2143 1.1189-.9455c.3441-.2908.5704-.6971.6363-1.1428zm-1.0206-1.5316c.0777-.5253.7387-.7135 1.0814-.3079l1.8271 2.1622c.0969.1147.2324.1901.3809.2121l2.8003.4142c.5253.0777.7135.7386.3079 1.0814l-2.1622 1.827c-.1147.097-.1901.2324-.2121.381l-.4141 2.8003c-.0777.5252-.7387.7134-1.0814.3078l-1.8271-2.1621c-.097-.1147-.2324-.1901-.3809-.2121l-2.8003-.4142c-.5253-.0777-.7135-.7387-.3079-1.0814l2.1621-1.8271c.1147-.0969.1902-.2323.2121-.3809z" fill="#000" fill-rule="evenodd"/></g><g filter="url(#s)"><path d="m57.1995 51.6296c-.0908-.5232-.7563-.6947-1.0888-.2807l-1.7722 2.2074c-.094.1171-.2275.1959-.3754.2216l-2.789.4844c-.5232.0909-.6948.7563-.2807 1.0888l2.2074 1.7722c.1171.094.1959.2275.2216.3754l.4844 2.7891c.0908.5231.7563.6947 1.0888.2806l1.7722-2.2074c.094-.1171.2275-.1959.3754-.2216l2.789-.4844c.5232-.0908.6947-.7563.2807-1.0887l-2.2074-1.7722c-.1171-.0941-.1959-.2276-.2216-.3755z" fill="#fcff74"/></g><g filter="url(#t)"><path clip-rule="evenodd" d="m56.2177 53.1864.2507 1.4433c.0771.4439.3134.8444.6647 1.1264l1.1423.9171-1.4433.2507c-.4439.0771-.8443.3134-1.1264.6647l-.9171 1.1424-.2507-1.4434c-.0771-.4438-.3134-.8443-.6647-1.1264l-1.1424-.9171 1.4434-.2507c.4438-.0771.8443-.3134 1.1264-.6647zm-.107-1.8375c.3325-.414.998-.2425 1.0888.2807l.4844 2.789c.0257.1479.1045.2814.2216.3755l2.2074 1.7722c.414.3324.2425.9979-.2807 1.0887l-2.789.4844c-.1479.0257-.2814.1045-.3754.2216l-1.7722 2.2074c-.3325.4141-.998.2425-1.0888-.2806l-.4844-2.7891c-.0257-.1479-.1045-.2814-.2216-.3754l-2.2074-1.7722c-.4141-.3325-.2425-.9979.2807-1.0888l2.789-.4844c.1479-.0257.2814-.1045.3754-.2216z" fill="#000" fill-rule="evenodd"/></g><g filter="url(#u)"><path d="m45.2566 50.0571c-.1526-.5086-.8338-.5996-1.1145-.1488l-1.088 1.7472c-.0794.1275-.2025.2216-.3464.2648l-1.9714.5915c-.5086.1526-.5996.8338-.1488 1.1145l1.7472 1.088c.1275.0794.2216.2025.2648.3464l.5915 1.9714c.1526.5086.8338.5996 1.1145.1488l1.088-1.7472c.0794-.1275.2025-.2216.3464-.2648l1.9714-.5915c.5086-.1526.5996-.8338.1488-1.1145l-1.7472-1.088c-.1275-.0794-.2216-.2025-.2648-.3464z" fill="#fcff74"/></g><g filter="url(#v)"><path clip-rule="evenodd" d="m44.4674 51.7198.199.6633c.1295.4315.4119.8009.7944 1.0391l.5878.366-.6633.199c-.4315.1295-.8009.4119-1.0391.7943l-.366.5879-.199-.6633c-.1295-.4315-.4119-.8009-.7943-1.0391l-.5879-.366.6633-.199c.4315-.1295.801-.4119 1.0391-.7943zm-.3253-1.8115c.2807-.4508.9619-.3598 1.1145.1488l.5915 1.9714c.0432.1439.1373.267.2648.3464l1.7472 1.088c.4508.2807.3598.9619-.1488 1.1145l-1.9714.5915c-.1439.0432-.267.1373-.3464.2648l-1.088 1.7472c-.2807.4508-.9619.3598-1.1145-.1488l-.5915-1.9714c-.0432-.1439-.1373-.267-.2648-.3464l-1.7472-1.088c-.4508-.2807-.3598-.9619.1488-1.1145l1.9714-.5915c.1439-.0432.267-.1373.3464-.2648z" fill="#000" fill-rule="evenodd"/></g><g filter="url(#w)"><path d="m62.4231 4.28596c-.1526-.50861-.8338-.59956-1.1145-.1488l-1.088 1.74724c-.0794.12747-.2025.22161-.3464.26477l-1.9714.59153c-.5086.15261-.5996.8338-.1488 1.11449l1.7472 1.088c.1275.07938.2216.20253.2648.34636l.5915 1.97145c.1526.5086.8338.5996 1.1145.1488l1.088-1.74723c.0794-.12747.2025-.22162.3464-.26477l1.9714-.59153c.5087-.15261.5996-.8338.1488-1.11449l-1.7472-1.088c-.1275-.07938-.2216-.20253-.2648-.34636z" fill="#fcff74"/></g><g filter="url(#x)"><path clip-rule="evenodd" d="m61.6339 5.94872.199.66326c.1295.4315.4119.80095.7944 1.03908l.5878.36604-.6633.19901c-.4315.12947-.8009.4119-1.0391.79431l-.366.58783-.199-.66326c-.1295-.4315-.4119-.80095-.7943-1.03909l-.5879-.36603.6633-.19902c.4315-.12947.801-.41189 1.0391-.79431zm-.3253-1.81156c.2807-.45076.9619-.35981 1.1145.1488l.5915 1.97146c.0432.14383.1373.26698.2648.34636l1.7472 1.088c.4508.28069.3599.96188-.1488 1.11449l-1.9714.59153c-.1439.04315-.267.1373-.3464.26477l-1.088 1.74723c-.2807.4508-.9619.3598-1.1145-.1488l-.5915-1.97145c-.0432-.14383-.1373-.26698-.2648-.34636l-1.7472-1.088c-.4508-.28069-.3598-.96188.1488-1.11449l1.9714-.59153c.1439-.04316.267-.1373.3464-.26477z" fill="#000" fill-rule="evenodd"/></g><g filter="url(#y)"><path d="m48.2214 38.7562c-.3865-.3642-1.0219-.1024-1.0396.4284l-.1254 3.7612c-.005.1501-.0646.2932-.1676.4024l-2.5809 2.739c-.3641.3864-.1023 1.0218.4284 1.0395l3.7612.1255c.1501.005.2932.0646.4025.1676l2.7389 2.5808c.3865.3642 1.0219.1024 1.0396-.4284l.1255-3.7612c.005-.1501.0645-.2932.1675-.4025l2.5809-2.7389c.3642-.3864.1023-1.0218-.4284-1.0395l-3.7612-.1255c-.1501-.005-.2932-.0646-.4025-.1676z" fill="#fcff74"/></g><g filter="url(#z)"><path clip-rule="evenodd" d="m48.3693 40.5907 1.7449 1.6442c.3279.309.7572.4877 1.2075.5027l2.3961.08-1.6442 1.7449c-.3089.3278-.4877.7571-.5027 1.2074l-.0799 2.3962-1.7449-1.6442c-.3279-.309-.7572-.4877-1.2074-.5028l-2.3962-.0799 1.6442-1.7449c.3089-.3278.4877-.7572.5027-1.2074zm-1.1875-1.4061c.0177-.5308.6531-.7926 1.0396-.4284l2.7389 2.5808c.1093.103.2524.1626.4025.1676l3.7612.1255c.5307.0177.7926.6531.4284 1.0395l-2.5809 2.7389c-.103.1093-.1625.2524-.1675.4025l-.1255 3.7612c-.0177.5308-.6531.7926-1.0396.4284l-2.7389-2.5808c-.1093-.103-.2524-.1626-.4025-.1676l-3.7612-.1255c-.5307-.0177-.7925-.6531-.4284-1.0395l2.5809-2.739c.103-.1092.1626-.2523.1676-.4024z" fill="#000" fill-rule="evenodd"/></g><g filter="url(#A)"><path d="m48.6881 28.556c-.3864-.3642-1.0218-.1023-1.0395.4284l-.0944 2.8292c-.005.1501-.0646.2932-.1676.4025l-1.9413 2.0602c-.3642.3864-.1023 1.0218.4284 1.0395l2.8292.0944c.15.005.2931.0646.4024.1676l2.0603 1.9413c.3864.3642 1.0218.1023 1.0395-.4284l.0944-2.8292c.005-.15.0646-.2931.1676-.4024l1.9413-2.0602c.3642-.3865.1023-1.0219-.4284-1.0396l-2.8292-.0944c-.1501-.005-.2932-.0646-.4025-.1676z" fill="#fcff74"/></g><g filter="url(#B)"><path clip-rule="evenodd" d="m48.8361 30.3906 1.0661 1.0046c.3279.309.7572.4877 1.2075.5028l1.4641.0488-1.0046 1.0662c-.309.3278-.4877.7572-.5028 1.2074l-.0488 1.4641-1.0662-1.0046c-.3278-.309-.7572-.4877-1.2074-.5027l-1.4641-.0489 1.0046-1.0661c.309-.3279.4877-.7572.5027-1.2075zm-1.1875-1.4062c.0177-.5307.6531-.7926 1.0395-.4284l2.0602 1.9413c.1093.103.2524.1626.4025.1676l2.8292.0944c.5307.0177.7926.6531.4284 1.0396l-1.9413 2.0602c-.103.1093-.1626.2524-.1676.4024l-.0944 2.8292c-.0177.5307-.6531.7926-1.0395.4284l-2.0603-1.9413c-.1093-.103-.2524-.1626-.4024-.1676l-2.8292-.0944c-.5307-.0177-.7926-.6531-.4284-1.0395l1.9413-2.0602c.103-.1093.1626-.2524.1676-.4025z" fill="#000" fill-rule="evenodd"/></g></svg>