<svg viewBox="0 0 125.86 98.48" xmlns="http://www.w3.org/2000/svg"><g fill="#fff"><path d="m124.35 28.89c-1.61-7.39-5.29-12.85-9.36-19l-20.39 43.11 18.4-38.85 2-4.22c-.87-1.21-1.79-2.39-2.74-3.54l-1.94 4.1-19.19 40.51-2.74 2.7-6.71-3.35a1.94 1.94 0 0 0 -1.38-.15l-9 2.24-7 1.76a1.92 1.92 0 0 0 -.92.52l-4.81 4.81-7.2 7.19a7.66 7.66 0 0 0 10.83 10.83l2.59-2.55 2.83-2.82 13.63 13.58 2.37 2.38-1.69 1.68 2.36-1 11.29-4.82a2 2 0 0 0 .62-.42l12-12a2.12 2.12 0 0 0 .39-.55l14.16-29.52 3.11-6.51q-.61-3.1-1.51-6.11z" opacity=".5"/><path d="m81.25 85.76-13.63-13.62-2.83 2.86 13.21 13.13-13.21-13.13-2.59 2.55a7.66 7.66 0 0 1 -10.83-10.83l8.63-8.58 3.42-3.42-.59.59-.59-.59a2 2 0 0 0 -.78-.48l-12-4a2 2 0 0 0 -1.53.11l-6.75 3.35-2.66-2.7-17.05-46.84-1.47-4.16q-1.62 1.49-3.14 3.06l1.57 4.33 16.48 45.43a1.76 1.76 0 0 0 .19.39 1.81 1.81 0 0 0 .28.34l4 4a2 2 0 0 0 2.3.38l7.26-3.63 10.77 3.58.25.26-.25-.26-10.77-3.58-7.26 3.63a2 2 0 0 1 -2.3-.38l-4-4a1.81 1.81 0 0 1 -.28-.34 1.76 1.76 0 0 1 -.19-.39l-18.09-49.76c-7 7.82-13.44 17-15.59 27.62q-.73 2.73-1.23 5.57l3.34 5.33 19.75 31.62a3.07 3.07 0 0 0 .28.35l12 12a2.12 2.12 0 0 0 .51.38l7.71 3.85 6.95 7a6 6 0 0 0 8.48 0l1.77-1.78 1.21 1.14a4 4 0 0 0 2.83 1.17 4 4 0 0 0 2.83-1.17l3.13-3.14 1.21 1.13a4 4 0 0 0 2.84 1.17 4 4 0 0 0 2.84-1.17l3.11-3.13 1.14-1.14 1.69-1.68z"/></g></svg>