<svg xmlns="http://www.w3.org/2000/svg" viewBox="0 0 31.8 31.8"><g fill="#fff"><path d="M31.6 23.6c-.3.3-.6.5-.9.6h.7c-.1.3-.3.6-.4 1-.1.2-.1.4 0 .6 0 .6 0 1.2.2 1.8 0 .1-.1.2-.2.2l-1.7.1c-1.1.1-2.2.2-3.3.2h-1.3c-.3 0-.4.1-.4.4v2.7c0 .1.1.2-.1.3 0-.5 0-.5-.6-.4-.3.1-.6.1-.9-.1-.1-.1-.2-.1-.2-.1v.5s-.1-.1-.1-.2c-.1-1-.1-1.9 0-2.9 0-.2-.1-.4-.3-.5-.8-.3-1.6-.7-2.5-1.1-1.2-.5-2.5-1-3.7-1.6h-.1c-.2-.1-.4-.3-.6-.2s-.1.4-.2.5c-.3.9-.8 1.7-1.5 2.4-.4.4-.9.6-1.5.5-.2 0-.3-.1-.4-.2-.2-.2-.4-.3-.6-.5 0 0-.1-.1-.1 0v.1c.1.3 0 .6.3.8s0 .2 0 .2c-.5.7-.5 1.6.1 2.2.1.1 0 .2-.1.2-.5 0-1 .1-1.4.1-1.1.1-2.1.1-3.2.1-.7 0-1.4.1-2.1.1-.2 0-.4-.1-.5-.2-.3-.3-.6-.6-1-.9-.1-.1-.2-.2 0-.3s0-.1 0-.2c-.5-.6-1-1.1-1.6-1.6l-.1-.1c-.3.1-.4-.1-.5-.2-.2-.2-.3-.4-.4-.7-.1-.5 0-1.1.4-1.5.1-.1 0-.4 0-.6-.3-.6-.1-1.3.3-1.8.1-.1.2-.1.3-.1.7 0 1.4-.1 2-.1.1.1.3 0 .3-.1.3-.6.7-1.2 1.2-1.7.1.1.4-.3.6-.8.2-.4.5-.7.8-.9 0-.1-.1-.2-.2-.2-.6-.3-1-.8-1.1-1.5-.1-.3-.2-.5-.5-.7-.3-.2-.6-.5-.7-.9-.2-.4-.2-.8.1-1.2-.2.1-.3.1-.3-.1-.1-.6-.2-1.2-.1-1.8 0-.2.1-.4.3-.5.4-.3.7-.5 1.1-.9.2-.3.6-.4.9-.3.1 0 .2 0 .4-.1s.3-.2.4 0 .2-.2.3 0-.1.2-.1.4 0 .2.1.2c.2.2.5.3.9.3s.8.1 1 .5c0 .1.1.2.2.1.1 0 .3.1.4.2.1.1-.1.1-.1.2s-.1.2 0 .2c.3.1.4.4.5.6.1.1.2.3.3.4.3.3.3.7 0 1 0 0-.1 0-.1.1l-.1.1c0-.1-.1-.3-.3-.3 0 0-.1-.1-.1 0v.1c.3.3.4.8.8 1.1v-.1c0-.1-.1-.2-.1-.3h.1c.1.1.1.2.1.3 0 .6-.1 1.1-.2 1.7 0 .1-.1.2 0 .3.2-.1.4.2.5 0s.6-.2.8-.4.2-.1.2-.4c-.1-.4-.1-.9 0-1.3V14c0-.2.1-.4.3-.4h.1l2.1.3c.3 0 .6.1.8-.3.1-.2.3-.3.4-.4l.1-.1s-.1-.1-.2-.1c-.8 0-1.6-.1-2.3-.3-.6-.1-.7-.3-.6-.9s.1-1 .2-1.6c.1-.7 0-1.4.1-2.1.1-1.4.1-2.8.1-4.2 0-1.1.1-2.3.2-3.4 0-.2.1-.3.3-.4.3-.1.5-.1.8-.1 1.1 0 2.2 0 3.2.1s2.3.2 3.5.3c1.1.1 2.1.2 3.1.5 1.1.3 2.1.7 3.1 1.2l.5.3c.1.1.2.2.2.4 0 .3.1.3.3.4.4.1.7.2 1.1.3.5.1.5.5.5.9.1.6.1 1.1.1 1.7 0 1.1-.2 2.2-.5 3.3-.1.3-.4.4-.6.6-.4.3-.9.6-1.3.8-.3.1-.2.5-.2.7-.1.5-.3 1-.5 1.4-.1.2-.3.2-.5.2-.8.2-1.7.3-2.6.3-.2 0-.3.2-.5.2s0 .1 0 .1c.2.3.3.5.4.8 0 .1.1.1.1.1.7.1 1.5.2 2.2.2.4 0 .9.1 1.3.1.2 0 .2.1.2.3 0 .5-.1 1.1-.1 1.6.1.9.1 1.9.1 2.8 0 .2 0 .4.3.4.1 0 .1.1.1.1v.1c-.1.2 0 .2.2.2 1.1.3 2.1.5 3.2.8.1 0 .2.1.3.2-.8.3-1.6.3-2.5.5 1 .1 1.9.5 2.7 1.1l.1.6zm-20 .4c.1-.1.2-.3.2-.4 0-.1 0-.2-.1-.2s-.1.1-.1.2v.5c-.1.6-.4 1.2-.8 1.7s-.8 1.1-1.6 1c.1.3.3.4.5.2s.3-.2.4-.2.1-.1.2 0v.2l-.3.4c.2.1.5.1.7-.1.7-.6 1.3-1.3 1.7-2.2.2-.4.2-.8.2-1.3 0-.2-.2-.3-.3-.3s-.4-.1-.4.1-.1.3-.2.5c-.1 0-.1-.1-.1-.1zM24.5 1.3c0 1 0 2-.1 2.9 0 .3-.1.6-.1 1 0 .1 0 .3-.2.2s-.1-.2-.1-.3c0-.3.1-.5.1-.8 0-.9.1-1.9.1-2.8 0-.2 0-.3-.3-.4s-.4-.1-.7-.1C22.1.8 21.1.6 20 .5s-2-.2-3-.3c-.7-.1-1.4-.1-2.2-.1h-.2c-.4-.1-.8-.1-1.2.1-.2 0-.2.1-.2.3-.1.5-.1 1-.1 1.5-.1.9-.1 1.7-.1 2.5-.1 1 0 2-.1 3.1-.1.8 0 1.6-.1 2.3 0 .3-.1.6-.1.9 0 .4-.1.9-.1 1.3 0 .1 0 .1.1.1.2.1.3.2.5.2l1.6.2c1 .1 2 .2 3 .2.3 0 .5.1.8.1.7.1 1.4.2 2.1.2s1.2.1 1.9.2c.5.1.5 0 .6-.4.1-.3.1-.6.2-.9l.3-2.1c.1-.5.2-1 .2-1.5-.1-.5.3-1 .2-1.5 0-.2.2-.4.1-.6s0-.5.2-.8v1.2c-.1.6-.2 1.1-.2 1.7 0 .7-.1 1.4-.3 2.1-.1.8-.2 1.6-.4 2.4 0 .2 0 .2.2.2.4 0 .8 0 1.2-.1.5 0 .9-.1 1.4-.3.1 0 .3-.1.3-.3.1-.3.2-.7.3-1 .2-.8.3-1.6.4-2.4.1-.9.2-1.8.2-2.7 0-1.3 0-2.6-.1-3.9 0-.1 0-.2-.1-.2-.7-.2-1.7-.7-2.8-.9zm-1.7 19.5v-5.9c0-.1 0-.2-.2-.2s-.3 0-.5-.1c-1-.1-2.1-.2-3.1-.3s-2.2-.2-3.3-.3c-.4 0-.9-.1-1.3-.1l-2.4-.3c-.3 0-.3.1-.3.3 0 1.1-.1 2.1-.1 3.1 0 .3.2.4.4.4h.2c1.9.4 3.7.8 5.6 1l3.3.6c.6.1.5 0 .5.6v.4s0 .1.1.2c.5.4.8.5 1.1.6zm4.2-.3c.1-.1.1-.2.1-.4-.1-.2-.1-.5-.1-.7V18c-.1-.8-.1-1.7 0-2.5 0-.2 0-.4-.3-.3-.2 0-.4 0-.6-.1-1-.1-1.9-.1-2.9-.3-.1 0-.2 0-.2.2v2.2c-.1 1.1 0 2.2 0 3.4 0 .1 0 .2.1.3.1-.7.1-1.5.1-2.2.1.1.1.2.1.3v1.6s-.1.2.1.2.1-.1.1-.2c0-.3.1-.6.1-1s.1-.6.1-.9v1.8c0 .1 0 .2.1.2s.1-.1.2-.2 0-.3.1-.5l.1-1.2c0 .5 0 1-.1 1.5v.3h.2c.1-.1.1-.2.1-.3 0-.2 0-.4.1-.6v.6s-.1.2.1.2.2-.1.2-.2 0-.5.1-.7c0 .2.1.5.1.8 0 .1 0 .2.1.2s.1-.1.1-.2c0-.5.1-.9.1-1.4v1c0 .2-.1.5.1.5s.1-.3.2-.5c0-.4 0-.7.1-1.1 0 .5.1.9.1 1.4 0 .1-.1.2.1.2s.1-.1.1-.2c0-.4.1-.8.1-1.2v1.3c0 .1 0 .2.1.2s.1-.1.1-.2c.1-.2.1-.5.1-.7 0 .2.1.4.1.7 0 .1 0 .2.2.2s.1-.1.1-.2v-.5c.1.1 0 .4.2.6zM8.2 24.9c.3.2.4.6.8.5 0 0 .1 0 .1.1.1.3.3.5.5.7s.3.4.6.1c.6-.6 1.1-1.4 1.2-2.3 0-.2.1-.4-.1-.5-.3-.3-.7-.5-1.1-.6-.4-.1-.7 0-1.1.1-.8 0-1.5.4-2.1.9-.1.1-.3.1-.4.1-.1-.2.4-.2 0-.4l.3-.1c-.9-.1-1.7-.2-2.6-.6-.1 0-.2-.1-.3 0-.4.4-.5 1-.1 1.4l.3.3c.5.5 1.2.7 1.8.7-.2-.2-.3-.3-.3-.5 0-.5-.3-.6-.7-.7-.1 0-.1-.1-.2-.1s-.4-.2-.5-.2-.1.4-.2.6c-.1-.1-.1-.4 0-.6.1-.2.2-.2.4-.1.3.2.7.4 1 .5.2.1.4.2.4.5 0 .5.4.8.9.8H7c.3-.1.5-.1.8-.1.3-.2.4-.2.4-.5zm-4.4 5.8c.3.2.5.1.7.1.6 0 1.2 0 1.8-.1.3 0 .7 0 1-.1.5-.1 1.1-.2 1.6-.2.1 0 .2 0 .2.1-1.7.2-3.5.3-5.2.4 1.6.1 3.3-.2 4.9-.2-1.6.2-3.2.3-4.8.4.8.1 1.6.1 2.4 0 .8-.1 1.5-.2 2.3-.2 0 0 .1 0 .1.1-1.6.2-3.2.3-4.8.4.2.1.3 0 .5 0 .7 0 1.5-.1 2.2-.1 1 0 2.1-.1 3.1-.1.2 0 .4 0 .7-.1s.1-.1.1-.2c-.3-.5-.4-1.1-.1-1.7.1-.2.1-.3.1-.5-2.1 0-4.3.4-6.4.5.8.1 1.6-.2 2.4 0l-2.6.2c.1.1.2.1.3.1.7 0 1.5-.1 2.2-.2h1.3c-1.3.1-2.5.3-3.8.3 1.5 0 3-.2 4.5-.2l-2.1.3c-.8 0-1.6.1-2.4.1-.1 0-.2 0-.2.2H5c1.3.2 2.4 0 3.6 0H9v.1l-5.1.4c1.7.1 3.4-.2 5.1-.2v.1l-5.2.3zm-2.2-6.3c.1 0 .2-.1.3 0 .4.4.8.7 1.3 1 .2.3.5.4.9.5 1.6 0 3.1 0 4.7-.1.1 0 .2 0 .2-.1s-.1-.2-.2-.1c-.1 0-.3 0-.4-.1s-.2 0-.3 0c-.8.2-1.7.3-2.5.2-.9-.1-1.7-.7-2.1-1.5-.1-.1-.1-.2-.3-.2-.6 0-1.3 0-1.9.2-.3.1-.5.2-.6.5v1.2c0 .1.1.1.1.2.8.7 1.6 1.5 2.4 2.2l.6.6v-.2c-.1-.5-.1-1-.1-1.6 0-.3 0-.6.1-.8 0-.1-.1-.2-.2-.2-.6-.6-1.3-1.1-2-1.7zm6.5 2.1c-1.4.2-2.8.2-4.2.2v.1h1.6c-.5 0-1.1.1-1.6.2 1.3 0 2.6-.1 4-.1-1.3.2-2.6.2-4 .4 1.3 0 2.6-.2 3.8-.1-1.3.1-2.6.2-3.8.4 1.2 0 2.4-.1 3.7-.2-.5.1-.9.2-1.4.2h1.1l-3.4.3v.1c.7.1 1.3.1 2-.1.8-.1 1.6-.1 2.4-.1.1 0 .2 0 .2.1-1.6 0-3.1.3-4.6.4 1.4 0 2.8 0 4.2-.1-.9.1-1.9.2-2.8.2H4.2c-.1 0-.1 0-.2.1-.1 0-.1.1-.1.2s.1.1.2.1h.5c1.1-.2 2.1-.2 3.2-.3.9-.1 1.7-.1 2.6-.2.1 0 .2 0 .2-.1s0-.4-.1-.4c-.3-.1-.6-.2-.8-.3-.6-.3-.7-.2-.4-.9v-.1c0-.2-.1-.4-.3-.3-.8.1-1.6.1-2.3.1H4.3c-.1 0-.2-.1-.3.1 1.3.1 2.6-.1 3.9 0-.1.1-.3.1-.4.1-1.1 0-2.1.1-3.2.1-.1 0-.2 0-.3.1.1.1.2 0 .3.1h2.4c.5-.3.9-.3 1.4-.3zM28.9 8.8c.2-.3.4-.6.5-.9.1-.7.2-1.5.1-2.3V4.3c0-.2-.1-.5-.3-.6s-.8-.2-1.1-.4c-.2-.1-.3 0-.3.2.1 1.9 0 3.9-.2 5.8-.1.3-.1.5 0 .8v-.7c.1.4-.1.7 0 1 0 0 .1 0 .1-.1.2-.3.2-.6.2-.9-.1-.2 0-.4.2-.5.2-.1.3-.3.3-.6 0 .1 0 .3.2.2s.1 0 .1 0 0 .2.2.1.1-.1.1-.2 0-.2.1-.2l-.2.6zm-7.5 10.9c-.1-.2-.2-.1-.4-.1-1.1-.2-2.3-.5-3.4-.7-1-.2-1.9-.3-2.9-.5s-1.8-.4-2.7-.5c-.2 0-.6.2-.5.3.1.2.1.4 0 .5-.1.2 0 .3.2.4v-.2c-.1-.4.1-.7.5-.8h.2c.3 0 .4.2.7.2l2.7.6 3.4.8-.2.1c-.8.3-1.5.6-2.3.8-.3.2-.7.2-1.1.1-.6-.2-1.2-.4-1.9-.5-.2-.2-.5-.2-.8-.2.8.3 1.5.5 2.3.7.1 0 .3 0 .3.2s-.1.3-.4.2c-.5-.2-1-.3-1.6-.4-.2 0-.5-.2-.7-.2 0 .1 0 .1.1.1.8.2 1.6.5 2.4.7.2.1.5.1.8.1.8-.3 1.6-.5 2.4-.8l2.9-.9zm-5.2 2.4c1.2.6 2.3 1.2 3.4 1.6.3.1.6.2.9.1.5-.2 1-.2 1.5-.4l2.9-.7c-.5-.3-1.1-.5-1.6-.7-.3-.1-.6 0-.8.3-.1.1-.2.2-.3.2-.9.3-1.8.6-2.8.8-.2.1-.4 0-.6-.1l-.6-.6s-.3-.3.1-.5l1.2-.6-3.3.6zM12.9 24c-.1.6-.3 1.2-.6 1.8-.3.6-.8 1.2-1.3 1.6-.1.1-.1.1-.1.3.2.3.5.4.9.3.3-.1.6-.3.8-.5.8-.9 1.3-1.9 1.6-3 0-.1.1-.1 0-.2-.2-.1-.3-.2-.5-.3-.1 0-.3-.1-.2.2.1.1 0 .3-.1.3-.1.1-.2-.1-.3-.1 0-.1-.1-.3-.2-.4zm7.5-10.5c-.3.3-.8.3-1.1.1l-.2-.2c0-.1-.1-.1-.2-.1-.2 0-.4 0-.7-.1-.5 0-.9 0-1.4-.1-.2-.1-.5-.1-.8-.1-.5.2-.8.5-1.1.9.9.1 1.7.2 2.6.2.5 0 .9.1 1.4.1.7.1 1.3.2 2 .2.2 0 .2-.1.1-.3 0-.2-.4-.4-.6-.6zm-9.9 6.7h-.8c-.3.1-.5.1-.8.1-.2 0-.4.2-.3.5v.1c0 .1.1.1.1 0 .8-.2 1.5-.2 2.3-.4.2-.1.5-.1.8 0 .4.2.5.1.6-.4s.3-.6.8-.4c.1 0 .1.1.2 0s.2-.3.1-.5c0-.1 0-.3-.2-.3-.2-.1-.3 0-.4.2-.1.1-.2.3-.3.4-.1.1-.4.1-.5 0-.2-.1-.2-.3-.1-.5s.3-.3.4-.4.2-.2.1-.3c0-.1-.2-.2-.3-.2-.4 0-.6.3-.5.8 0 .1.1.2 0 .3s-.3.1-.4-.1-.3-.3-.2-.6c.1-.1.1-.4-.2-.4s-.3.2-.4.4c-.1.1 0 .3.1.4.2.1.4.3.6.4.2.1.3.3.2.5 0 .2-.2.2-.4.2 0 .1-.2.2-.5.2zm7.8 2.2l.6.6c.2.2.5.3.7.2.8-.3 1.7-.5 2.5-.8.1 0 .1 0 .1-.1s-.1-.1-.2-.1c-.2 0-.5 0-.7.1-.4 0-.8.1-1.2.3-.3.2-.6.3-.9.5-.1 0-.1.1-.1 0s0-.1.1-.1l.8-.4c.1-.1.4-.1.4-.3s-.2-.2-.4-.3-.3-.3-.5-.1l-1.2.5zm1.8-2c-.2.1-.4.1-.6.2-.5.1-.5.1-.5.6-.2-.1 0-.4-.2-.5-1 .3-2 .6-3 1-.1 0-.2.1-.2.2s.2.1.3.1h.1c.8-.2 1.7-.4 2.5-.6.7-.1.7-.1.7-.6s.1.2.1.3 0 .2.1.1l.1-.1c0-.2 0-.3.1-.5v.5s0 .1.1.1.1 0 .1-.1c.1-.2.2-.5.3-.7zm3-5.7c-.1-.3-.2-.6-.5-.8-.1-.1-.1-.2-.2-.2-.4-.1-.8-.1-1.1.2-.2.1-.2.2-.1.3s.1.4.3.4c.6-.1 1.1.1 1.6.1zm-13 4.3c.1.2.3.3.5.4s.2.1.2.3-.2.1-.3.1c-.5-.1-1.1-.1-1.6.1-.1 0-.3 0-.2.2s.2.1.3.1c.4-.2.9-.2 1.4-.2.3 0 .6 0 .8-.1.1 0 .2 0 .2-.1s0-.1-.1-.2-.2-.2-.4-.3c-.3-.1-.4-.4-.4-.7 0-.2-.1-.2-.2-.2s-.3.1-.4.2c-.1 0-.2 0-.1.2 0 .1.1.2.3.3 0 .1-.1-.1 0-.1zm5.4 3c-.1-.2-.1-.2-.2-.2l-2.1-.6c-.2-.1-.4-.1-.6-.2-.2-.1-.4 0-.6.1l3.5.9zm6.5 0c-.5-.4-1.2-.5-1.9-.4.5.7 1.2.4 1.9.4zm.6-.2c-.6-.6-1.6-.8-2.4-.4.2.1.4.1.6 0 .2 0 .5 0 .7.1.4.1.7.4 1.1.3zm-7.5-.8c-.8-.3-1.6-.5-2.4-.6.8.3 1.6.5 2.4.6zM29 8.9c-.2.2-.1.4-.1.6s0 .2-.1.1-.1-.1 0-.2 0-.2.1-.4 0-.2-.1-.2 0 .1-.1.1c-.1.3 0 .6-.2.9.4-.2.6-.4.5-.9zM20.5 21h.1v-.5s.2-.2 0-.3-.4 0-.4.2v.7c.3-.3.1-.6.3-.8v.7zm7.7-11c.3-.4.2-.8.3-1.2l-.1-.1s0 .1-.1.1c-.1.4-.1.8-.1 1.2zm0-1c-.4.4-.1.8-.2 1.2.1-.4.1-.8.2-1.2zM14.4 24.2c0-.1 0-.2-.1-.3-.3-.1-.5-.2-.8-.3 0 0-.1 0-.1.1s0 .1.1.1c.3 0 .6.2.9.4zm-1.7-.8c.3.2.4.5.7.7-.1-.5-.3-.7-.7-.7zm8.6-2.5c.2-.3.1-.6.1-.9-.1.2-.2.6-.1.9zm-.1-.9c-.2.2-.2.6-.1.9 0-.3.2-.6.1-.9zm-.4 1c.1-.2.1-.5.2-.7 0 0 0-.1-.1-.1s-.1 0-.1.1c-.1.2-.1.4 0 .7zM9.9 17.6c-.1 0-.1.1-.1.2s.1.1.1.1.2 0 .1-.1 0-.1-.1-.2zm0 1.9h.4c-.1 0-.2-.4-.4 0z"/><path d="M13.5 4.6c0-1 .1-2 .1-3 0-.2.1-.4.2-.6.1-.4.4-.3.6-.3.6 0 1.2 0 1.8.1.4.1.9 0 1.3.1.8.1 1.7.2 2.5.3s1.5.2 2.3.3c.4 0 .8.1 1.2.2.1 0 .1.1.1.2-.1.8-.1 1.5-.2 2.3 0 .4-.1.8-.1 1.2-.1 1-.1 2.1-.2 3.1-.1.6-.1 1.2-.1 1.8l-.3 2.4c0 .3-.4.5-.8.4s-1.1-.1-1.6-.2l-2.3-.2-1.5-.1c-.7-.1-1.5-.2-2.2-.2-.3 0-.5-.1-.8-.1-.4 0-.7-.3-.8-.7v-.3c0-.3.1-.7.1-1 .2-1.3.5-2.3.5-3.4 0-.8.1-1.6.2-2.3zm4.3 12.1l1.5.3c.9.2 1.8.3 2.6.5.2 0 .2.1.2.3-.1.5-.1.5-.6.4l-3.5-.8c-.2-.1-.3-.3-.2-.7zm4.4-.4c-.3.3-.6.1-.9.1-.2 0-.4-.1-.6-.1-.1 0-.2-.1-.3.1s-.1.1-.2.1c-.3-.1-.6-.1-.9-.1-.2 0-.4 0-.4-.2s-.3-.1-.4-.1c-.2 0-.3-.1-.5-.1-.1 0-.1-.1-.1-.1s0-.1.1-.1h.4c.2 0 .4.2.5-.2 0-.1.2-.1.3 0 .4.1.8.1 1.2.2.1 0 .2 0 .2.1 0 .5.5.3.7.4.2-.2.6-.1.9 0z"/><path d="M12.1 17v-1.2c.1-.6 0-1.1.1-1.7 0-.3.1-.3.4-.3 1 .2 2.1.4 3.1.5s1.9.3 2.8.3 1.8.2 2.8.3l1.2.1c.1 0 .2.1.2.2 0 .3-.1.6-.1.8l-.1.1V16c.1-.6 0-.8-.6-.9s-1.5-.1-2.2-.1c-1.2-.1-2.2-.2-3.2-.4-.5-.1-1-.1-1.6-.2s-1.1-.1-1.6-.3c-.2-.1-.5-.1-.7-.1-.4 0-.4 0-.4.4 0 .8 0 1.6-.1 2.4.1.1.1.1 0 .2z"/><path d="M12.4 14.9c0-.3.3-.6.6-.6s.6.3.6.6-.2.5-.5.6c-.4 0-.6-.3-.7-.6zm.7 1c.3 0 .4.1.4.5 0 .2-.2.4-.5.5-.3 0-.5-.2-.6-.5.1-.3.3-.5.7-.5zm8.9 4.3c.4 0 .5 0 .5-.5v-1c0-.1 0-.2.1-.3.1.1.1.2.1.3v1.4s0 .4-.4.2c-.2 0-.3.1-.3-.1zm.4-2.2c.1-.4-.1-.7.2-1-.1.3.1.7-.2 1zM3.2 27.8c-.2.1-.4 0-.3-.3 0-.2.1-.4.1-.6 0-.1.1-.2.2-.1.1 0 .1.1.1.2v.4s0 .1-.1.1-.2-.3-.2-.1 0 .3.2.4c.1-.1 0 0 0 0zm-1.6-2.5c-.1 0-.1.2-.2.2-.5-.1-.3.3-.4.5-.1 0-.1-.1-.1-.2l.3-1.2v-.3l.2.3c-.1-.1-.2 0-.2.2v.3c0 .1-.2.3 0 .4s.2-.1.3-.3c.1-.1.1 0 .1.1zm.8 1.5c-.1.1-.1.3-.3.2s-.2-.3-.2-.4c0-.1 0-.2.1-.3.1-.1 0-.4.2-.4s.2.3.2.5v.4zm-.1-.4v-.3l-.1.1v.1c-.1.2-.1.4 0 .5h.1s.1-.2 0-.4z"/><path d="M1.6 25.3c.1-.2.1-.4.2-.6.1.1.1.3 0 .5s-.1.4.2.5c-.4 0-.3.3-.4.5s0 .2-.1.2 0-.1 0-.2c0-.3.1-.6.1-.9zm1.2 1.1c-.3.1-.3.4-.4.6 0 .1 0 .2-.1.2s0-.1 0-.2v-.2c.1-.2.2-.4.1-.6.3 0 .3.2.4.2z"/><path d="M2.8 26.4c0 .4 0 .7-.1 1.1-.1-.1-.1-.1.1-1.1zm-.9-.8c0 .4 0 .7-.2 1.1l.2-1.1z"/></g></svg>