<svg xmlns="http://www.w3.org/2000/svg" viewBox="0 0 288.83 265.41"><g fill="#fff"><path d="M125.93 168.83c-5.78 5.75-14 13.94-34 19.65-42.07 12-78.26-6.78-88.6-43.06-5.66-19.86-4.67-39.66 7.82-57.47 9.11-13.15 24.62-23.82 39.6-28.09 22.57-6.43 34.69-3.64 45.25-5.49l.7.39c-.49 8.54.51 16.84 2.62 27l-.39.7-3.79 1.08-.7-.39c-2-6.86-2.65-8.62-5.25-15.68-11.6-5.09-23.08-4.94-37-1C27 73.67 6.2 97.35 17.47 136.89c7.62 26.72 36 54.35 75.17 43.18 20.22-5.76 27.91-15.76 33.07-22.31l2 1zM259 106.93c1.92 3.6 3.36 9.6 3.36 17.53 0 18.73-15.61 38.42-48.27 38.42h-5.28c-7.68 4.08-13.45 7.68-13.45 14.89 0 7.68 5.76 9.84 19.21 9.84 7.92 0 27.37-.72 34.82-.72 13.21 0 28.58 2.4 28.58 27.37 0 30.5-27.85 51.15-64.35 51.15-22.81 0-44.42-11.53-44.42-35.06a25.52 25.52 0 0 1 4.32-14.89c2.4-3.6 13.69-11.53 21.61-15.37v-.48c-5.52-.72-16.09-4.32-16.09-15.13 0-9.36 12-16.09 21.85-22.57v-.48c-10.81-2.64-26.17-10.08-26.17-33.14 0-25 23.53-40.82 51.87-40.82 14.65 0 22.81 5.52 28.09 10.33h3.84a213.86 213.86 0 0 0 29.29-1.92l1 1.68-3.81 9.85zm-39.09 151.28c23.05 0 42.5-14.65 42.5-34.82 0-16.33-6.24-22.58-25.21-22.58-4.32 0-19.45.48-23.53.48-4.56 0-9.13-.24-12-.48-11.53 7.93-16.81 15.85-16.81 29.06-.01 18.73 18.48 28.34 35.05 28.34zm-.24-102.54c13.21 0 26.41-9.36 26.41-30.5 0-21.6-15.08-29.77-27.08-29.77-18.73 0-26.89 12.73-26.89 30.26-.05 16.34 9.07 30 27.56 30z"/><path d="M110.88 43.91c-5.48-23.13-6.09-25.7-9.13-34.36C108.09 6.08 109.56 5 116 0l2.9.79c1.93 13.36 4.27 26.38 7.14 39.52l8-1.88c9.11-2.16 20.75-6.15 23.5-7l1.91.78a45.85 45.85 0 0 0 .46 10.26l-.54.87c-2.39.32-5.25.75-8.05 1.41l-22.9 5.42 16.38 69.16c2.16 9.11 7.35 13.31 18.1 10.77 6.07-1.44 10.13-4.13 13-7.53l2.77 2.31c-1.49 3.07-3.11 6.66-4.73 10.25-3.53 2.81-7.24 5.91-15.65 7.9-16.12 3.82-25.53-3.58-28.46-16-6.37-26.87-11.14-50.17-16.63-73.3l-6.31 1.5a93.19 93.19 0 0 0-11 3.59l-.89-.54-.72-3 .54-.87z"/></g></svg>