<svg enable-background="new 0 0 96 96" viewBox="0 0 96 96" xmlns="http://www.w3.org/2000/svg"><g fill="#fff"><path d="m41.9 60c-1.9 1.9-4.7 4.6-11.3 6.5-14 4-26-2.3-29.5-14.3-1.9-6.6-1.6-13.2 2.6-19.1 3-4.4 8.2-7.9 13.2-9.3 7.5-2.1 11.5-1.2 15-1.8l.2.1c-.2 2.8.2 5.6.9 9l-.1.2-1.3.4-.2-.1c-.7-2.3-.9-2.9-1.7-5.2-3.9-1.7-7.7-1.6-12.3-.3-8.4 2.3-15.3 10.1-11.6 23.3 2.5 8.9 12 18.1 25 14.4 6.7-1.9 9.3-5.2 11-7.4l.7.3zm44.2-20.6c.6 1.2 1.1 3.2 1.1 5.8 0 6.2-5.2 12.8-16 12.8h-1.8c-2.6 1.4-4.5 2.6-4.5 4.9 0 2.6 1.9 3.3 6.4 3.3 2.6 0 9.1-.2 11.6-.2 4.4 0 9.5.8 9.5 9.1 0 10.1-9.3 17-21.4 17-7.6 0-14.8-3.8-14.8-11.7 0-1.8.5-3.5 1.4-4.9.8-1.2 4.6-3.8 7.2-5.1v-.2c-1.8-.2-5.3-1.4-5.3-5 0-3.1 4-5.3 7.3-7.5v-.2c-3.6-.9-8.7-3.4-8.7-11 0-8.3 7.8-13.6 17.2-13.6 4.9 0 7.6 1.8 9.3 3.4h1.3c3.3 0 6.5-.2 9.7-.6l.3.6-1.3 3.3zm-13 50.3c7.7 0 14.1-4.9 14.1-11.6 0-5.4-2.1-7.5-8.4-7.5-1.4 0-6.5.2-7.8.2-1.5 0-3-.1-4-.2-3.8 2.6-5.6 5.3-5.6 9.7 0 6.2 6.2 9.4 11.7 9.4zm-.1-34.1c4.4 0 8.8-3.1 8.8-10.1 0-7.2-5-9.9-9-9.9-6.2 0-8.9 4.2-8.9 10.1-.1 5.4 3 9.9 9.1 9.9z"/><path d="m36.9 18.5c-1.8-7.7-2-8.5-3-11.4 2.1-1.2 2.6-1.5 4.7-3.2l1 .3c.6 4.4 1.4 8.8 2.4 13.1l2.7-.6c3-.7 6.9-2 7.8-2.3l.6.3c-.1 1.1 0 2.3.2 3.4l-.3.2c-.8.1-1.7.2-2.7.5l-7.6 1.8 5.4 23c.7 3 2.4 4.4 6 3.6 2-.5 3.4-1.4 4.3-2.5l.9.8c-.5 1-1 2.2-1.6 3.4-1.2.9-2.4 2-5.2 2.6-5.4 1.3-8.5-1.2-9.5-5.3-2.1-8.9-3.7-16.7-5.5-24.4l-2.1.5c-1.2.3-2.5.7-3.7 1.2l-.3-.2-.2-1 .2-.3z"/></g></svg>