<svg enable-background="new 0 0 96 96" viewBox="0 0 96 96" xmlns="http://www.w3.org/2000/svg"><g fill="#212121"><path d="m48 96c-26.5 0-48-21.5-48-48s21.5-48 48-48 48 21.5 48 48-21.5 48-48 48zm0-89.7c-23 0-41.7 18.7-41.7 41.7s18.7 41.7 41.7 41.7 41.7-18.7 41.7-41.7-18.7-41.7-41.7-41.7z"/><path d="m7.6 47.1h80.7v1.8h-80.7z" transform="matrix(.2666 -.9638 .9638 .2666 -11.0593 81.467)"/><path d="m47.1 7.6h1.8v80.7h-1.8z" transform="matrix(.2667 -.9638 .9638 .2667 -11.0618 81.4619)"/><path d="m7.6 47.1h80.7v1.8h-80.7z" transform="matrix(.968 -.251 .251 .968 -10.5136 13.5867)"/><path d="m7.6 47.1h80.7v1.8h-80.7z" transform="matrix(.7129 -.7012 .7012 .7129 -19.8789 47.4408)"/><path d="m47.1 7.6h1.8v80.7h-1.8z" transform="matrix(.968 -.251 .251 .968 -10.511 13.5852)"/><path d="m47.1 7.6h1.8v80.7h-1.8z" transform="matrix(.7128 -.7014 .7014 .7128 -19.8831 47.4524)"/></g><path d="m48 91.5c-24 0-43.5-19.5-43.5-43.5s19.5-43.5 43.5-43.5 43.5 19.5 43.5 43.5-19.5 43.5-43.5 43.5zm0-80.7c-20.5 0-37.2 16.7-37.2 37.2s16.7 37.2 37.2 37.2 37.2-16.7 37.2-37.2-16.7-37.2-37.2-37.2z" fill="#fff"/><path d="m48 59.3c-6.2 0-11.2-5.1-11.2-11.3 0-1.4.3-2.7.7-4 2.2-5.8 8.7-8.7 14.5-6.5 5.8 2.2 8.7 8.7 6.5 14.5-1.7 4.4-5.8 7.2-10.5 7.3z" fill="#fff"/><path d="m48 38.6c1.2 0 2.3.2 3.4.6 4.9 1.9 7.3 7.3 5.5 12.2-1.4 3.7-4.9 6.1-8.9 6.1-1.2 0-2.3-.2-3.4-.6-4.9-1.9-7.3-7.3-5.5-12.2 1.5-3.7 5-6.1 8.9-6.1m0-3.6c-5.4 0-10.2 3.3-12.1 8.4-2.6 6.7.8 14.3 7.5 16.8 1.5.6 3 .9 4.6.9 5.4 0 10.2-3.3 12.2-8.4 2.6-6.7-.8-14.2-7.5-16.8-1.5-.6-3.1-.9-4.7-.9z" fill="#212121"/></svg>