<svg id="Layer_1" data-name="Layer 1" xmlns="http://www.w3.org/2000/svg" viewBox="0 0 1000 621.52"><defs><style>.cls-1{fill:#fff;}</style></defs><title>Artboard 1</title><path class="cls-1" d="M493.56,536.77q-33.65,40.3-95.14,62.53T262.15,621.52q-78.52,0-137.72-34.28T33,487.74Q.83,422.53,0,334.44V293.31q0-90.57,30.54-156.83T118.61,35.11Q176.15,0,253.43,0,361,0,421.69,51.31t71.87,149.36H372.25q-8.32-51.93-36.77-76t-78.31-24.1q-63.56,0-96.8,47.78T126.71,290.4V329q0,95.14,36.14,143.75T268.8,521.4q70.2,0,100.12-29.91V387.2H255.5V295.39H493.56Z"/><path class="cls-1" d="M958.45,350.23H719.15V513.09H1000V613.21H594.52V8.31H999.17v101h-280V253.43h239.3Z"/></svg>