<svg height="64" viewBox="0 0 161.9 64" width="161.9" xmlns="http://www.w3.org/2000/svg"><path d="m124.9 1v-.1c-1.2-.2-2.7-.3-4.2-.4-1.6-.1-3.2-.2-4.8-.3s-3.3-.1-4.8-.1c-1.6 0-3-.1-4.2-.1-5.5 0-10.2.8-14.1 2.3s-7.1 3.7-9.5 6.5c-.8 1-1.6 2-2.3 3.1-.7-1.1-1.4-2.1-2.3-3.1-2.5-2.8-5.7-5-9.6-6.5s-8.6-2.3-14.1-2.3c-1.2 0-2.7 0-4.2 0s-3.2.1-4.8.1c-1.7.1-3.3.1-4.8.3s-3 .3-4.2.4v.2l-37-.1v62.2h36.8c.8.1 1.9.2 3.5.3 1.5.1 3.2.2 4.8.3 1.7.1 3.3.2 4.9.2 1.6.1 2.8.1 3.8.1 6 0 11-.9 15-2.8 4.1-1.8 7.3-4.3 9.8-7.3.8-1 1.5-2 2.2-3.1.7 1.2 1.4 2.2 2.2 3.2 2.5 3 5.8 5.4 9.8 7.3 4 1.8 9.1 2.8 15 2.8.9 0 2.2 0 3.8-.1s3.2-.1 4.9-.2 3.3-.2 4.8-.3 2.7-.2 3.5-.3v-.1h37.3v-62.2zm-112.7 51.2v-15.1h22.5v-10.9h-22.5v-14.4h24.7v40.5zm59.8-12.6c-.5 2.5-1.4 4.9-2.8 7-1.4 2-3.2 3.7-5.4 4.8-2.3 1.2-5.1 1.8-8.6 1.8-.3 0-.7 0-1.3 0l-1.9-.1c-.6 0-1.3-.1-1.8-.1-.4 0-.8-.1-1.2-.1v-41.7l3-.3c1.3-.1 2.7-.1 4-.1 3.4 0 6.1.6 8.3 1.9 2.1 1.2 3.9 2.8 5.2 4.8s2.2 4.3 2.6 6.6c.5 2.4.7 4.9.7 7.3 0 2.8-.3 5.5-.8 8.2zm78-13.4h-22.5v10.8h22.5v15.2h-25.2v-21.5h-24.9v7.4l12.7 1.3v13.4c-.4.1-.8.1-1.2.1-.6 0-1.2.1-1.8.1l-1.9.1c-.6 0-1 0-1.3 0-3.4 0-6.3-.6-8.6-1.8-2.2-1.1-4.1-2.8-5.4-4.8-1.4-2.1-2.3-4.5-2.8-7-.5-2.7-.8-5.4-.8-8.1 0-2.5.3-4.9.7-7.3s1.3-4.6 2.6-6.6 3.1-3.6 5.2-4.8c2.2-1.2 5-1.9 8.3-1.9 1.3 0 2.6 0 4 .1 1 0 2 .1 3 .3l12.2.6h25.2z" fill="#fff"/></svg>