<svg id="Layer_1" data-name="Layer 1" xmlns="http://www.w3.org/2000/svg" viewBox="0 0 807.3 318.7"><defs><style>.cls-1{fill:#fff;}</style></defs><title>Artboard 1</title><g id="Layer_2" data-name="Layer 2"><g id="Layer_1-2" data-name="Layer 1-2"><path class="cls-1" d="M621.6,4.9V4.4c-6.2-.9-13.2-1.6-21-2.2s-15.8-1-24.1-1.3S560.2.4,552.4.3s-14.8-.3-21-.3q-41.1,0-70.3,11.5c-19.5,7.7-35.2,18.4-47.3,32.3A117.35,117.35,0,0,0,402.5,59a131.32,131.32,0,0,0-11.3-15.3c-12.1-13.8-27.9-24.6-47.3-32.2S301,0,273.6,0c-6.2,0-13.2.1-21,.2s-15.8.4-24.1.7-16.3.7-24.1,1.3-14.8,1.3-21,2.2v.5L0,4.6V314H183.4v.2c3.8.6,9.6,1.1,17.2,1.5s15.7.9,24.1,1.3,16.5.8,24.3,1.1,14.1.4,18.8.4c29.8,0,54.7-4.6,74.9-13.7s36.5-21.2,48.8-36.2a128.27,128.27,0,0,0,10.9-15.3,146.78,146.78,0,0,0,10.9,15.3q18.6,22.5,48.8,36.3c20.1,9.2,45.1,13.7,74.9,13.7,4.7,0,11-.1,18.8-.4s15.9-.7,24.3-1.1,16.4-.9,24.1-1.3,13.4-1,17.2-1.5V314H807.1V4.6ZM60.6,260.1V184.5H172.4V130.6H60.5v-72l122.9.2V260.2Zm297.9-63.2a97,97,0,0,1-13.9,34.7,72,72,0,0,1-27,24.1c-11.3,6-25.5,9.1-42.6,9.1-1.5,0-3.7-.1-6.6-.2l-9.3-.4c-3.2-.1-6.3-.3-9.1-.5a30.69,30.69,0,0,1-6-.7V55.7a123.21,123.21,0,0,1,14.8-1.3c6.6-.3,13.2-.5,19.7-.5,16.8,0,30.6,3.1,41.5,9.3a73.24,73.24,0,0,1,25.9,23.9,91.08,91.08,0,0,1,13,32.9,193.77,193.77,0,0,1,3.5,36.5,211.11,211.11,0,0,1-3.9,40.4Zm388.3-66.3H634.9v53.9H746.7v75.6l-125.2.1V152.6l-123.8.2v36.7l63.2,6.7V263a40.88,40.88,0,0,1-6,.7c-2.8.1-5.8.3-9,.5l-9.3.4c-2.9.2-5.1.2-6.6.2-17.1,0-31.3-3-42.6-9.1a72,72,0,0,1-27-24.1,94.52,94.52,0,0,1-13.9-34.7,203.49,203.49,0,0,1-4-40.4,193.85,193.85,0,0,1,3.6-36.5,91.08,91.08,0,0,1,13-32.9A75.11,75.11,0,0,1,485,63.2c10.9-6.2,24.8-9.3,41.5-9.3,6.5,0,13,.2,19.7.5A123.21,123.21,0,0,1,561,55.7l60.5,3,125.2-.2Z"/></g></g></svg>