<svg id="Layer_1" data-name="Layer 1" xmlns="http://www.w3.org/2000/svg" viewBox="0 0 1023.1 442.9"><defs><style>.cls-1{fill:#fff;}</style></defs><title>Artboard 1</title><g id="_Group_" data-name=" Group "><g id="g6014"><path class="cls-1" d="M910.72,52.32c-.27-.7-.56-1.4-.87-2.09C910.15,50.92,910.42,51.63,910.72,52.32Z"/><path class="cls-1" d="M691.1,153.34s208.34-3.3,290.36-38.78c6-43.89,41.64-50.06,41.64-50.06-41.44-7.7-53.94,35.68-57.19,52.37C968,95.09,958.8,65.4,958.8,65.4c2,26.5-12.5,39.8-12.5,39.8-7.8-6.83-10-17.7-9.6-28.82a36.73,36.73,0,0,1,5.9-1.73,54.13,54.13,0,0,0-5.77-.75c1.3-19,9.47-37.89,9.47-37.89-10.42,7.72-16.67,23.76-20.3,38.34a37.83,37.83,0,0,0-6.89,1.88,206.09,206.09,0,0,0-8.39-23.91c3.45,8.92,3.76,18.23,2.61,26.7a43.37,43.37,0,0,0-10.82,9.2c-1-10.55-3.34-23.27-9-34.19-12.2-23.7,9.2-54,9.2-54-15.3,2.8-26.5,21.7-25.5,56.8.78,25-3.16,40.38-5.48,47.14C877,85.8,863,54.9,863,54.9c1.49,16-2.38,28.17-6.79,36.57-.86-21.15,9.59-45.33,9.59-45.33-6.07,4.51-10.73,11.83-14.28,20a80.9,80.9,0,0,0-12-33.09c10.8,23,6.23,47.34,1.21,62.54-3-16.54-11.41-35.3-11.41-35.3,4,8.92,4.63,18.32,3.7,27a67.77,67.77,0,0,0-6.8-13.52,55.32,55.32,0,0,1-3.86,30c-.6-11.38-2.73-26.77-9.36-39.63a32.54,32.54,0,0,1-1.9-4.5C812,51.82,813,46.3,813,46.3a15,15,0,0,0-3.69,3.7c-1-20.08,12.89-39.82,12.89-39.82C806.9,13,795.7,31.88,796.7,67v1.63C790.87,50.28,778.3,33,778.3,33c6.32,10.36,7.78,26.5,7.58,40.59C784,68.42,782.5,65,782.5,65a65.56,65.56,0,0,1-4.62,32c-7.26-11.87-3.68-36.52-3.68-36.52a62.89,62.89,0,0,0-4.46,8.66A79.36,79.36,0,0,0,759,43.24c17.4,37-5.1,77.7-5.1,77.7,6.1-16.2-8.2-37-8.2-37,3.1,21.8-7.1,36-7.1,36-16.3-8.5-6.1-63.5-6.1-63.5-11.3,7.5-13.3,38.8-13.3,38.8,0-22.7-21.4-52.1-21.4-52.1,13.3,21.8,5.1,69.2,5.1,69.2-14.3-6.6-9.2-41.7-9.2-41.7-23.5,37.9,0,92.9,0,92.9v.2M870.14,108a1,1,0,0,1,.11-.31h0Zm52.12-14.53a66.17,66.17,0,0,0-1-8.06A32.49,32.49,0,0,1,924,83.25C923.26,87,922.69,90.47,922.26,93.47Z"/><path id="_Compound_Path_" data-name=" Compound Path " class="cls-1" d="M313.2,295.94c0,84.6-65.9,146.9-156.6,146.9S0,380.94,0,295.94c0-84.6,65.9-145.2,156.6-145.2S313.2,211.74,313.2,295.94Zm-216.4.4c0,39.1,28.5,67.9,61,67.9s58.6-28.9,58.6-67.9-26-67.1-58.6-67.1c-32.9,0-61,28.1-61,67.1Z"/><path id="_Path_2" data-name=" Path 2" class="cls-1" d="M581.3,438.74V282.54l-48.8,128.6H470.7l-48.8-128.6v156.2H339.7V153.54h99.7l62.2,148.9,62.2-148.9h99.7v285.2H581.3Z"/><path class="cls-1" d="M983.3,153.64l-283.24-.1H690l-.1,142.9c0,84.7,65.1,146.5,154.6,146.5,40.7,0,93.2-15.5,124.9-36.6V288.74h-81V355c-13.8,5.8-27.7,9.4-37.4,9.4-37,0-64.3-28.5-64.3-68,0-38.6,26.9-67.1,63.5-67.1,23.6,0,51.3,11.8,70.4,30.1l53.3-64.7,9.4-12.6v-28.5Z"/></g></g></svg>